<svg id="Ebene_2" data-name="Ebene 2" xmlns="http://www.w3.org/2000/svg" viewBox="0 0 970.5 647"><defs><style>.cls-1{fill:#006239;}.cls-2{fill:#fabc0c;}.cls-3{fill:#fff;}.cls-4,.cls-6,.cls-7{fill:none;stroke-linecap:round;stroke-linejoin:round;}.cls-4{stroke:#006239;}.cls-5{fill:#008a2e;}.cls-6{stroke:#fff;}.cls-7{stroke:#008a2e;}</style></defs><rect class="cls-1" width="970.5" height="647"/><polygon class="cls-2" points="474.9 49.2 481.3 53.9 478.8 61.4 485.2 56.8 491.6 61.5 489.2 53.9 495.6 49.3 487.7 49.2 485.3 41.7 482.8 49.2 474.9 49.2"/><polygon class="cls-2" points="442.5 52.4 449.4 56.3 447.8 64.1 453.7 58.7 460.6 62.6 457.3 55.3 463.1 50 455.2 50.9 451.9 43.7 450.4 51.4 442.5 52.4"/><polygon class="cls-2" points="410.7 59.3 418 62.4 417.4 70.3 422.5 64.3 429.9 67.3 425.7 60.5 430.9 54.5 423.2 56.3 419 49.6 418.4 57.5 410.7 59.3"/><polygon class="cls-2" points="379.9 70 387.5 72.2 387.9 80.1 392.3 73.5 399.9 75.7 395 69.4 399.4 62.8 392 65.6 387.1 59.3 387.4 67.3 379.9 70"/><polygon class="cls-2" points="350.6 84.2 358.5 85.5 359.7 93.3 363.3 86.3 371.2 87.5 365.6 81.9 369.2 74.8 362.1 78.4 356.5 72.8 357.7 80.6 350.6 84.2"/><polygon class="cls-2" points="323.2 101.8 331.2 102.2 333.4 109.8 336.1 102.3 344 102.7 337.8 97.7 340.5 90.3 333.9 94.7 327.7 89.8 329.9 97.4 323.2 101.8"/><polygon class="cls-2" points="298.1 122.6 306.1 121.9 309.1 129.3 311 121.5 318.9 120.9 312.1 116.8 313.9 109 307.9 114.2 301.1 110.1 304.2 117.4 298.1 122.6"/><polygon class="cls-2" points="275.7 146.1 283.5 144.5 287.4 151.5 288.3 143.6 296.1 142 288.8 138.7 289.8 130.8 284.4 136.6 277.2 133.3 281.1 140.3 275.7 146.1"/><polygon class="cls-2" points="256.1 172.1 263.7 169.7 268.4 176.1 268.3 168.1 275.9 165.7 268.3 163.2 268.3 155.3 263.7 161.7 256.1 159.3 260.8 165.7 256.1 172.1"/><polygon class="cls-2" points="239.8 200.3 247 197 252.4 202.8 251.5 194.9 258.7 191.5 250.9 190 249.9 182.1 246 189.1 238.3 187.5 243.7 193.3 239.8 200.3"/><polygon class="cls-2" points="226.9 230.2 233.7 226 239.7 231.2 237.9 223.4 244.6 219.3 236.7 218.7 234.8 211 231.8 218.3 223.9 217.7 229.9 222.8 226.9 230.2"/><polygon class="cls-2" points="217.7 261.4 223.9 256.5 230.5 260.8 227.7 253.4 234 248.5 226 248.8 223.2 241.4 221.1 249 213.2 249.4 219.8 253.7 217.7 261.4"/><polygon class="cls-2" points="212.2 293.5 217.8 287.8 224.9 291.4 221.2 284.4 226.8 278.7 219 280 215.3 272.9 214.1 280.8 206.3 282.1 213.4 285.6 212.2 293.5"/><polygon class="cls-2" points="210.5 326 215.4 319.7 222.9 322.4 218.4 315.9 223.3 309.6 215.7 311.8 211.2 305.2 210.9 313.2 203.3 315.3 210.8 318.1 210.5 326"/><polygon class="cls-2" points="212.7 358.5 216.8 351.7 224.6 353.5 219.4 347.5 223.5 340.7 216.1 343.8 210.9 337.8 211.6 345.7 204.3 348.8 212 350.6 212.7 358.5"/><polygon class="cls-2" points="218.7 390.5 222 383.2 229.9 384.1 224 378.8 227.3 371.5 220.4 375.4 214.5 370.1 216.1 377.9 209.2 381.8 217.1 382.7 218.7 390.5"/><polygon class="cls-2" points="228.5 421.5 230.9 413.9 238.8 413.9 232.4 409.3 234.8 401.7 228.4 406.4 221.9 401.8 224.4 409.3 218 414 226 414 228.5 421.5"/><polygon class="cls-2" points="241.9 451.2 243.3 443.4 251.2 442.4 244.3 438.6 245.7 430.8 239.9 436.2 233 432.4 236.4 439.6 230.6 445 238.5 444 241.9 451.2"/><polygon class="cls-2" points="258.6 479.1 259.2 471.2 266.9 469.2 259.5 466.3 260.1 458.3 255 464.4 247.6 461.5 251.8 468.2 246.7 474.3 254.4 472.4 258.6 479.1"/><polygon class="cls-2" points="278.6 504.8 278.2 496.9 285.6 494 278 492 277.6 484 273.2 490.7 265.6 488.6 270.5 494.8 266.2 501.4 273.6 498.6 278.6 504.8"/><polygon class="cls-2" points="301.5 528 300.1 520.1 307.2 516.5 299.3 515.3 298 507.5 294.5 514.6 286.6 513.4 292.3 519 288.8 526.1 295.8 522.4 301.5 528"/><polygon class="cls-2" points="326.9 548.3 324.7 540.7 331.2 536.2 323.3 535.9 321 528.3 318.4 535.8 310.4 535.6 316.7 540.4 314.1 547.9 320.6 543.4 326.9 548.3"/><polygon class="cls-2" points="354.6 565.4 351.5 558.1 357.4 552.9 349.5 553.6 346.4 546.3 344.6 554.1 336.7 554.8 343.5 558.9 341.8 566.6 347.8 561.4 354.6 565.4"/><polygon class="cls-2" points="384.1 579.2 380.1 572.3 385.4 566.4 377.7 568.1 373.7 561.2 372.8 569.1 365.1 570.7 372.3 574 371.5 581.8 376.8 576 384.1 579.2"/><polygon class="cls-2" points="415 589.4 410.3 583 414.8 576.5 407.3 579.1 402.5 572.7 402.6 580.6 395.1 583.2 402.7 585.6 402.8 593.5 407.4 587 415 589.4"/><polygon class="cls-2" points="446.9 595.8 441.4 590 445.2 583.1 438 586.5 432.6 580.7 433.6 588.6 426.5 592.1 434.3 593.5 435.3 601.3 439.1 594.4 446.9 595.8"/><polygon class="cls-2" points="479.4 598.4 473.2 593.4 476.2 586 469.5 590.2 463.3 585.2 465.3 592.9 458.6 597.1 466.5 597.6 468.5 605.3 471.4 597.9 479.4 598.4"/><polygon class="cls-2" points="511.9 597.2 505.2 592.9 507.2 585.2 501.1 590.2 494.4 585.9 497.3 593.3 491.1 598.4 499.1 597.9 501.9 605.3 504 597.6 511.9 597.2"/><polygon class="cls-2" points="544 592.1 536.9 588.6 538 580.8 532.5 586.5 525.3 583 529.1 590 523.6 595.7 531.4 594.4 535.1 601.4 536.2 593.5 544 592.1"/><polygon class="cls-2" points="575.4 583.3 567.9 580.7 568 572.7 563.2 579.1 555.7 576.4 560.3 583 555.5 589.3 563.1 587 567.6 593.5 567.8 585.6 575.4 583.3"/><polygon class="cls-2" points="605.4 570.8 597.7 569.1 596.9 561.2 592.9 568 585.1 566.3 590.4 572.3 586.4 579.1 593.7 575.9 598.9 581.9 598.1 574 605.4 570.8"/><polygon class="cls-2" points="633.8 554.9 625.9 554.1 624.2 546.3 621 553.6 613.1 552.8 619 558.1 615.9 565.4 622.7 561.4 628.6 566.6 627 558.9 633.8 554.9"/><polygon class="cls-2" points="660.1 535.7 652.2 535.8 649.5 528.3 647.2 535.9 639.3 536.1 645.8 540.6 643.5 548.2 649.9 543.4 656.4 548 653.8 540.5 660.1 535.7"/><polygon class="cls-2" points="683.9 513.5 676.1 514.6 672.6 507.4 671.2 515.3 663.3 516.4 670.3 520.1 669 527.9 674.7 522.4 681.7 526.1 678.2 519 683.9 513.5"/><polygon class="cls-2" points="705 488.7 697.3 490.7 693 484 692.6 491.9 684.9 494 692.3 496.8 691.8 504.8 696.9 498.6 704.2 501.5 700 494.8 705 488.7"/><polygon class="cls-2" points="723 461.5 715.6 464.4 710.5 458.3 711 466.2 703.6 469.1 711.3 471.1 711.8 479.1 716.1 472.4 723.7 474.3 718.7 468.2 723 461.5"/><polygon class="cls-2" points="737.6 432.4 730.6 436.2 724.8 430.7 726.3 438.5 719.3 442.3 727.1 443.4 728.6 451.2 732 444 739.9 445.1 734.1 439.6 737.6 432.4"/><polygon class="cls-2" points="748.7 401.8 742.2 406.4 735.8 401.6 738.1 409.2 731.6 413.8 739.6 413.9 741.9 421.5 744.5 414 752.4 414.1 746.1 409.4 748.7 401.8"/><polygon class="cls-2" points="756.1 370.1 750.1 375.4 743.3 371.4 746.5 378.7 740.6 384 748.5 383.2 751.7 390.5 753.4 382.7 761.2 381.9 754.4 377.9 756.1 370.1"/><polygon class="cls-2" points="759.6 337.8 754.4 343.7 747.1 340.6 751.1 347.4 745.9 353.4 753.7 351.7 757.7 358.5 758.4 350.6 766.2 348.8 758.9 345.7 759.6 337.8"/><polygon class="cls-2" points="759.4 305.2 754.9 311.8 747.2 309.5 752.1 315.8 747.6 322.4 755.1 319.7 759.9 326 759.7 318.1 767.2 315.4 759.6 313.2 759.4 305.2"/><polygon class="cls-2" points="755.3 272.9 751.6 280 743.7 278.6 749.3 284.3 745.6 291.3 752.7 287.8 758.2 293.5 757.1 285.7 764.2 282.1 756.4 280.8 755.3 272.9"/><polygon class="cls-2" points="747.3 241.3 744.5 248.8 736.6 248.4 742.8 253.4 739.9 260.8 746.6 256.5 752.8 261.4 750.7 253.8 757.3 249.4 749.4 249 747.3 241.3"/><polygon class="cls-2" points="735.8 210.9 733.8 218.6 725.9 219.2 732.6 223.4 730.7 231.1 736.8 226 743.5 230.2 740.6 222.9 746.6 217.8 738.7 218.3 735.8 210.9"/><polygon class="cls-2" points="720.7 182.1 719.6 190 711.8 191.4 719 194.8 718 202.7 723.5 197 730.6 200.3 726.8 193.4 732.3 187.6 724.5 189.1 720.7 182.1"/><polygon class="cls-2" points="702.3 155.2 702.2 163.2 694.6 165.6 702.1 168.1 702.1 176.1 706.8 169.7 714.3 172.2 709.7 165.7 714.4 159.3 706.9 161.7 702.3 155.2"/><polygon class="cls-2" points="680.8 130.8 681.7 138.7 674.4 141.9 682.2 143.5 683.1 151.4 687 144.6 694.8 146.2 689.4 140.3 693.4 133.4 686.2 136.6 680.8 130.8"/><polygon class="cls-2" points="656.6 109 658.4 116.7 651.6 120.8 659.5 121.5 661.3 129.3 664.4 121.9 672.3 122.6 666.3 117.4 669.4 110.1 662.6 114.2 656.6 109"/><polygon class="cls-2" points="630 90.2 632.7 97.7 626.4 102.6 634.4 102.3 637.1 109.8 639.3 102.2 647.2 101.9 640.6 97.4 642.8 89.8 636.6 94.7 630 90.2"/><polygon class="cls-2" points="601.4 74.7 604.9 81.9 599.3 87.4 607.1 86.2 610.7 93.4 612 85.5 619.8 84.3 612.8 80.7 614.1 72.8 608.4 78.4 601.4 74.7"/><polygon class="cls-2" points="571.1 62.8 575.5 69.4 570.5 75.6 578.2 73.5 582.6 80.1 582.9 72.2 590.6 70.1 583.1 67.3 583.5 59.4 578.5 65.6 571.1 62.8"/><polygon class="cls-2" points="539.6 54.4 544.8 60.5 540.6 67.3 547.9 64.3 553.1 70.3 552.5 62.4 559.8 59.4 552.1 57.5 551.5 49.6 547.4 56.3 539.6 54.4"/><polygon class="cls-2" points="507.4 49.9 513.2 55.3 509.9 62.5 516.8 58.7 522.6 64.1 521.1 56.3 528 52.4 520.2 51.5 518.6 43.7 515.3 50.9 507.4 49.9"/><polygon class="cls-3" points="492.7 198.6 514.9 74.9 507.4 200.4 544.1 80.1 521.8 203.9 572.5 88.8 535.8 209.1 599.7 100.8 549 215.8 625.2 115.9 561.3 224.1 648.8 133.9 572.5 233.8 670.1 154.6 582.5 244.8 688.8 177.6 591.2 256.8 704.7 202.7 598.4 269.8 717.5 229.5 603.9 283.6 727 257.7 607.9 297.9 733.1 286.7 610 312.6 735.7 316.3 610.5 327.4 734.8 346 609.2 342.2 730.5 375.3 606.1 356.7 722.6 404 601.4 370.8 711.5 431.5 595 384.2 697.1 457.5 587 396.8 679.8 481.6 577.7 408.3 659.8 503.5 567 418.6 637.3 522.9 555.2 427.6 612.7 539.5 542.5 435.2 586.3 553 528.9 441.2 558.4 563.4 514.7 445.5 529.6 570.4 500.1 448.1 500.1 573.9 485.3 449 470.4 573.9 470.4 448.1 440.9 570.4 455.8 445.5 412.1 563.4 441.6 441.2 384.2 553 428 435.2 357.8 539.5 415.3 427.6 333.2 522.9 403.5 418.6 310.7 503.5 392.8 408.3 290.7 481.6 383.5 396.8 273.4 457.5 375.5 384.2 259 431.5 369.1 370.8 247.9 404 364.4 356.7 240 375.3 361.3 342.2 235.7 346 360 327.4 234.8 316.3 360.5 312.6 237.4 286.7 362.6 297.9 243.5 257.7 366.6 283.6 253 229.5 372.1 269.8 265.8 202.7 379.3 256.8 281.6 177.6 388 244.8 300.4 154.6 398 233.8 321.7 133.9 409.2 224.1 345.3 115.9 421.5 215.8 370.8 100.8 434.7 209.1 398 88.8 448.7 203.9 426.4 80.1 463.1 200.4 455.6 74.9 477.8 198.6 485.2 73.1 492.7 198.6"/><path class="cls-1" d="M446.7,330.5a1.69,1.69,0,0,1-.5-.2,2.18,2.18,0,0,1-.8-.5.72.72,0,0,1-.4-.7c0-.2.1-.3.2-.5s.5-.4.6-.6a1.07,1.07,0,0,0,.3-.5,1.89,1.89,0,0,1,1.3-1.3h.3a1.08,1.08,0,0,1,.7.3,1.42,1.42,0,0,1,.2.6,7.44,7.44,0,0,1-1.2,3.1h0c-.1.1-.2.2-.3.2Z"/><path class="cls-4" d="M446.7,330.5a1.69,1.69,0,0,1-.5-.2,2.18,2.18,0,0,1-.8-.5.72.72,0,0,1-.4-.7c0-.2.1-.3.2-.5s.5-.4.6-.6a1.07,1.07,0,0,0,.3-.5,1.89,1.89,0,0,1,1.3-1.3h.3a1.08,1.08,0,0,1,.7.3,1.42,1.42,0,0,1,.2.6,7.44,7.44,0,0,1-1.2,3.1h0c-.1.1-.2.2-.3.2Z"/><path class="cls-5" d="M623.9,480.2Z"/><path class="cls-6" d="M623.9,480.2Z"/><path class="cls-1" d="M663.1,433.4a24.56,24.56,0,0,0-2-8.9l-.2-.5-.4.2h0l-.3-.3h0v-.1c0-.1.1-.2.1-.4a1.42,1.42,0,0,0-.2-.6c-.1,0-.2-.5-.4-.8l-.3-.6-.2-.2a.6.6,0,0,0,.1-.4,1.23,1.23,0,0,0-.4-.8,1,1,0,0,0-.8-.4.86.86,0,0,0-.6.3,1.42,1.42,0,0,0-.2.6v.3h0a3,3,0,0,1-.7,1,2.23,2.23,0,0,1-1,.6h-.2l-.8.4.8.4a.87.87,0,0,1,.5.9,7.17,7.17,0,0,1-.5,2.1,4.17,4.17,0,0,1-.5,1.4c-.2.2-.3.4-1.1.4h-.3a1.36,1.36,0,0,0-.6-1.1l-.3-.3-.3.3a1.19,1.19,0,0,0-.5.9,1.08,1.08,0,0,0,.3.7,1.14,1.14,0,0,0,.8.3h0v0l.1-.4.4.2h0c-.2.1-.3.2-.5.3a5.9,5.9,0,0,0-.4.8c-.1-.1-.2-.3-.3-.4a1.21,1.21,0,0,0-.5-.5,1.49,1.49,0,0,0-.7-.3.68.68,0,0,0-.6.4,1.55,1.55,0,0,0-.2.8v.3a4.76,4.76,0,0,0,.5,1.8v.3a.75.75,0,0,1-.1.5h-.3c0,.1-.3.2-.7.4a1.29,1.29,0,0,0-.7,1.1,2.35,2.35,0,0,0,.2.8,1.38,1.38,0,0,0,.3.4l-.2.1a1.56,1.56,0,0,0-.6.8v-.4l-.1-.4-.4.1a1.13,1.13,0,0,0-.9.7c-.1.3-.1.5-.3.7l-.6.6a1.53,1.53,0,0,0-.7,1v.4a1.09,1.09,0,0,0-.5-.1H645a1.74,1.74,0,0,0-1.2.6,4.37,4.37,0,0,1-.8.7c-.1.1-.5.3-.8.5a1.22,1.22,0,0,0-.6,1.1v.2h0v.1a.91.91,0,0,0-.7-.3.89.89,0,0,0-.8.5,2.77,2.77,0,0,0-.9-.1,1.48,1.48,0,0,0-.7.1,1.33,1.33,0,0,0-.6.9h-.2a1.49,1.49,0,0,0-.9.4l-.1.1c-.1-.1-.2-.2-.2-.3l-.3-.3-.3.2c-.7.5-1.1,1.2-1.6,1.3H634c-.3,0-.7-.1-1.1-.1a1.31,1.31,0,0,0-1,.3,1,1,0,0,0-.2.7v.7l-.4-.4.3,1.4v.2a5.12,5.12,0,0,1-.7,1.8c-.2.4-.8,1-1.2,1.7a3.85,3.85,0,0,0-.9,2.2,2.92,2.92,0,0,0,.2.9,2.51,2.51,0,0,1,.2,1c0,.6-.1,1.3-.1,2v.3c.1,1.4,1,2.3.9,3.3h0v.6a4,4,0,0,0,.6,2.3,2,2,0,0,1,.3.8,5.79,5.79,0,0,1-.4,1.3c0,.1-.1.2-.1.4a1.49,1.49,0,0,0,.3.8.77.77,0,0,1,.1.3.31.31,0,0,1-.1.2c-.4.8-1,1.6-1.5,2.4a14.72,14.72,0,0,0-1.6,2.8,8.87,8.87,0,0,0-.3,1.4c-.1.4-.2.6-.5.7a5.17,5.17,0,0,0-1.3.6,2.64,2.64,0,0,0-.5,1.5c0,.8-1,1.8-1.3,3.1l.4.1-.4.1a3.75,3.75,0,0,1,.1,1.1v1.6a3.66,3.66,0,0,0,.8,2.6,6.31,6.31,0,0,1,.8,2.2,2.15,2.15,0,0,0,.4.7l.1.2s0,.1-.2.3a4.06,4.06,0,0,0-.6,2.5,6.25,6.25,0,0,0,.4,2.5,13.61,13.61,0,0,1,1.1,2.5,3.83,3.83,0,0,0,1.5,2.1c0,.2.1.2.1.3a2.18,2.18,0,0,0,.9.7,9.32,9.32,0,0,0,1.4.2,2.8,2.8,0,0,1,1.2.8,2.82,2.82,0,0,0,1.6.9,4.33,4.33,0,0,1,.5.1,5,5,0,0,0,2.8-1.2,10.45,10.45,0,0,1,2.4-1.4h.3c.3,0,.6.1,1,.1a1.27,1.27,0,0,0,.6-.1,4.28,4.28,0,0,1,1.3-.5c1-.2,1.4-1.2,1.7-1.8a11.28,11.28,0,0,0,.8-2.4c.3-1,.9-1.9,1.3-3.1.6-2,1.3-3.9,1.9-6,.8-2.9,1.9-5.4,2.9-8.3.8-2.3,1.3-4.6,2.3-6.8a5.76,5.76,0,0,0,.7-2.1v-.3l.1-.2a11.41,11.41,0,0,0,.6-1.5c.6-1.6.9-3.2,1.5-4.7a34.26,34.26,0,0,0,2.3-6.6,2.77,2.77,0,0,0,.1-.9c0-.7-.1-1.4-.1-2.1a2.15,2.15,0,0,1,1.1-2.2l.3-.3c0,.1-.1.3-.1.4a.9.9,0,0,0,.1.5l.3.7.4-.7c.4-.6.5-1.2.8-1.6l-.1-.1.1-.1h.1v-.3l-.8-.2c-.1.1-.2.3-.3.4a9.29,9.29,0,0,0,.4-1.3v-1.6a1.25,1.25,0,0,0-.5-.9c-.2-.1-.2-.1-.2-.2h0c0-.3-.1-1.1-.1-1.9a3.42,3.42,0,0,1,.1-1.1.35.35,0,0,1,.1-.2h0c.2.1.4.6.6,1.2s.3,1.4,1.1,1.7c.1,0,.2.1.3.1a1.17,1.17,0,0,0,1-.6,8.8,8.8,0,0,0,1.2-3.1v-.4c0-1-.6-1.5-.8-2.1A14.7,14.7,0,0,1,663.1,433.4Z"/><path class="cls-6" d="M663.1,433.4a24.56,24.56,0,0,0-2-8.9l-.2-.5-.4.2h0l-.3-.3h0v-.1c0-.1.1-.2.1-.4a1.42,1.42,0,0,0-.2-.6c-.1,0-.2-.5-.4-.8l-.3-.6-.2-.2a.6.6,0,0,0,.1-.4,1.23,1.23,0,0,0-.4-.8,1,1,0,0,0-.8-.4.86.86,0,0,0-.6.3,1.42,1.42,0,0,0-.2.6v.3h0a3,3,0,0,1-.7,1,2.23,2.23,0,0,1-1,.6h-.2l-.8.4.8.4a.87.87,0,0,1,.5.9,7.17,7.17,0,0,1-.5,2.1,4.17,4.17,0,0,1-.5,1.4c-.2.2-.3.4-1.1.4h-.3a1.36,1.36,0,0,0-.6-1.1l-.3-.3-.3.3a1.19,1.19,0,0,0-.5.9,1.08,1.08,0,0,0,.3.7,1.14,1.14,0,0,0,.8.3h0v0l.1-.4.4.2h0c-.2.1-.3.2-.5.3a5.9,5.9,0,0,0-.4.8c-.1-.1-.2-.3-.3-.4a1.21,1.21,0,0,0-.5-.5,1.49,1.49,0,0,0-.7-.3.68.68,0,0,0-.6.4,1.55,1.55,0,0,0-.2.8v.3a4.76,4.76,0,0,0,.5,1.8v.3a.75.75,0,0,1-.1.5h-.3c0,.1-.3.2-.7.4a1.29,1.29,0,0,0-.7,1.1,2.35,2.35,0,0,0,.2.8,1.38,1.38,0,0,0,.3.4l-.2.1a1.56,1.56,0,0,0-.6.8v-.4l-.1-.4-.4.1a1.13,1.13,0,0,0-.9.7c-.1.3-.1.5-.3.7l-.6.6a1.53,1.53,0,0,0-.7,1v.4a1.09,1.09,0,0,0-.5-.1H645a1.74,1.74,0,0,0-1.2.6,4.37,4.37,0,0,1-.8.7c-.1.1-.5.3-.8.5a1.22,1.22,0,0,0-.6,1.1v.2h0v.1a.91.91,0,0,0-.7-.3.89.89,0,0,0-.8.5,2.77,2.77,0,0,0-.9-.1,1.48,1.48,0,0,0-.7.1,1.33,1.33,0,0,0-.6.9h-.2a1.49,1.49,0,0,0-.9.4l-.1.1c-.1-.1-.2-.2-.2-.3l-.3-.3-.3.2c-.7.5-1.1,1.2-1.6,1.3H634c-.3,0-.7-.1-1.1-.1a1.31,1.31,0,0,0-1,.3,1,1,0,0,0-.2.7v.7l-.4-.4.3,1.4v.2a5.12,5.12,0,0,1-.7,1.8c-.2.4-.8,1-1.2,1.7a3.85,3.85,0,0,0-.9,2.2,2.92,2.92,0,0,0,.2.9,2.51,2.51,0,0,1,.2,1c0,.6-.1,1.3-.1,2v.3c.1,1.4,1,2.3.9,3.3h0v.6a4,4,0,0,0,.6,2.3,2,2,0,0,1,.3.8,5.79,5.79,0,0,1-.4,1.3c0,.1-.1.2-.1.4a1.49,1.49,0,0,0,.3.8.77.77,0,0,1,.1.3.31.31,0,0,1-.1.2c-.4.8-1,1.6-1.5,2.4a14.72,14.72,0,0,0-1.6,2.8,8.87,8.87,0,0,0-.3,1.4c-.1.4-.2.6-.5.7a5.17,5.17,0,0,0-1.3.6,2.64,2.64,0,0,0-.5,1.5c0,.8-1,1.8-1.3,3.1l.4.1-.4.1a3.75,3.75,0,0,1,.1,1.1v1.6a3.66,3.66,0,0,0,.8,2.6,6.31,6.31,0,0,1,.8,2.2,2.15,2.15,0,0,0,.4.7l.1.2s0,.1-.2.3a4.06,4.06,0,0,0-.6,2.5,6.25,6.25,0,0,0,.4,2.5,13.61,13.61,0,0,1,1.1,2.5,3.83,3.83,0,0,0,1.5,2.1c0,.2.1.2.1.3a2.18,2.18,0,0,0,.9.7,9.32,9.32,0,0,0,1.4.2,2.8,2.8,0,0,1,1.2.8,2.82,2.82,0,0,0,1.6.9,4.33,4.33,0,0,1,.5.1,5,5,0,0,0,2.8-1.2,10.45,10.45,0,0,1,2.4-1.4h.3c.3,0,.6.1,1,.1a1.27,1.27,0,0,0,.6-.1,4.28,4.28,0,0,1,1.3-.5c1-.2,1.4-1.2,1.7-1.8a11.28,11.28,0,0,0,.8-2.4c.3-1,.9-1.9,1.3-3.1.6-2,1.3-3.9,1.9-6,.8-2.9,1.9-5.4,2.9-8.3.8-2.3,1.3-4.6,2.3-6.8a5.76,5.76,0,0,0,.7-2.1v-.3l.1-.2a11.41,11.41,0,0,0,.6-1.5c.6-1.6.9-3.2,1.5-4.7a34.26,34.26,0,0,0,2.3-6.6,2.77,2.77,0,0,0,.1-.9c0-.7-.1-1.4-.1-2.1a2.15,2.15,0,0,1,1.1-2.2l.3-.3c0,.1-.1.3-.1.4a.9.9,0,0,0,.1.5l.3.7.4-.7c.4-.6.5-1.2.8-1.6l-.1-.1.1-.1h.1v-.3l-.8-.2c-.1.1-.2.3-.3.4a9.29,9.29,0,0,0,.4-1.3v-1.6a1.25,1.25,0,0,0-.5-.9c-.2-.1-.2-.1-.2-.2h0c0-.3-.1-1.1-.1-1.9a3.42,3.42,0,0,1,.1-1.1.35.35,0,0,1,.1-.2h0c.2.1.4.6.6,1.2s.3,1.4,1.1,1.7c.1,0,.2.1.3.1a1.17,1.17,0,0,0,1-.6,8.8,8.8,0,0,0,1.2-3.1v-.4c0-1-.6-1.5-.8-2.1A14.7,14.7,0,0,1,663.1,433.4Z"/><path class="cls-1" d="M669.9,286.6a3.55,3.55,0,0,1-.9-.4l-.2-.2c0-.3.1-.5.1-.8a9.91,9.91,0,0,0-.2-1.8,4.48,4.48,0,0,1-.1-1.1,9.72,9.72,0,0,1,.5-2.7v-.3c0-.7-.6-1.1-1.1-1.4a3.92,3.92,0,0,0-1.8-.4,1.08,1.08,0,0,0-.8.2,3.1,3.1,0,0,0-1.1,1.2,2.72,2.72,0,0,1-.8,1c-1,.5-2.3.3-3.6.8a8.1,8.1,0,0,1-2.9,1.1h-.2c-.5,0-1-.3-1.7-.3a1.27,1.27,0,0,0-.6.1,10.23,10.23,0,0,0-2.1.8,3.45,3.45,0,0,1-1.3.3,4.41,4.41,0,0,1-1.4-.3c-.1,0-.3-.1-.4-.1a3.59,3.59,0,0,0-2,.9,11.38,11.38,0,0,0-1.4,1.1,3.16,3.16,0,0,1-1.6.5,8.08,8.08,0,0,1-1.9-.3,10.4,10.4,0,0,0-1.5-.2,2.82,2.82,0,0,0-1.9.8,16.54,16.54,0,0,1-2.5,1.5,5.66,5.66,0,0,1-1.8.3,4.4,4.4,0,0,1-3.5-1.7c-1.1-1.3-2-3.6-3.8-4.6-.2-.2-.4-.5-.7-.6a.9.9,0,0,0-.5-.1,5.77,5.77,0,0,0-1.4.3,1.7,1.7,0,0,1,.6-.6,7.9,7.9,0,0,0,2.9-1.7,1.93,1.93,0,0,0,.3-1,3.86,3.86,0,0,0-.8-2c-.3-.5-.7-1-.9-1.3v-.2a1.55,1.55,0,0,0-.8-1.1l-.5-.4-.2.6v.1h0a3.78,3.78,0,0,1-.8-.9c-.3-.4-.5-.8-.7-1a1.2,1.2,0,0,0-.8-.4.77.77,0,0,1-.3-.2c-.2-.5-.1-1.6-1-2.3l-1-.7a3.59,3.59,0,0,0-1-.7,9.8,9.8,0,0,1-2.1-2.4c-.6-.9-1.2-2.1-2.7-2.3a1.2,1.2,0,0,1-.8-.4c-.2-.2-.4-.5-.8-.9a1.59,1.59,0,0,0-1-.5c-.6,0-.9.3-1.1.3h-.2a2.19,2.19,0,0,1-.8-1.5,1.43,1.43,0,0,0-.4-1,1.36,1.36,0,0,0-1.1-.6h-.2a.85.85,0,0,0-.5.3.37.37,0,0,0-.1.3c-.1-.5-.5-.7-.7-.9s-.3-.3-.3-.4a9.34,9.34,0,0,0-1-2.5,12,12,0,0,1-.5-2.2,44,44,0,0,0-3.4-9.4h0a.89.89,0,0,0-.5-.8,2.77,2.77,0,0,0-.9-.5c-.3-.2-.3-.2-.3-.3v-.9l-.6.5a11.05,11.05,0,0,1-1.3-1.2,4.65,4.65,0,0,0-1.8-1.4,2.49,2.49,0,0,1-1.4-1.8,11.07,11.07,0,0,1-.5-2.8c-.1-1.7-.5-3.2-.5-4.7a3.75,3.75,0,0,1,.1-1v-.5a6.06,6.06,0,0,0-.6-2.4.35.35,0,0,0-.1-.2l.8-.1a3.21,3.21,0,0,0-1-2.1,6.57,6.57,0,0,1-1.1-1.6,5.84,5.84,0,0,1-.2-1.8A2.38,2.38,0,0,0,591,217c-1-.7-1.7-2.1-3-2.9s-2.1-1.1-2.5-2.4l-.2-.8-.1.1-.1-.1a4.33,4.33,0,0,1-.6-2.6,3.4,3.4,0,0,1,.1-1,3.4,3.4,0,0,0,1,.1h.9l-.4-.6c-.7-1.1-1.8-1.3-2.2-2.1A22.23,22.23,0,0,1,582,202c-1.3-2.7-2.7-5.3-4.1-7.9-.4-.8-.9-1.6-1.3-2.4a1.79,1.79,0,0,0-.5-.7c-.1-.1-.2-.2-.2-.3l-.1-.1a.31.31,0,0,1,.1-.2.85.85,0,0,0,.2-.6.6.6,0,0,0-.1-.4,3.75,3.75,0,0,1-.7-1.2,8,8,0,0,0-1.6-2.6c-.1-.1-.1-.2-.1-.4v-.3a1.27,1.27,0,0,0-.1-.6.49.49,0,0,0,.1-.3,1.33,1.33,0,0,0-.3-.8c-.1-.2-.3-.4-.4-.6a16.61,16.61,0,0,0-1.4-1.3,24.47,24.47,0,0,1-2.6-3.5c-.8-1.2-.7-2.8-1.9-4.3a.76.76,0,0,1-.2-.5,2.61,2.61,0,0,1,.3-1.1,14.06,14.06,0,0,0,1.8,3.7c.7.9,1.7,1.8,1.7,2.6v.6a2.16,2.16,0,0,0,1,1.7,6.75,6.75,0,0,1,1.2,1.1,6.83,6.83,0,0,0,1.8,2c.6.4,1.3.7,1.7,1l.7-.5V184a1.63,1.63,0,0,1,.4-.9,3,3,0,0,0,.5-1.3h0v-.5a3.81,3.81,0,0,1,.3-1.8c.7-1.8.5-4.2,1.4-5.3l.2-.2-4.5-11.8-.5.4a5.7,5.7,0,0,1-2.2,1.1c-.7.2-1.5,0-2.4.3l-.1-.1a1.69,1.69,0,0,0-.5-.2,2.92,2.92,0,0,0-.9.2,4.2,4.2,0,0,0-.5.2H568a1.85,1.85,0,0,1-1.2-.5,3.45,3.45,0,0,0-1.6-.8h0a3.81,3.81,0,0,1-.5-.6,1.32,1.32,0,0,0-.9-.7c-.1,0-.3-.1-.4-.1a1.45,1.45,0,0,0-.7.2h0c-.3.1-.6.3-.7.3h-.1a2.6,2.6,0,0,1-1-.4,3.33,3.33,0,0,0-1.5-.5,1.27,1.27,0,0,0-.6.1v.2h-.3c-.9,0-1.5.6-1.9.5a.37.37,0,0,1-.3-.1l-.5-.3-.1.6a2,2,0,0,1-.7.9c-.1-.1-.2-.1-.3-.2l-.3-.2-.3.3a16.61,16.61,0,0,1-1.4,1.3,5,5,0,0,1-2.9,1.4h-.4c-1.2-.2-2.2-1.1-3.9-1.3-.5,0-.9-.1-1.3-.1a1.24,1.24,0,0,0-.3-.2,1,1,0,0,0-.8-.4H543c-.3,0-.5.1-.8.1a1.27,1.27,0,0,1-.6-.1,1.76,1.76,0,0,1-.5-.4,1.58,1.58,0,0,0-.9-.6,32.58,32.58,0,0,0-4.5-.9,23.58,23.58,0,0,0-2.8-.4,6.88,6.88,0,0,0-1.3.2,2.74,2.74,0,0,1-1.2.2c-.2,0-.3,0-.4-.1s-.1-.1-.1-.3v-.9l-.1.1c-.1-.3-.3-.5-.4-.8a2.15,2.15,0,0,0-1.2-.9,2.77,2.77,0,0,0-.9-.1c-.5,0-1,.1-1.5.1a4.1,4.1,0,0,1-1.1-.1,14.25,14.25,0,0,0-3.3-1,6,6,0,0,1-1.2-.2c-.4-.2-.6-.3-.6-.5v-.7a.91.91,0,0,0-.3-.8,2.89,2.89,0,0,0-1-.6,23.69,23.69,0,0,0-3.2-1.3,6.15,6.15,0,0,0-1.9-.2,4.87,4.87,0,0,0-1.2.1c-1.2.1-1.8.9-2.6.9a6.68,6.68,0,0,0-3.7,1.6,7.47,7.47,0,0,0-2.6,3.1,5,5,0,0,0-.2,1.2,8.52,8.52,0,0,0,.4,2.3,10.06,10.06,0,0,1,.8,2.2v.3a5.58,5.58,0,0,1-4.7,4h-.2c-1.5,0-2.6-1.5-4-2.7a18,18,0,0,0-6.9-2.8c-2.2-.4-4.2-.1-5.8-1.4a4.32,4.32,0,0,1-1.5-2.8,4.19,4.19,0,0,0-1.4-2.9c-1-.6-2.2-.3-2.8-.5-.8-.3-1.6-1-2.6-1.5-1.2-.5-2.3-.5-3.3-.9a2.92,2.92,0,0,0-.9-.2,15.3,15.3,0,0,0-2.5.6h-.6a4,4,0,0,1-2.4-.7c-1-.6-2.2-.9-3-1.5l-.1-.1-.2-.2-.3-.2v.1a1.27,1.27,0,0,0-.6-.1h-.2a.68.68,0,0,0-.3-.6,1.38,1.38,0,0,0-.3-.4v-.4a.84.84,0,0,0-.6-.8h-.1a1,1,0,0,0,.3-.8.82.82,0,0,0-.4-.6,2,2,0,0,0-.8-.1h0a1.2,1.2,0,0,0-.8.2c-.3.1-.4.5-.4.8v.3c-.4,0-.6.1-.8.1s-.1,0-.2-.1a3.46,3.46,0,0,1-1.1-1,2.11,2.11,0,0,1-.4-1.1c0-.4.3-.7.8-1.1s1.2-.7,1.8-1.2c1.3-1.1,2.6-2.8,2.6-4.6a2.2,2.2,0,0,0-.1-.8,5,5,0,0,0-.5-1.6,4.88,4.88,0,0,0-1.3-1,2.36,2.36,0,0,1-1.1-2.1v-.1c0-.4.4-.9,1.1-1.5a9.58,9.58,0,0,0,1.7-1.8,1.69,1.69,0,0,0,.3-1,1.3,1.3,0,0,0-.8-1.2c-.1,0-.2-.1-.3-.1a1,1,0,0,0-.8.4c-.2.2-.4.4-.5.4a6.08,6.08,0,0,1-1.4,1h-.1c0-.1.1-.2.1-.4a1.05,1.05,0,0,0-.5-.9c0-.1.1-.2.1-.3a.37.37,0,0,0-.1-.3,1.46,1.46,0,0,0-.8-.9c-.3-.1-.6-.1-1-.2a.55.55,0,0,0-.5-.3,1.09,1.09,0,0,0-.5-.1,5.41,5.41,0,0,0-1.5.4,5.3,5.3,0,0,0-2.8,1.6c-.1.1-.2.1-.3.2a.76.76,0,0,0-.4.1h-.2l-.2.1h-.1c-.7.3-1.7,0-2.7.3a2.2,2.2,0,0,1-.8.1h0l.4-.7h-.9c-.4,0-.9-.4-1.6-.6-.2,0-.3-.1-.5-.1a.68.68,0,0,0-.7.5.77.77,0,0,1-.2.3,1.61,1.61,0,0,1-.9.3,2.69,2.69,0,0,1-1.5-.5,3,3,0,0,0-1.6-.5.73.73,0,0,0-.6.2.91.91,0,0,0-.3.7v.2a4.05,4.05,0,0,1-1,.3,6.25,6.25,0,0,1-1.2.1,3.15,3.15,0,0,0-1.3.6c-.3.2-.5.4-.7.4a.78.78,0,0,1-.6-.3,3.86,3.86,0,0,0-2.7-1.1h-2.1a7.89,7.89,0,0,0-3,.5,10.42,10.42,0,0,1-1.1.1h-.9s-.1,0-.3.2a1.42,1.42,0,0,0-.6-.2,2.25,2.25,0,0,0-1.4.6,2.46,2.46,0,0,1-1.1.4h-.6c-1.5,0-2.9.4-4.3.5-2.3.3-6.2,1.2-7.5,3.7-.3.5-.4.5-.5.5a7.83,7.83,0,0,0-1.4-.3,1.6,1.6,0,0,0-.8.3,1.82,1.82,0,0,1-.8.6h0a1.69,1.69,0,0,0-.5-.2,2.62,2.62,0,0,0-1.3.6,3.62,3.62,0,0,0-1.3,1.5,1.4,1.4,0,0,1-.4.4,3.39,3.39,0,0,1-.8.3,7.55,7.55,0,0,1-3.4,1.1,1.91,1.91,0,0,0-.8-.3,1.27,1.27,0,0,0-.6.1.6.6,0,0,1-.4.1.91.91,0,0,1-.7-.3c-.1-.1-.1-.2-.2-.3l-.1.1a2.92,2.92,0,0,1-.2-.9v-.1l-.8-.2c-.4.8-1,.9-1.8,1-.6,0-1.3-.1-2-.1h-.5a21.51,21.51,0,0,1-2.3.2,4.32,4.32,0,0,1-2.5-.8,3.48,3.48,0,0,1-1.5-1.9,3.63,3.63,0,0,0-.3-.7.87.87,0,0,0-.8-.6c-.2,0-.3.1-.5.1a3.26,3.26,0,0,1-1.4.4h-.2a.93.93,0,0,0-.7.4,5.28,5.28,0,0,0-.7,1.8c-1.3,3.4-2.9,7.9-6,9.7-1.6.9-3.5,1.6-5.3,2.4s-2.8,2.3-4,3.4a5.24,5.24,0,0,0-1.6,2.2c-.4,1.3-.2,2.1-.8,2.9-1.4,1.7-2.3,2.9-2.4,5.2a5.11,5.11,0,0,1-.3,2.2,1.45,1.45,0,0,0-.2.7.84.84,0,0,0,.4.7,1,1,0,0,1,.5.4,1,1,0,0,1,.4.9,7.17,7.17,0,0,1-1.5,3.3,28,28,0,0,1-3.5,4.1c-1.4,1.2-2.9,2.3-4.3,3.6a9.53,9.53,0,0,1-5,2.2c-1,.2-2,.3-3.1.6a1.76,1.76,0,0,0-.5.4c-.3.3-.6.9-.9,1.1-.1,0-.1.1-.2.1l-.1.1-.6.7h.4l-.3.6a15.39,15.39,0,0,0-.8,1.9c-.8,2.2-1.8,3-3.9,4.2s-2.7,3.5-3.4,5.4c-1,2.5-.6,4.4-2.3,6.1-1.4,1.4-3.6,2.8-4.5,4.8l.7.4a2.66,2.66,0,0,1-.6,1c-.4.7-.9,1.3-1.1,1.6a5.39,5.39,0,0,0-.3,1v.3h0a1.85,1.85,0,0,0-.8,1.2c-.1.4-.2.9-.3,1.2a2.44,2.44,0,0,1-.9,1.1,5,5,0,0,0-1.4,1.2,7.11,7.11,0,0,0-1,3,20.41,20.41,0,0,0-.9,4.2,3.19,3.19,0,0,0,.3,1.4l.4-.2.4.1a10.26,10.26,0,0,1,.4-1.4,3.55,3.55,0,0,0,.4.9A3.41,3.41,0,0,0,317,227l.6.4.1-.5a7.19,7.19,0,0,1,.9,2.4.91.91,0,0,1-.3.7l-.1.1-.4.4a2.1,2.1,0,0,0-.7,1.4.73.73,0,0,0,.2.6h.1l-.3.6-.4-.1.1.6c.1,1,1,1.5,1.3,1.9a3.94,3.94,0,0,1,.5,2,35.76,35.76,0,0,1,.4,4.5,6.6,6.6,0,0,1-.1,1.4c-.3,3.3-2.6,6.2-2.7,9.9-.1.2-.1.4-.2.6-.3,1-.6,1.9-.6,2a13.09,13.09,0,0,1-2.4,3.7c-.1.1-.6.3-1.1.6a3,3,0,0,0-.7.5,1.23,1.23,0,0,0-.4.8v.1l.1.8.6-.6a.76.76,0,0,1,.4-.2,3.47,3.47,0,0,1,1.7,2,8.78,8.78,0,0,1,.7,2.8v.1h.2v.3l.1.3.4-.1h0l-.1.5h.5a.37.37,0,0,1,.3.1.82.82,0,0,0-.4.6h-.1a.59.59,0,0,0-.5.2c-.1.1-.3.2-.5.4l.3.3-.4-.1v.4a3.19,3.19,0,0,0,.3,1.4v.1a4.88,4.88,0,0,0-.3,1.4.73.73,0,0,0,.2.6l.1.1a.75.75,0,0,0-.1.5.6.6,0,0,0,.1.4v.1a.76.76,0,0,0-.2.5,1.45,1.45,0,0,0,.2.7,1.24,1.24,0,0,0,.2.3l.2.5.3-.2a1.38,1.38,0,0,0,.4.3,1.6,1.6,0,0,0,1,.5h0c0,.1-.1.3-.1.4v.2h-.1l.3.7c.1.2.1.3.2.5l.4-.2.2.4h.1a1,1,0,0,0,.7.4h.1v.5l.5-.1a3.52,3.52,0,0,0,1.8-.5l.2-.2c0,.1-.1.2-.1.4a2.84,2.84,0,0,0,.4,1.2v.1a1.85,1.85,0,0,0-.2.7.76.76,0,0,0,.1.4h0l-.2.4h0l-.2.1.5.4c.2.1.3.3.5.4l.3-.3h0c.1.1.2.2.3.2a1.93,1.93,0,0,1,.4,1.1l.1.4a1,1,0,0,0,.8.9l.7.1.2,1,.6-.9.1-.1h.1c-.1.3-.3.7-.4,1l-.4.7.8-.1h.1a1.05,1.05,0,0,0,.5.9,7.46,7.46,0,0,0,1.2.7c.3.2.5.4.5.6l.8.1h0a1.07,1.07,0,0,0,.6.9,4.35,4.35,0,0,0,.7.4h0l-.2.5.5.1h.4v.3a1.27,1.27,0,0,0,.1.6c0,.1.1.2.2.3s.2.2.3.2a1.38,1.38,0,0,0,.3.4.31.31,0,0,1,.1.2h0l-.1.6.6-.1h.1v.6l.1.4v.4l.1.8.3-.2a2.19,2.19,0,0,0,.5.3l-.1.1a1.05,1.05,0,0,0-.5.9,2.35,2.35,0,0,0,.2.8l-.1.2a1.85,1.85,0,0,0-.2.7,1.52,1.52,0,0,0,.6,1.1,1.69,1.69,0,0,0,1,.3,5.16,5.16,0,0,0,.2,1.1c.1.3.1.6.2.9a.76.76,0,0,0,.2.4.62.62,0,0,0,.5.3h0a1.24,1.24,0,0,0,.3.2h-.6v.4h0v.1l-.4-.2c0,.1-.1.2-.1.3l-.2.4.5.1a10.52,10.52,0,0,0,2.1.6h.2l-.1.2a35.34,35.34,0,0,0,5.1,2.8h0a3.92,3.92,0,0,1,.8,1,2.47,2.47,0,0,0,1.2,1c.2.1.5.4.8.6a2.18,2.18,0,0,0,.8.5,1.46,1.46,0,0,0,.6.9,9.5,9.5,0,0,0,1.7,1c.6.3,1.1.5,1.1.6,1.5,1.4,2.7,3.2,4.2,4.7s3.3,2,4.7,3.1c.9.7,2,.8,2.8,1.3a3.88,3.88,0,0,0,1.9.6h.4c.1,0,.2.1.4.1a1.39,1.39,0,0,0,1-.5,6.19,6.19,0,0,1,2.8-1.4c1.7-.2,3-1.4,4.3-1.9a19.32,19.32,0,0,1,4.9-.8v-.1a1.27,1.27,0,0,0,.6.1,3.54,3.54,0,0,0,.6-.1,25.72,25.72,0,0,1,4-.5h.4a1.45,1.45,0,0,0,.7.2.6.6,0,0,0,.4-.1,2.3,2.3,0,0,0,1.4.4h.1a1.36,1.36,0,0,0,1.1-.6l.1-.2.1.2a4.62,4.62,0,0,0,.7.7l-.2.4.8-.3a1.38,1.38,0,0,0,.9.5c.4.1.7.1,1,.2a3.33,3.33,0,0,1,1.8.8,1.61,1.61,0,0,0,1.1.5h0a2.35,2.35,0,0,0,.8-.2A6.54,6.54,0,0,0,394,319a8.35,8.35,0,0,1,1.9-.8c1-.4,2.2-.4,3.3-1.1,1.8-1.1,3.1-2.3,5.2-2.6a3.81,3.81,0,0,0,1-.3l.2-.1a.92.92,0,0,0,.6.4h.2a1.82,1.82,0,0,0,1.7-1.4,1.2,1.2,0,0,1,.4-.4,1.38,1.38,0,0,1,.4-.3,6.12,6.12,0,0,1,1.2-.5l.9-.1c1.1-.1,2.1-.3,3.2-.5.5-.1,1.4-.2,2-.3v.1l.5-.1h.5v-.1c.4,0,.7-.1,1.1-.1h.8a4.87,4.87,0,0,0,1.2-.1l.5-.1h.4c.5,0,1-.1,1.3-.1h.4a7.11,7.11,0,0,1,2.1.3,6.64,6.64,0,0,1,3.6,3.4l.3.6h0a.9.9,0,0,0,.6.6.52.52,0,0,0-.2.4.68.68,0,0,0,.4.6,1.42,1.42,0,0,0,.6.2h0a1.09,1.09,0,0,0-.1.5.9.9,0,0,0,.1.5l.1.4.4-.1h0l-.1.2c0,.2-.1.3-.1.5a3.61,3.61,0,0,0,.7,1.9,4.44,4.44,0,0,0,1.7,1.9c.2.1.3.2.5.3a1.63,1.63,0,0,0,.6.3.55.55,0,0,0,.5.3c.4,0,.5-.2.7-.4a.6.6,0,0,0,.4.1h1.1v.6l.7-.8.1-.1.1.1a.52.52,0,0,0,.4.2c.2,0,.4-.1.4-.2s.1-.2.2-.3h0l.2.2.4.2.2-.4c0-.1.1-.3.1-.4h.2l-.2.1h.6v.4a1.85,1.85,0,0,0,.7-.2l.2-.1h.4v-.2h.1l.1.2c.2-.1.3-.2.5-.3l.4-.2h.6a6.27,6.27,0,0,0,1.6-.2,13,13,0,0,0,1.3-.3.89.89,0,0,0,.5-.8l.3.3v.2a1.08,1.08,0,0,0,.3.7,1.14,1.14,0,0,0,.8.3h.7v-.4h0a.37.37,0,0,0,.3-.1,15.54,15.54,0,0,1,.5,2.3,1.56,1.56,0,0,0,.6.8,1.78,1.78,0,0,0,1,.4h.1a1.05,1.05,0,0,0,.9.5h.3l.1-.3.1-.2h.5a1.38,1.38,0,0,1-.4.3,1.27,1.27,0,0,0-.4.7.89.89,0,0,0,.5.8c.1.1.2.1.4.2h0a1.27,1.27,0,0,0,.4.9,1.52,1.52,0,0,1,.4.6,2.66,2.66,0,0,1,.3,1.2,7.79,7.79,0,0,1-.4,2.1,7.84,7.84,0,0,0-.2,1.4,2.2,2.2,0,0,0,.1.8c-.3,1.2,0,2.4-.4,2.9a6.13,6.13,0,0,1-.4.6,2.39,2.39,0,0,0-.3.9c-.1.2-.5.6-.8,1a2.63,2.63,0,0,0-.7,1.5.6.6,0,0,0,.1.4,1.28,1.28,0,0,0,1.3.7v.1a1.27,1.27,0,0,0-.1.6,5.07,5.07,0,0,0,.2,1.3.9.9,0,0,0-.5-.1h-.3a.76.76,0,0,0-.5.2.55.55,0,0,0-.3.5c0,.4.2.5.4.7l.4.4-.2.2a2.11,2.11,0,0,0-.6,1.7c0,.7.1,1.4.1,1.8v.2a3.68,3.68,0,0,1-.8,1.5c-.1.1-.1.2-.2.3l-.1-.1-.6-.6-.1.8v.2h-.1v-.2l-.1-1.6-.7,1.4a1.85,1.85,0,0,0-.2.7,1.9,1.9,0,0,0,.5,1.3l.3-.3-.3.3.1-.2-.2.2h0s.2.3.3.5l.8,1.6.1.2-.3.2a13,13,0,0,1,1.1,1.9v.5h0v.2h-.3l.6.8c.2.3.6,1.1,1,1.8a3.14,3.14,0,0,0,1.1,1.4l-.1.1.4.4a30.9,30.9,0,0,1,4.3,4.6c.8,1.2,1.7,3,3,4,1.3,1.2,3,2.6,3.4,4.1a10.38,10.38,0,0,1,.3,1.2c.1.2.2.5.3.7a.82.82,0,0,0,.6.4v.1c0,.8.6,1.4.6,1.7a1,1,0,0,0,.1.3,7.07,7.07,0,0,0-.2,1.2h0a1.14,1.14,0,0,0,.3.8l.1.1h-.1a2.55,2.55,0,0,0,1,1.4,1.16,1.16,0,0,0-.4,1,6.52,6.52,0,0,0,1.1,2.9c.6.9,1.4,1.5,1.6,2.3.2.5.1,1.2.4,2a20.88,20.88,0,0,0,1.7,4.1,5.66,5.66,0,0,1,.8,2.8v.7c0,.1,0,.1-.1.1a6.13,6.13,0,0,0-.6.4l-.3.3h0a1.48,1.48,0,0,0-.9,1.3,2.92,2.92,0,0,0,.2.9l.1.7.1-.3.3.6a4.42,4.42,0,0,1,.2,1.7c.1.7.6,1.1.7,1.5a13.78,13.78,0,0,0,1.1,3,7.92,7.92,0,0,1,1.3,2.8,9.52,9.52,0,0,1,.3,2.5,10.92,10.92,0,0,1-1.3,5.5,12.89,12.89,0,0,0-.6,1.2c-.2.3-.3.4-.8.4a2,2,0,0,0-1.7,1.3,15.6,15.6,0,0,1-.5,1.6,8.7,8.7,0,0,1-1.7,2.1,1.84,1.84,0,0,0-.5,1.6,2.27,2.27,0,0,1-.3,1.3c-.8,1.3-.5,2.7-.7,3.9-.1.7-1,2.4-1,3.5a.9.9,0,0,0,.1.5l-.2.4a1.49,1.49,0,0,0-.3.8c-.1.5-.1,1-.2,1.3s-.7.7-1.1,1.4a.6.6,0,0,0-.1.4,3,3,0,0,0,.2.9c0,.4.1.8.1,1.2,0,1.8-.4,3.7-.4,5.6v.4c0,.5-.1,1-.1,1.5,0,2.6.5,5.2,2.7,7.1s2.6,5.2,4,7.9,1.9,5.8,4,8.5c.3.4.4,1.1.8,1.8s.9,1.3,1.3,1.9a6.23,6.23,0,0,1,1.4,3.6v.6c-.1.7-.4,1.9-.4,2v.5a22.86,22.86,0,0,0,.2,2.5v2.4a7.47,7.47,0,0,0,.3,2,21.19,21.19,0,0,1,1.4,4v.3c0,.4-.1.9-.1,1.4a1.7,1.7,0,0,0,.1.7c.1.5.1,1.1.2,1.7.1.9.4,1.6.4,2.3v.7a1.61,1.61,0,0,0,.3.9,1.37,1.37,0,0,1,.4,1.1v.5a2.49,2.49,0,0,0,.1.8c.2.8.6,1.1.7,1.6a5.34,5.34,0,0,0,.5,2,29,29,0,0,0,1.9,3.4c.9,1.3,2.1,2.2,2.9,3.2a1.19,1.19,0,0,0,.9.5c.3,1.5,1.5,2.7,1.9,3.8.5,1.3.8,2.8,1.2,4.2a36.75,36.75,0,0,0,4,8.5,9.91,9.91,0,0,1,1.6,5.2v.2a5.9,5.9,0,0,1-.2,1.4c-.2.4-.3.5-.6.5a1,1,0,0,1-.6-.2l-.5-.3-.2.5a5.92,5.92,0,0,0-.4,1.5.9.9,0,0,0,.1.5.71.71,0,0,0,.6.3h0c.2,0,.1,0,.2.1h0v.2c0,.2.1.2.1.3A18.56,18.56,0,0,0,496,546a3.51,3.51,0,0,1,.6,1.6v.2c0,.4-.5,1.3-.6,2.1a1.46,1.46,0,0,0,1,1.4l.6.2v-.7c0-.3-.1-.6-.1-.8v-.3l.1-.1h.2c.4,0,.5.2.5.5a1.09,1.09,0,0,1-.1.5l-.2.5.5.1c.3.1.9.1,1.5.2a6.37,6.37,0,0,1,.7.2l.1.1h0a.31.31,0,0,1-.1.2l-.4.5.6.2a2.56,2.56,0,0,1,1.1.8,1.6,1.6,0,0,0,.8.3h.5a3.09,3.09,0,0,0,.8.2h0a.76.76,0,0,0,.5-.2,2.74,2.74,0,0,1,.5-.4,8.11,8.11,0,0,1,2-1.4c.4-.2,1,0,1.8-.4a4.33,4.33,0,0,1,.5-.1c.7,0,1.8.2,2.8.2a1.84,1.84,0,0,0,1.8-.8,4.49,4.49,0,0,1,3.5-1.6h.7a1.7,1.7,0,0,0,.7.1,2,2,0,0,1,.9.1,2.54,2.54,0,0,0,.7.2c.3,0,.6-.2.6-.3a.77.77,0,0,1,.3-.2,4.3,4.3,0,0,1,1.2-.2,10.1,10.1,0,0,1,3,.7,4.94,4.94,0,0,0,1.5.3c1,0,1.4-.6,2.3-1.1a.9.9,0,0,1,.5-.1c.6,0,1.4.5,2.3.6a1,1,0,0,0,.7-.2l.7-.3-.7-.4-.2-.2.2-.4a.86.86,0,0,1,.6-.3,1.09,1.09,0,0,1,.5-.1c.6,0,1.2.2,2,.2h.4c2.3-.3,4.2-1.9,5.8-3.1,2.1-1.6,4.1-3.3,6.1-5,1.7-1.4,2.6-3.3,4.1-4.5a26.87,26.87,0,0,0,5-5.1c.8-1.2,1.5-2.4,2.2-3.6a10.17,10.17,0,0,0,1.5-2.3,13.59,13.59,0,0,1,2.6-4.1c.3-.4.8-.9,1-.9a2.25,2.25,0,0,0,.7-.1.76.76,0,0,0,.4-.2.52.52,0,0,0,.2-.4,2.92,2.92,0,0,0,1.9-1.7,12.91,12.91,0,0,0,.9-2.5c.7-2.5,1.4-4.7,2-7.2.3-.1.5-.5.6-.8a5.9,5.9,0,0,0,.2-1.4c0-.8-.1-1.6-.1-2.1v-.4l-.8-.2a.35.35,0,0,1-.1.2h0l-.7-.7-.2-.2a1.21,1.21,0,0,0,.5-.5,6.72,6.72,0,0,0,.6-1.2,4.25,4.25,0,0,1,2-1.7,25.56,25.56,0,0,1,5.8-2.6,11.26,11.26,0,0,0,5.2-2.9c.6-.7,1.8-2.1,1.8-3.5a1.93,1.93,0,0,0-.3-1l-.5-.8c.3-1.2,1-2.5,1.2-3.8v-.2c0-.8-.4-1.3-.4-1.8v-.1c.1-.8.3-1.6.4-2.4h-.2v-.6l.1-1.3-.8,1-.1.1c0-.6-.2-1.2-.2-1.7-.1-1.1-.7-2.2-.7-3a.9.9,0,0,1,.1-.5l-.2-.1c0-.4.1-1,.1-1.1v-.1a3.2,3.2,0,0,0-.7-2.2c-.4-.5-.8-.7-.9-.9s-.2-.1-.2-.6v-.7a.9.9,0,0,0-.1-.5,1.38,1.38,0,0,0,.3-.4,1.88,1.88,0,0,0,.2-.8,1.27,1.27,0,0,0-.1-.6h.2a2.23,2.23,0,0,0,1.3-.6,2.94,2.94,0,0,0,.8-.8,17.83,17.83,0,0,0,2.2-2.6,13.68,13.68,0,0,1,2.2-1.9.52.52,0,0,0,.4.2.59.59,0,0,0,.5-.2h0l.4-.2.3.3a.85.85,0,0,0,.3-.5h.2l-.1-.5v-.2c0-.5.6-1.1,1.3-1.7s1.6-1.2,1.6-2.2a.6.6,0,0,0-.1-.4,3.91,3.91,0,0,0,1.6-1c.5-.5,1.1-1,1.3-1.2a11.43,11.43,0,0,0,3-1.7c.3-.3.3-.2.3-.2a2.64,2.64,0,0,0,.7-.1,10.09,10.09,0,0,0,1.5-.7,12.43,12.43,0,0,1,1.5-.5,9.44,9.44,0,0,0,.9-.3c.1-.1.3-.1.4-.2a.62.62,0,0,0,.3-.5V447h0l.1-.1a7.56,7.56,0,0,1,1.7-1.2,5.23,5.23,0,0,0,1.8-1.3h0l.3.5.3-.8c.1-.2.1-.5.2-.8a14,14,0,0,0,1.3-1.8c.5-1,1.6-1.6,2.3-2.9a6.77,6.77,0,0,0,.6-1.6.6.6,0,0,0-.1-.4l.2-.2a.76.76,0,0,0,.2-.5v-.2l.2-.5h-.1a1.23,1.23,0,0,0,.4-.8c.1-.4.1-.8.2-1.2v-.3a1,1,0,0,0-.7-1,2.35,2.35,0,0,0,.2-.8.51.51,0,0,0-.5-.6c0-.6.2-1.6.2-2.4a2.77,2.77,0,0,0-.1-.9,2.09,2.09,0,0,0-.4-.6,5.07,5.07,0,0,1,.2-.9,8.87,8.87,0,0,0,.3-1.4,1,1,0,0,0-.2-.7l-.2-.2a3.08,3.08,0,0,0,.3-1.3,1.27,1.27,0,0,0-.1-.6,2.19,2.19,0,0,0-.3-.5c-.1-.1-.1-.1-.1-.2v-.1a1.27,1.27,0,0,0,.1-.6v-.4h0a.77.77,0,0,1-.1-.3l.1-.2a3.54,3.54,0,0,0,.1-.6v-.5a3.75,3.75,0,0,0-.1-1.1,9.23,9.23,0,0,0-.1-1.5,2.46,2.46,0,0,0-.5-1.5c0-.1.1-.1.2-.2s.3-.3.4-.6a2.74,2.74,0,0,0,.2-1.2,1.88,1.88,0,0,1,.2-.8l.3-.4-.4-.2a1.42,1.42,0,0,0,.2-.6,1.07,1.07,0,0,0-.9-1.1v-.1a2.24,2.24,0,0,0-.8-1.5,2,2,0,0,0-1.4-.6h-.2c-.1-.1-.1-.2-.2-.3a1.47,1.47,0,0,0-.6-.5v-.2a1.14,1.14,0,0,0-.3-.8v-.1a1.45,1.45,0,0,0,.1-.6V404a3.6,3.6,0,0,0-.5-.9c-.2-.2-.2-.3-.2-.4v-.1a2.43,2.43,0,0,0,.3-1.1.71.71,0,0,0-.8-.8,1.09,1.09,0,0,0-.1-.5c0-.1-.1-.2-.2-.4.1-.1.1-.2.1-.4a2.1,2.1,0,0,0-.4-1.1,1.9,1.9,0,0,1-.3-.9v-.3a4.92,4.92,0,0,1,.5-2,3.59,3.59,0,0,0,.2-1.1,2.2,2.2,0,0,0-.1-.8c-.1-.2-.2-.5-.5-.5a4.48,4.48,0,0,0,.1-1.1,3,3,0,0,1,.5-1.6,2.77,2.77,0,0,0,.5-1.6,2.92,2.92,0,0,0-.2-.9,1,1,0,0,0-.9-.4h0a2.77,2.77,0,0,0-1.3-1.8c-.6-.5-1-.8-1-1.2v-.4c0-.6-.4-1-.3-1.2h0a2.92,2.92,0,0,1,.2-.9,16.67,16.67,0,0,1,.8-2,16,16,0,0,0,1.3-4.4V375c.1-.1.2-.2.3-.2h0l.6.4.1-.7c.1-.9,1.3-1.9,1.4-3.4V371a1.79,1.79,0,0,0,.5-.7,10.66,10.66,0,0,0,.7-1.9,3.89,3.89,0,0,1,.6-1.3,3.47,3.47,0,0,0,.8-1.1,2.65,2.65,0,0,0,.5-1.4.37.37,0,0,0-.1-.3,1.27,1.27,0,0,1-.1-.6,1.23,1.23,0,0,1,1.2-1.3,2.24,2.24,0,0,0,1.8-1.1h0v.3l.7-.7a1.4,1.4,0,0,0,.3-.9,2.35,2.35,0,0,0-.2-.8h0v-.1c.1,0,.3.1.4.1a3.69,3.69,0,0,0,2.5-1.6l.3-.6a8.47,8.47,0,0,0,2.1-4.1.85.85,0,0,0,.5-.3,11.4,11.4,0,0,0,1.2-1.4c.6-.8,1.2-1.7,1.8-2.4,1.3-1.6,2.7-3.2,4-4.8s3-3.1,4.5-4.6a24.09,24.09,0,0,1,4.4-3.3,41.84,41.84,0,0,0,9.6-8.7c1.4-1.7,2.8-3.4,4.2-5.2,1.3-1.6,2-3.6,3.1-5.2a40.46,40.46,0,0,0,3.2-5.4c.8-2,.9-4,1.8-5.7a31.64,31.64,0,0,0,2.4-4.1c.3-.8,0-1.5.3-1.9s.6-.5,1.2-1.1c1.2-1.4,1-3.3,1.8-4.4a14.13,14.13,0,0,0,1.9-3.4,10.21,10.21,0,0,0,.3-3v-1.7c0-.4.1-.4.2-.5s.3-.1.6-.1h.5a1.7,1.7,0,0,0,.7-.1,1.06,1.06,0,0,0,.6-.7l.1-.4Z"/><path class="cls-6" d="M669.9,286.6a3.55,3.55,0,0,1-.9-.4l-.2-.2c0-.3.1-.5.1-.8a9.91,9.91,0,0,0-.2-1.8,4.48,4.48,0,0,1-.1-1.1,9.72,9.72,0,0,1,.5-2.7v-.3c0-.7-.6-1.1-1.1-1.4a3.92,3.92,0,0,0-1.8-.4,1.08,1.08,0,0,0-.8.2,3.1,3.1,0,0,0-1.1,1.2,2.72,2.72,0,0,1-.8,1c-1,.5-2.3.3-3.6.8a8.1,8.1,0,0,1-2.9,1.1h-.2c-.5,0-1-.3-1.7-.3a1.27,1.27,0,0,0-.6.1,10.23,10.23,0,0,0-2.1.8,3.45,3.45,0,0,1-1.3.3,4.41,4.41,0,0,1-1.4-.3c-.1,0-.3-.1-.4-.1a3.59,3.59,0,0,0-2,.9,11.38,11.38,0,0,0-1.4,1.1,3.16,3.16,0,0,1-1.6.5,8.08,8.08,0,0,1-1.9-.3,10.4,10.4,0,0,0-1.5-.2,2.82,2.82,0,0,0-1.9.8,16.54,16.54,0,0,1-2.5,1.5,5.66,5.66,0,0,1-1.8.3,4.4,4.4,0,0,1-3.5-1.7c-1.1-1.3-2-3.6-3.8-4.6-.2-.2-.4-.5-.7-.6a.9.9,0,0,0-.5-.1,5.77,5.77,0,0,0-1.4.3,1.7,1.7,0,0,1,.6-.6,7.9,7.9,0,0,0,2.9-1.7,1.93,1.93,0,0,0,.3-1,3.86,3.86,0,0,0-.8-2c-.3-.5-.7-1-.9-1.3v-.2a1.55,1.55,0,0,0-.8-1.1l-.5-.4-.2.6v.1h0a3.78,3.78,0,0,1-.8-.9c-.3-.4-.5-.8-.7-1a1.2,1.2,0,0,0-.8-.4.77.77,0,0,1-.3-.2c-.2-.5-.1-1.6-1-2.3l-1-.7a3.59,3.59,0,0,0-1-.7,9.8,9.8,0,0,1-2.1-2.4c-.6-.9-1.2-2.1-2.7-2.3a1.2,1.2,0,0,1-.8-.4c-.2-.2-.4-.5-.8-.9a1.59,1.59,0,0,0-1-.5c-.6,0-.9.3-1.1.3h-.2a2.19,2.19,0,0,1-.8-1.5,1.43,1.43,0,0,0-.4-1,1.36,1.36,0,0,0-1.1-.6h-.2a.85.85,0,0,0-.5.3.37.37,0,0,0-.1.3c-.1-.5-.5-.7-.7-.9s-.3-.3-.3-.4a9.34,9.34,0,0,0-1-2.5,12,12,0,0,1-.5-2.2,44,44,0,0,0-3.4-9.4h0a.89.89,0,0,0-.5-.8,2.77,2.77,0,0,0-.9-.5c-.3-.2-.3-.2-.3-.3v-.9l-.6.5a11.05,11.05,0,0,1-1.3-1.2,4.65,4.65,0,0,0-1.8-1.4,2.49,2.49,0,0,1-1.4-1.8,11.07,11.07,0,0,1-.5-2.8c-.1-1.7-.5-3.2-.5-4.7a3.75,3.75,0,0,1,.1-1v-.5a6.06,6.06,0,0,0-.6-2.4.35.35,0,0,0-.1-.2l.8-.1a3.21,3.21,0,0,0-1-2.1,6.57,6.57,0,0,1-1.1-1.6,5.84,5.84,0,0,1-.2-1.8A2.38,2.38,0,0,0,591,217c-1-.7-1.7-2.1-3-2.9s-2.1-1.1-2.5-2.4l-.2-.8-.1.1-.1-.1a4.33,4.33,0,0,1-.6-2.6,3.4,3.4,0,0,1,.1-1,3.4,3.4,0,0,0,1,.1h.9l-.4-.6c-.7-1.1-1.8-1.3-2.2-2.1A22.23,22.23,0,0,1,582,202c-1.3-2.7-2.7-5.3-4.1-7.9-.4-.8-.9-1.6-1.3-2.4a1.79,1.79,0,0,0-.5-.7c-.1-.1-.2-.2-.2-.3l-.1-.1a.31.31,0,0,1,.1-.2.85.85,0,0,0,.2-.6.6.6,0,0,0-.1-.4,3.75,3.75,0,0,1-.7-1.2,8,8,0,0,0-1.6-2.6c-.1-.1-.1-.2-.1-.4v-.3a1.27,1.27,0,0,0-.1-.6.49.49,0,0,0,.1-.3,1.33,1.33,0,0,0-.3-.8c-.1-.2-.3-.4-.4-.6a16.61,16.61,0,0,0-1.4-1.3,24.47,24.47,0,0,1-2.6-3.5c-.8-1.2-.7-2.8-1.9-4.3a.76.76,0,0,1-.2-.5,2.61,2.61,0,0,1,.3-1.1,14.06,14.06,0,0,0,1.8,3.7c.7.9,1.7,1.8,1.7,2.6v.6a2.16,2.16,0,0,0,1,1.7,6.75,6.75,0,0,1,1.2,1.1,6.83,6.83,0,0,0,1.8,2c.6.4,1.3.7,1.7,1l.7-.5V184a1.63,1.63,0,0,1,.4-.9,3,3,0,0,0,.5-1.3h0v-.5a3.81,3.81,0,0,1,.3-1.8c.7-1.8.5-4.2,1.4-5.3l.2-.2-4.5-11.8-.5.4a5.7,5.7,0,0,1-2.2,1.1c-.7.2-1.5,0-2.4.3l-.1-.1a1.69,1.69,0,0,0-.5-.2,2.92,2.92,0,0,0-.9.2,4.2,4.2,0,0,0-.5.2H568a1.85,1.85,0,0,1-1.2-.5,3.45,3.45,0,0,0-1.6-.8h0a3.81,3.81,0,0,1-.5-.6,1.32,1.32,0,0,0-.9-.7c-.1,0-.3-.1-.4-.1a1.45,1.45,0,0,0-.7.2h0c-.3.1-.6.3-.7.3h-.1a2.6,2.6,0,0,1-1-.4,3.33,3.33,0,0,0-1.5-.5,1.27,1.27,0,0,0-.6.1v.2h-.3c-.9,0-1.5.6-1.9.5a.37.37,0,0,1-.3-.1l-.5-.3-.1.6a2,2,0,0,1-.7.9c-.1-.1-.2-.1-.3-.2l-.3-.2-.3.3a16.61,16.61,0,0,1-1.4,1.3,5,5,0,0,1-2.9,1.4h-.4c-1.2-.2-2.2-1.1-3.9-1.3-.5,0-.9-.1-1.3-.1a1.24,1.24,0,0,0-.3-.2,1,1,0,0,0-.8-.4H543c-.3,0-.5.1-.8.1a1.27,1.27,0,0,1-.6-.1,1.76,1.76,0,0,1-.5-.4,1.58,1.58,0,0,0-.9-.6,32.58,32.58,0,0,0-4.5-.9,23.58,23.58,0,0,0-2.8-.4,6.88,6.88,0,0,0-1.3.2,2.74,2.74,0,0,1-1.2.2c-.2,0-.3,0-.4-.1s-.1-.1-.1-.3v-.9l-.1.1c-.1-.3-.3-.5-.4-.8a2.15,2.15,0,0,0-1.2-.9,2.77,2.77,0,0,0-.9-.1c-.5,0-1,.1-1.5.1a4.1,4.1,0,0,1-1.1-.1,14.25,14.25,0,0,0-3.3-1,6,6,0,0,1-1.2-.2c-.4-.2-.6-.3-.6-.5v-.7a.91.91,0,0,0-.3-.8,2.89,2.89,0,0,0-1-.6,23.69,23.69,0,0,0-3.2-1.3,6.15,6.15,0,0,0-1.9-.2,4.87,4.87,0,0,0-1.2.1c-1.2.1-1.8.9-2.6.9a6.68,6.68,0,0,0-3.7,1.6,7.47,7.47,0,0,0-2.6,3.1,5,5,0,0,0-.2,1.2,8.52,8.52,0,0,0,.4,2.3,10.06,10.06,0,0,1,.8,2.2v.3a5.58,5.58,0,0,1-4.7,4h-.2c-1.5,0-2.6-1.5-4-2.7a18,18,0,0,0-6.9-2.8c-2.2-.4-4.2-.1-5.8-1.4a4.32,4.32,0,0,1-1.5-2.8,4.19,4.19,0,0,0-1.4-2.9c-1-.6-2.2-.3-2.8-.5-.8-.3-1.6-1-2.6-1.5-1.2-.5-2.3-.5-3.3-.9a2.92,2.92,0,0,0-.9-.2,15.3,15.3,0,0,0-2.5.6h-.6a4,4,0,0,1-2.4-.7c-1-.6-2.2-.9-3-1.5l-.1-.1-.2-.2-.3-.2v.1a1.27,1.27,0,0,0-.6-.1h-.2a.68.68,0,0,0-.3-.6,1.38,1.38,0,0,0-.3-.4v-.4a.84.84,0,0,0-.6-.8h-.1a1,1,0,0,0,.3-.8.82.82,0,0,0-.4-.6,2,2,0,0,0-.8-.1h0a1.2,1.2,0,0,0-.8.2c-.3.1-.4.5-.4.8v.3c-.4,0-.6.1-.8.1s-.1,0-.2-.1a3.46,3.46,0,0,1-1.1-1,2.11,2.11,0,0,1-.4-1.1c0-.4.3-.7.8-1.1s1.2-.7,1.8-1.2c1.3-1.1,2.6-2.8,2.6-4.6a2.2,2.2,0,0,0-.1-.8,5,5,0,0,0-.5-1.6,4.88,4.88,0,0,0-1.3-1,2.36,2.36,0,0,1-1.1-2.1v-.1c0-.4.4-.9,1.1-1.5a9.58,9.58,0,0,0,1.7-1.8,1.69,1.69,0,0,0,.3-1,1.3,1.3,0,0,0-.8-1.2c-.1,0-.2-.1-.3-.1a1,1,0,0,0-.8.4c-.2.2-.4.4-.5.4a6.08,6.08,0,0,1-1.4,1h-.1c0-.1.1-.2.1-.4a1.05,1.05,0,0,0-.5-.9c0-.1.1-.2.1-.3a.37.37,0,0,0-.1-.3,1.46,1.46,0,0,0-.8-.9c-.3-.1-.6-.1-1-.2a.55.55,0,0,0-.5-.3,1.09,1.09,0,0,0-.5-.1,5.41,5.41,0,0,0-1.5.4,5.3,5.3,0,0,0-2.8,1.6c-.1.1-.2.1-.3.2a.76.76,0,0,0-.4.1h-.2l-.2.1h-.1c-.7.3-1.7,0-2.7.3a2.2,2.2,0,0,1-.8.1h0l.4-.7h-.9c-.4,0-.9-.4-1.6-.6-.2,0-.3-.1-.5-.1a.68.68,0,0,0-.7.5.77.77,0,0,1-.2.3,1.61,1.61,0,0,1-.9.3,2.69,2.69,0,0,1-1.5-.5,3,3,0,0,0-1.6-.5.73.73,0,0,0-.6.2.91.91,0,0,0-.3.7v.2a4.05,4.05,0,0,1-1,.3,6.25,6.25,0,0,1-1.2.1,3.15,3.15,0,0,0-1.3.6c-.3.2-.5.4-.7.4a.78.78,0,0,1-.6-.3,3.86,3.86,0,0,0-2.7-1.1h-2.1a7.89,7.89,0,0,0-3,.5,10.42,10.42,0,0,1-1.1.1h-.9s-.1,0-.3.2a1.42,1.42,0,0,0-.6-.2,2.25,2.25,0,0,0-1.4.6,2.46,2.46,0,0,1-1.1.4h-.6c-1.5,0-2.9.4-4.3.5-2.3.3-6.2,1.2-7.5,3.7-.3.5-.4.5-.5.5a7.83,7.83,0,0,0-1.4-.3,1.6,1.6,0,0,0-.8.3,1.82,1.82,0,0,1-.8.6h0a1.69,1.69,0,0,0-.5-.2,2.62,2.62,0,0,0-1.3.6,3.62,3.62,0,0,0-1.3,1.5,1.4,1.4,0,0,1-.4.4,3.39,3.39,0,0,1-.8.3,7.55,7.55,0,0,1-3.4,1.1,1.91,1.91,0,0,0-.8-.3,1.27,1.27,0,0,0-.6.1.6.6,0,0,1-.4.1.91.91,0,0,1-.7-.3c-.1-.1-.1-.2-.2-.3l-.1.1a2.92,2.92,0,0,1-.2-.9v-.1l-.8-.2c-.4.8-1,.9-1.8,1-.6,0-1.3-.1-2-.1h-.5a21.51,21.51,0,0,1-2.3.2,4.32,4.32,0,0,1-2.5-.8,3.48,3.48,0,0,1-1.5-1.9,3.63,3.63,0,0,0-.3-.7.87.87,0,0,0-.8-.6c-.2,0-.3.1-.5.1a3.26,3.26,0,0,1-1.4.4h-.2a.93.93,0,0,0-.7.4,5.28,5.28,0,0,0-.7,1.8c-1.3,3.4-2.9,7.9-6,9.7-1.6.9-3.5,1.6-5.3,2.4s-2.8,2.3-4,3.4a5.24,5.24,0,0,0-1.6,2.2c-.4,1.3-.2,2.1-.8,2.9-1.4,1.7-2.3,2.9-2.4,5.2a5.11,5.11,0,0,1-.3,2.2,1.45,1.45,0,0,0-.2.7.84.84,0,0,0,.4.7,1,1,0,0,1,.5.4,1,1,0,0,1,.4.9,7.17,7.17,0,0,1-1.5,3.3,28,28,0,0,1-3.5,4.1c-1.4,1.2-2.9,2.3-4.3,3.6a9.53,9.53,0,0,1-5,2.2c-1,.2-2,.3-3.1.6a1.76,1.76,0,0,0-.5.4c-.3.3-.6.9-.9,1.1-.1,0-.1.1-.2.1l-.1.1-.6.7h.4l-.3.6a15.39,15.39,0,0,0-.8,1.9c-.8,2.2-1.8,3-3.9,4.2s-2.7,3.5-3.4,5.4c-1,2.5-.6,4.4-2.3,6.1-1.4,1.4-3.6,2.8-4.5,4.8l.7.4a2.66,2.66,0,0,1-.6,1c-.4.7-.9,1.3-1.1,1.6a5.39,5.39,0,0,0-.3,1v.3h0a1.85,1.85,0,0,0-.8,1.2c-.1.4-.2.9-.3,1.2a2.44,2.44,0,0,1-.9,1.1,5,5,0,0,0-1.4,1.2,7.11,7.11,0,0,0-1,3,20.41,20.41,0,0,0-.9,4.2,3.19,3.19,0,0,0,.3,1.4l.4-.2.4.1a10.26,10.26,0,0,1,.4-1.4,3.55,3.55,0,0,0,.4.9A3.41,3.41,0,0,0,317,227l.6.4.1-.5a7.19,7.19,0,0,1,.9,2.4.91.91,0,0,1-.3.7l-.1.1-.4.4a2.1,2.1,0,0,0-.7,1.4.73.73,0,0,0,.2.6h.1l-.3.6-.4-.1.1.6c.1,1,1,1.5,1.3,1.9a3.94,3.94,0,0,1,.5,2,35.76,35.76,0,0,1,.4,4.5,6.6,6.6,0,0,1-.1,1.4c-.3,3.3-2.6,6.2-2.7,9.9-.1.2-.1.4-.2.6-.3,1-.6,1.9-.6,2a13.09,13.09,0,0,1-2.4,3.7c-.1.1-.6.3-1.1.6a3,3,0,0,0-.7.5,1.23,1.23,0,0,0-.4.8v.1l.1.8.6-.6a.76.76,0,0,1,.4-.2,3.47,3.47,0,0,1,1.7,2,8.78,8.78,0,0,1,.7,2.8v.1h.2v.3l.1.3.4-.1h0l-.1.5h.5a.37.37,0,0,1,.3.1.82.82,0,0,0-.4.6h-.1a.59.59,0,0,0-.5.2c-.1.1-.3.2-.5.4l.3.3-.4-.1v.4a3.19,3.19,0,0,0,.3,1.4v.1a4.88,4.88,0,0,0-.3,1.4.73.73,0,0,0,.2.6l.1.1a.75.75,0,0,0-.1.5.6.6,0,0,0,.1.4v.1a.76.76,0,0,0-.2.5,1.45,1.45,0,0,0,.2.7,1.24,1.24,0,0,0,.2.3l.2.5.3-.2a1.38,1.38,0,0,0,.4.3,1.6,1.6,0,0,0,1,.5h0c0,.1-.1.3-.1.4v.2h-.1l.3.7c.1.2.1.3.2.5l.4-.2.2.4h.1a1,1,0,0,0,.7.4h.1v.5l.5-.1a3.52,3.52,0,0,0,1.8-.5l.2-.2c0,.1-.1.2-.1.4a2.84,2.84,0,0,0,.4,1.2v.1a1.85,1.85,0,0,0-.2.7.76.76,0,0,0,.1.4h0l-.2.4h0l-.2.1.5.4c.2.1.3.3.5.4l.3-.3h0c.1.1.2.2.3.2a1.93,1.93,0,0,1,.4,1.1l.1.4a1,1,0,0,0,.8.9l.7.1.2,1,.6-.9.1-.1h.1c-.1.3-.3.7-.4,1l-.4.7.8-.1h.1a1.05,1.05,0,0,0,.5.9,7.46,7.46,0,0,0,1.2.7c.3.2.5.4.5.6l.8.1h0a1.07,1.07,0,0,0,.6.9,4.35,4.35,0,0,0,.7.4h0l-.2.5.5.1h.4v.3a1.27,1.27,0,0,0,.1.6c0,.1.1.2.2.3s.2.2.3.2a1.38,1.38,0,0,0,.3.4.31.31,0,0,1,.1.2h0l-.1.6.6-.1h.1v.6l.1.4v.4l.1.8.3-.2a2.19,2.19,0,0,0,.5.3l-.1.1a1.05,1.05,0,0,0-.5.9,2.35,2.35,0,0,0,.2.8l-.1.2a1.85,1.85,0,0,0-.2.7,1.52,1.52,0,0,0,.6,1.1,1.69,1.69,0,0,0,1,.3,5.16,5.16,0,0,0,.2,1.1c.1.3.1.6.2.9a.76.76,0,0,0,.2.4.62.62,0,0,0,.5.3h0a1.24,1.24,0,0,0,.3.2h-.6v.4h0v.1l-.4-.2c0,.1-.1.2-.1.3l-.2.4.5.1a10.52,10.52,0,0,0,2.1.6h.2l-.1.2a35.34,35.34,0,0,0,5.1,2.8h0a3.92,3.92,0,0,1,.8,1,2.47,2.47,0,0,0,1.2,1c.2.1.5.4.8.6a2.18,2.18,0,0,0,.8.5,1.46,1.46,0,0,0,.6.9,9.5,9.5,0,0,0,1.7,1c.6.3,1.1.5,1.1.6,1.5,1.4,2.7,3.2,4.2,4.7s3.3,2,4.7,3.1c.9.7,2,.8,2.8,1.3a3.88,3.88,0,0,0,1.9.6h.4c.1,0,.2.1.4.1a1.39,1.39,0,0,0,1-.5,6.19,6.19,0,0,1,2.8-1.4c1.7-.2,3-1.4,4.3-1.9a19.32,19.32,0,0,1,4.9-.8v-.1a1.27,1.27,0,0,0,.6.1,3.54,3.54,0,0,0,.6-.1,25.72,25.72,0,0,1,4-.5h.4a1.45,1.45,0,0,0,.7.2.6.6,0,0,0,.4-.1,2.3,2.3,0,0,0,1.4.4h.1a1.36,1.36,0,0,0,1.1-.6l.1-.2.1.2a4.62,4.62,0,0,0,.7.7l-.2.4.8-.3a1.38,1.38,0,0,0,.9.5c.4.1.7.1,1,.2a3.33,3.33,0,0,1,1.8.8,1.61,1.61,0,0,0,1.1.5h0a2.35,2.35,0,0,0,.8-.2A6.54,6.54,0,0,0,394,319a8.35,8.35,0,0,1,1.9-.8c1-.4,2.2-.4,3.3-1.1,1.8-1.1,3.1-2.3,5.2-2.6a3.81,3.81,0,0,0,1-.3l.2-.1a.92.92,0,0,0,.6.4h.2a1.82,1.82,0,0,0,1.7-1.4,1.2,1.2,0,0,1,.4-.4,1.38,1.38,0,0,1,.4-.3,6.12,6.12,0,0,1,1.2-.5l.9-.1c1.1-.1,2.1-.3,3.2-.5.5-.1,1.4-.2,2-.3v.1l.5-.1h.5v-.1c.4,0,.7-.1,1.1-.1h.8a4.87,4.87,0,0,0,1.2-.1l.5-.1h.4c.5,0,1-.1,1.3-.1h.4a7.11,7.11,0,0,1,2.1.3,6.64,6.64,0,0,1,3.6,3.4l.3.6h0a.9.9,0,0,0,.6.6.52.52,0,0,0-.2.4.68.68,0,0,0,.4.6,1.42,1.42,0,0,0,.6.2h0a1.09,1.09,0,0,0-.1.5.9.9,0,0,0,.1.5l.1.4.4-.1h0l-.1.2c0,.2-.1.3-.1.5a3.61,3.61,0,0,0,.7,1.9,4.44,4.44,0,0,0,1.7,1.9c.2.1.3.2.5.3a1.63,1.63,0,0,0,.6.3.55.55,0,0,0,.5.3c.4,0,.5-.2.7-.4a.6.6,0,0,0,.4.1h1.1v.6l.7-.8.1-.1.1.1a.52.52,0,0,0,.4.2c.2,0,.4-.1.4-.2s.1-.2.2-.3h0l.2.2.4.2.2-.4c0-.1.1-.3.1-.4h.2l-.2.1h.6v.4a1.85,1.85,0,0,0,.7-.2l.2-.1h.4v-.2h.1l.1.2c.2-.1.3-.2.5-.3l.4-.2h.6a6.27,6.27,0,0,0,1.6-.2,13,13,0,0,0,1.3-.3.89.89,0,0,0,.5-.8l.3.3v.2a1.08,1.08,0,0,0,.3.7,1.14,1.14,0,0,0,.8.3h.7v-.4h0a.37.37,0,0,0,.3-.1,15.54,15.54,0,0,1,.5,2.3,1.56,1.56,0,0,0,.6.8,1.78,1.78,0,0,0,1,.4h.1a1.05,1.05,0,0,0,.9.5h.3l.1-.3.1-.2h.5a1.38,1.38,0,0,1-.4.3,1.27,1.27,0,0,0-.4.7.89.89,0,0,0,.5.8c.1.1.2.1.4.2h0a1.27,1.27,0,0,0,.4.9,1.52,1.52,0,0,1,.4.6,2.66,2.66,0,0,1,.3,1.2,7.79,7.79,0,0,1-.4,2.1,7.84,7.84,0,0,0-.2,1.4,2.2,2.2,0,0,0,.1.8c-.3,1.2,0,2.4-.4,2.9a6.13,6.13,0,0,1-.4.6,2.39,2.39,0,0,0-.3.9c-.1.2-.5.6-.8,1a2.63,2.63,0,0,0-.7,1.5.6.6,0,0,0,.1.4,1.28,1.28,0,0,0,1.3.7v.1a1.27,1.27,0,0,0-.1.6,5.07,5.07,0,0,0,.2,1.3.9.9,0,0,0-.5-.1h-.3a.76.76,0,0,0-.5.2.55.55,0,0,0-.3.5c0,.4.2.5.4.7l.4.4-.2.2a2.11,2.11,0,0,0-.6,1.7c0,.7.1,1.4.1,1.8v.2a3.68,3.68,0,0,1-.8,1.5c-.1.1-.1.2-.2.3l-.1-.1-.6-.6-.1.8v.2h-.1v-.2l-.1-1.6-.7,1.4a1.85,1.85,0,0,0-.2.7,1.9,1.9,0,0,0,.5,1.3l.3-.3-.3.3.1-.2-.2.2h0s.2.3.3.5l.8,1.6.1.2-.3.2a13,13,0,0,1,1.1,1.9v.5h0v.2h-.3l.6.8c.2.3.6,1.1,1,1.8a3.14,3.14,0,0,0,1.1,1.4l-.1.1.4.4a30.9,30.9,0,0,1,4.3,4.6c.8,1.2,1.7,3,3,4,1.3,1.2,3,2.6,3.4,4.1a10.38,10.38,0,0,1,.3,1.2c.1.2.2.5.3.7a.82.82,0,0,0,.6.4v.1c0,.8.6,1.4.6,1.7a1,1,0,0,0,.1.3,7.07,7.07,0,0,0-.2,1.2h0a1.14,1.14,0,0,0,.3.8l.1.1h-.1a2.55,2.55,0,0,0,1,1.4,1.16,1.16,0,0,0-.4,1,6.52,6.52,0,0,0,1.1,2.9c.6.9,1.4,1.5,1.6,2.3.2.5.1,1.2.4,2a20.88,20.88,0,0,0,1.7,4.1,5.66,5.66,0,0,1,.8,2.8v.7c0,.1,0,.1-.1.1a6.13,6.13,0,0,0-.6.4l-.3.3h0a1.48,1.48,0,0,0-.9,1.3,2.92,2.92,0,0,0,.2.9l.1.7.1-.3.3.6a4.42,4.42,0,0,1,.2,1.7c.1.7.6,1.1.7,1.5a13.78,13.78,0,0,0,1.1,3,7.92,7.92,0,0,1,1.3,2.8,9.52,9.52,0,0,1,.3,2.5,10.92,10.92,0,0,1-1.3,5.5,12.89,12.89,0,0,0-.6,1.2c-.2.3-.3.4-.8.4a2,2,0,0,0-1.7,1.3,15.6,15.6,0,0,1-.5,1.6,8.7,8.7,0,0,1-1.7,2.1,1.84,1.84,0,0,0-.5,1.6,2.27,2.27,0,0,1-.3,1.3c-.8,1.3-.5,2.7-.7,3.9-.1.7-1,2.4-1,3.5a.9.9,0,0,0,.1.5l-.2.4a1.49,1.49,0,0,0-.3.8c-.1.5-.1,1-.2,1.3s-.7.7-1.1,1.4a.6.6,0,0,0-.1.4,3,3,0,0,0,.2.9c0,.4.1.8.1,1.2,0,1.8-.4,3.7-.4,5.6v.4c0,.5-.1,1-.1,1.5,0,2.6.5,5.2,2.7,7.1s2.6,5.2,4,7.9,1.9,5.8,4,8.5c.3.4.4,1.1.8,1.8s.9,1.3,1.3,1.9a6.23,6.23,0,0,1,1.4,3.6v.6c-.1.7-.4,1.9-.4,2v.5a22.86,22.86,0,0,0,.2,2.5v2.4a7.47,7.47,0,0,0,.3,2,21.19,21.19,0,0,1,1.4,4v.3c0,.4-.1.9-.1,1.4a1.7,1.7,0,0,0,.1.7c.1.5.1,1.1.2,1.7.1.9.4,1.6.4,2.3v.7a1.61,1.61,0,0,0,.3.9,1.37,1.37,0,0,1,.4,1.1v.5a2.49,2.49,0,0,0,.1.8c.2.8.6,1.1.7,1.6a5.34,5.34,0,0,0,.5,2,29,29,0,0,0,1.9,3.4c.9,1.3,2.1,2.2,2.9,3.2a1.19,1.19,0,0,0,.9.5c.3,1.5,1.5,2.7,1.9,3.8.5,1.3.8,2.8,1.2,4.2a36.75,36.75,0,0,0,4,8.5,9.91,9.91,0,0,1,1.6,5.2v.2a5.9,5.9,0,0,1-.2,1.4c-.2.4-.3.5-.6.5a1,1,0,0,1-.6-.2l-.5-.3-.2.5a5.92,5.92,0,0,0-.4,1.5.9.9,0,0,0,.1.5.71.71,0,0,0,.6.3h0c.2,0,.1,0,.2.1h0v.2c0,.2.1.2.1.3A18.56,18.56,0,0,0,496,546a3.51,3.51,0,0,1,.6,1.6v.2c0,.4-.5,1.3-.6,2.1a1.46,1.46,0,0,0,1,1.4l.6.2v-.7c0-.3-.1-.6-.1-.8v-.3l.1-.1h.2c.4,0,.5.2.5.5a1.09,1.09,0,0,1-.1.5l-.2.5.5.1c.3.1.9.1,1.5.2a6.37,6.37,0,0,1,.7.2l.1.1h0a.31.31,0,0,1-.1.2l-.4.5.6.2a2.56,2.56,0,0,1,1.1.8,1.6,1.6,0,0,0,.8.3h.5a3.09,3.09,0,0,0,.8.2h0a.76.76,0,0,0,.5-.2,2.74,2.74,0,0,1,.5-.4,8.11,8.11,0,0,1,2-1.4c.4-.2,1,0,1.8-.4a4.33,4.33,0,0,1,.5-.1c.7,0,1.8.2,2.8.2a1.84,1.84,0,0,0,1.8-.8,4.49,4.49,0,0,1,3.5-1.6h.7a1.7,1.7,0,0,0,.7.1,2,2,0,0,1,.9.1,2.54,2.54,0,0,0,.7.2c.3,0,.6-.2.6-.3a.77.77,0,0,1,.3-.2,4.3,4.3,0,0,1,1.2-.2,10.1,10.1,0,0,1,3,.7,4.94,4.94,0,0,0,1.5.3c1,0,1.4-.6,2.3-1.1a.9.9,0,0,1,.5-.1c.6,0,1.4.5,2.3.6a1,1,0,0,0,.7-.2l.7-.3-.7-.4-.2-.2.2-.4a.86.86,0,0,1,.6-.3,1.09,1.09,0,0,1,.5-.1c.6,0,1.2.2,2,.2h.4c2.3-.3,4.2-1.9,5.8-3.1,2.1-1.6,4.1-3.3,6.1-5,1.7-1.4,2.6-3.3,4.1-4.5a26.87,26.87,0,0,0,5-5.1c.8-1.2,1.5-2.4,2.2-3.6a10.17,10.17,0,0,0,1.5-2.3,13.59,13.59,0,0,1,2.6-4.1c.3-.4.8-.9,1-.9a2.25,2.25,0,0,0,.7-.1.76.76,0,0,0,.4-.2.52.52,0,0,0,.2-.4,2.92,2.92,0,0,0,1.9-1.7,12.91,12.91,0,0,0,.9-2.5c.7-2.5,1.4-4.7,2-7.2.3-.1.5-.5.6-.8a5.9,5.9,0,0,0,.2-1.4c0-.8-.1-1.6-.1-2.1v-.4l-.8-.2a.35.35,0,0,1-.1.2h0l-.7-.7-.2-.2a1.21,1.21,0,0,0,.5-.5,6.72,6.72,0,0,0,.6-1.2,4.25,4.25,0,0,1,2-1.7,25.56,25.56,0,0,1,5.8-2.6,11.26,11.26,0,0,0,5.2-2.9c.6-.7,1.8-2.1,1.8-3.5a1.93,1.93,0,0,0-.3-1l-.5-.8c.3-1.2,1-2.5,1.2-3.8v-.2c0-.8-.4-1.3-.4-1.8v-.1c.1-.8.3-1.6.4-2.4h-.2v-.6l.1-1.3-.8,1-.1.1c0-.6-.2-1.2-.2-1.7-.1-1.1-.7-2.2-.7-3a.9.9,0,0,1,.1-.5l-.2-.1c0-.4.1-1,.1-1.1v-.1a3.2,3.2,0,0,0-.7-2.2c-.4-.5-.8-.7-.9-.9s-.2-.1-.2-.6v-.7a.9.9,0,0,0-.1-.5,1.38,1.38,0,0,0,.3-.4,1.88,1.88,0,0,0,.2-.8,1.27,1.27,0,0,0-.1-.6h.2a2.23,2.23,0,0,0,1.3-.6,2.94,2.94,0,0,0,.8-.8,17.83,17.83,0,0,0,2.2-2.6,13.68,13.68,0,0,1,2.2-1.9.52.52,0,0,0,.4.2.59.59,0,0,0,.5-.2h0l.4-.2.3.3a.85.85,0,0,0,.3-.5h.2l-.1-.5v-.2c0-.5.6-1.1,1.3-1.7s1.6-1.2,1.6-2.2a.6.6,0,0,0-.1-.4,3.91,3.91,0,0,0,1.6-1c.5-.5,1.1-1,1.3-1.2a11.43,11.43,0,0,0,3-1.7c.3-.3.3-.2.3-.2a2.64,2.64,0,0,0,.7-.1,10.09,10.09,0,0,0,1.5-.7,12.43,12.43,0,0,1,1.5-.5,9.44,9.44,0,0,0,.9-.3c.1-.1.3-.1.4-.2a.62.62,0,0,0,.3-.5V447h0l.1-.1a7.56,7.56,0,0,1,1.7-1.2,5.23,5.23,0,0,0,1.8-1.3h0l.3.5.3-.8c.1-.2.1-.5.2-.8a14,14,0,0,0,1.3-1.8c.5-1,1.6-1.6,2.3-2.9a6.77,6.77,0,0,0,.6-1.6.6.6,0,0,0-.1-.4l.2-.2a.76.76,0,0,0,.2-.5v-.2l.2-.5h-.1a1.23,1.23,0,0,0,.4-.8c.1-.4.1-.8.2-1.2v-.3a1,1,0,0,0-.7-1,2.35,2.35,0,0,0,.2-.8.51.51,0,0,0-.5-.6c0-.6.2-1.6.2-2.4a2.77,2.77,0,0,0-.1-.9,2.09,2.09,0,0,0-.4-.6,5.07,5.07,0,0,1,.2-.9,8.87,8.87,0,0,0,.3-1.4,1,1,0,0,0-.2-.7l-.2-.2a3.08,3.08,0,0,0,.3-1.3,1.27,1.27,0,0,0-.1-.6,2.19,2.19,0,0,0-.3-.5c-.1-.1-.1-.1-.1-.2v-.1a1.27,1.27,0,0,0,.1-.6v-.4h0a.77.77,0,0,1-.1-.3l.1-.2a3.54,3.54,0,0,0,.1-.6v-.5a3.75,3.75,0,0,0-.1-1.1,9.23,9.23,0,0,0-.1-1.5,2.46,2.46,0,0,0-.5-1.5c0-.1.1-.1.2-.2s.3-.3.4-.6a2.74,2.74,0,0,0,.2-1.2,1.88,1.88,0,0,1,.2-.8l.3-.4-.4-.2a1.42,1.42,0,0,0,.2-.6,1.07,1.07,0,0,0-.9-1.1v-.1a2.24,2.24,0,0,0-.8-1.5,2,2,0,0,0-1.4-.6h-.2c-.1-.1-.1-.2-.2-.3a1.47,1.47,0,0,0-.6-.5v-.2a1.14,1.14,0,0,0-.3-.8v-.1a1.45,1.45,0,0,0,.1-.6V404a3.6,3.6,0,0,0-.5-.9c-.2-.2-.2-.3-.2-.4v-.1a2.43,2.43,0,0,0,.3-1.1.71.71,0,0,0-.8-.8,1.09,1.09,0,0,0-.1-.5c0-.1-.1-.2-.2-.4.1-.1.1-.2.1-.4a2.1,2.1,0,0,0-.4-1.1,1.9,1.9,0,0,1-.3-.9v-.3a4.92,4.92,0,0,1,.5-2,3.59,3.59,0,0,0,.2-1.1,2.2,2.2,0,0,0-.1-.8c-.1-.2-.2-.5-.5-.5a4.48,4.48,0,0,0,.1-1.1,3,3,0,0,1,.5-1.6,2.77,2.77,0,0,0,.5-1.6,2.92,2.92,0,0,0-.2-.9,1,1,0,0,0-.9-.4h0a2.77,2.77,0,0,0-1.3-1.8c-.6-.5-1-.8-1-1.2v-.4c0-.6-.4-1-.3-1.2h0a2.92,2.92,0,0,1,.2-.9,16.67,16.67,0,0,1,.8-2,16,16,0,0,0,1.3-4.4V375c.1-.1.2-.2.3-.2h0l.6.4.1-.7c.1-.9,1.3-1.9,1.4-3.4V371a1.79,1.79,0,0,0,.5-.7,10.66,10.66,0,0,0,.7-1.9,3.89,3.89,0,0,1,.6-1.3,3.47,3.47,0,0,0,.8-1.1,2.65,2.65,0,0,0,.5-1.4.37.37,0,0,0-.1-.3,1.27,1.27,0,0,1-.1-.6,1.23,1.23,0,0,1,1.2-1.3,2.24,2.24,0,0,0,1.8-1.1h0v.3l.7-.7a1.4,1.4,0,0,0,.3-.9,2.35,2.35,0,0,0-.2-.8h0v-.1c.1,0,.3.1.4.1a3.69,3.69,0,0,0,2.5-1.6l.3-.6a8.47,8.47,0,0,0,2.1-4.1.85.85,0,0,0,.5-.3,11.4,11.4,0,0,0,1.2-1.4c.6-.8,1.2-1.7,1.8-2.4,1.3-1.6,2.7-3.2,4-4.8s3-3.1,4.5-4.6a24.09,24.09,0,0,1,4.4-3.3,41.84,41.84,0,0,0,9.6-8.7c1.4-1.7,2.8-3.4,4.2-5.2,1.3-1.6,2-3.6,3.1-5.2a40.46,40.46,0,0,0,3.2-5.4c.8-2,.9-4,1.8-5.7a31.64,31.64,0,0,0,2.4-4.1c.3-.8,0-1.5.3-1.9s.6-.5,1.2-1.1c1.2-1.4,1-3.3,1.8-4.4a14.13,14.13,0,0,0,1.9-3.4,10.21,10.21,0,0,0,.3-3v-1.7c0-.4.1-.4.2-.5s.3-.1.6-.1h.5a1.7,1.7,0,0,0,.7-.1,1.06,1.06,0,0,0,.6-.7l.1-.4Z"/><path class="cls-5" d="M317,280.9h0v-.4l-.1-.6-.6.3a2.65,2.65,0,0,0-.6.5l-.7.7h1.5v-.3l.2-.1Z"/><path class="cls-6" d="M317,280.9h0v-.4l-.1-.6-.6.3a2.65,2.65,0,0,0-.6.5l-.7.7h1.5v-.3l.2-.1Z"/><path class="cls-5" d="M317.1,279.2Z"/><path class="cls-6" d="M317.1,279.2Z"/><path class="cls-1" d="M317.4,282.5a.77.77,0,0,0-.8.7,1,1,0,0,0,.5.8l.3-.3.3.3h0a2.19,2.19,0,0,1,.5-.3l.4-.2-.2-.4A1.37,1.37,0,0,0,317.4,282.5Z"/><path class="cls-6" d="M317.4,282.5a.77.77,0,0,0-.8.7,1,1,0,0,0,.5.8l.3-.3.3.3h0a2.19,2.19,0,0,1,.5-.3l.4-.2-.2-.4A1.37,1.37,0,0,0,317.4,282.5Z"/><path class="cls-5" d="M319.2,280.4h-1l-.1.4-.4-.2c-.1.2-.1.3-.2.5l-.1.4.4.2a.75.75,0,0,0,.5.1c.5,0,.8-.5.9-.9Z"/><path class="cls-6" d="M319.2,280.4h-1l-.1.4-.4-.2c-.1.2-.1.3-.2.5l-.1.4.4.2a.75.75,0,0,0,.5.1c.5,0,.8-.5.9-.9Z"/><path class="cls-5" d="M319.8,281.6a1.33,1.33,0,0,0-.8,1.1v.2l.4-.1.3.3a2.1,2.1,0,0,0,.7-1.1l.2-.8Z"/><path class="cls-6" d="M319.8,281.6a1.33,1.33,0,0,0-.8,1.1v.2l.4-.1.3.3a2.1,2.1,0,0,0,.7-1.1l.2-.8Z"/><path class="cls-5" d="M585.1,476.9l-.8-.2a2.84,2.84,0,0,0-.4,1.3,1.27,1.27,0,0,0,.1.6l.4-.2.4.1a4,4,0,0,0,.3-1.5Z"/><path class="cls-6" d="M585.1,476.9l-.8-.2a2.84,2.84,0,0,0-.4,1.3,1.27,1.27,0,0,0,.1.6l.4-.2.4.1a4,4,0,0,0,.3-1.5Z"/><path class="cls-5" d="M439,323.5Z"/><path class="cls-6" d="M439,323.5Z"/><path class="cls-1" d="M607.6,387.7a.76.76,0,0,0,.5.2h0c.4,0,.6-.4.7-.6a2,2,0,0,0,.1-.8,1.7,1.7,0,0,0-.1-.7,1,1,0,0,0-.6-.5h0a4.38,4.38,0,0,0-.6-2.3l-.5-.8-.3.9c0,.1-.2.3-.4.6a1.53,1.53,0,0,0-.4,1v.3A4.22,4.22,0,0,0,607.6,387.7Z"/><path class="cls-6" d="M607.6,387.7a.76.76,0,0,0,.5.2h0c.4,0,.6-.4.7-.6a2,2,0,0,0,.1-.8,1.7,1.7,0,0,0-.1-.7,1,1,0,0,0-.6-.5h0a4.38,4.38,0,0,0-.6-2.3l-.5-.8-.3.9c0,.1-.2.3-.4.6a1.53,1.53,0,0,0-.4,1v.3A4.22,4.22,0,0,0,607.6,387.7Z"/><path class="cls-5" d="M606.1,384.9Z"/><path class="cls-6" d="M606.1,384.9Z"/><path class="cls-5" d="M608.4,396.6l.4-.1.3.3c.2-.2.5-.3.7-.6a1.36,1.36,0,0,0,.6-1.1.9.9,0,0,0-.1-.5l-.4-1-.4,1c-.1.2-.3.3-.5.6a1.36,1.36,0,0,0-.6,1.1Z"/><path class="cls-6" d="M608.4,396.6l.4-.1.3.3c.2-.2.5-.3.7-.6a1.36,1.36,0,0,0,.6-1.1.9.9,0,0,0-.1-.5l-.4-1-.4,1c-.1.2-.3.3-.5.6a1.36,1.36,0,0,0-.6,1.1Z"/><path class="cls-1" d="M609.3,377.9l-.5-.2-.1.6v.5h.4l-.4.1h0a.85.85,0,0,0,.2.6v.1l-1.2.1,1.1.7h0a1.42,1.42,0,0,0-.2.6.77.77,0,0,0,.7.8,1.07,1.07,0,0,0,.9-.7,3.53,3.53,0,0,0,.3-1.4A1.61,1.61,0,0,0,609.3,377.9Z"/><path class="cls-6" d="M609.3,377.9l-.5-.2-.1.6v.5h.4l-.4.1h0a.85.85,0,0,0,.2.6v.1l-1.2.1,1.1.7h0a1.42,1.42,0,0,0-.2.6.77.77,0,0,0,.7.8,1.07,1.07,0,0,0,.9-.7,3.53,3.53,0,0,0,.3-1.4A1.61,1.61,0,0,0,609.3,377.9Z"/><path class="cls-1" d="M608.6,256.1a1.47,1.47,0,0,0,1,.9,6,6,0,0,0,1.2.2h1.3l-.3-.6a1.17,1.17,0,0,0-.6-.6,2.49,2.49,0,0,0-.8-.1c-.2,0-.1,0-.2-.1a2.18,2.18,0,0,1-.1-.6.76.76,0,0,0-.2-.4.85.85,0,0,0-.6-.3c-.2,0-.3.1-.4.1l.2.4h-.4v.3l-.8-.6Z"/><path class="cls-6" d="M608.6,256.1a1.47,1.47,0,0,0,1,.9,6,6,0,0,0,1.2.2h1.3l-.3-.6a1.17,1.17,0,0,0-.6-.6,2.49,2.49,0,0,0-.8-.1c-.2,0-.1,0-.2-.1a2.18,2.18,0,0,1-.1-.6.76.76,0,0,0-.2-.4.85.85,0,0,0-.6-.3c-.2,0-.3.1-.4.1l.2.4h-.4v.3l-.8-.6Z"/><path class="cls-1" d="M271,249.1h0c-.1,0-.2-.1-.3-.2a1.14,1.14,0,0,1-.3-.8,1.71,1.71,0,0,1,1.5-1.6.87.87,0,0,1,.9.6c0,.1.1.2.1.3a1.44,1.44,0,0,1-.7,1.1,1.43,1.43,0,0,1-1.2.6Z"/><path class="cls-6" d="M271,249.1h0c-.1,0-.2-.1-.3-.2a1.14,1.14,0,0,1-.3-.8,1.71,1.71,0,0,1,1.5-1.6.87.87,0,0,1,.9.6c0,.1.1.2.1.3a1.44,1.44,0,0,1-.7,1.1,1.43,1.43,0,0,1-1.2.6Z"/><path class="cls-1" d="M272.3,249.8h0l-.1-.1h0a1.27,1.27,0,0,1-.1-.6.55.55,0,0,1,.2-.5.6.6,0,0,1,.9,0,.85.85,0,0,1,.3.6c0,.2-.2.5-.3.5s-.4.1-.6.2h0Z"/><path class="cls-6" d="M272.3,249.8h0l-.1-.1h0a1.27,1.27,0,0,1-.1-.6.55.55,0,0,1,.2-.5.6.6,0,0,1,.9,0,.85.85,0,0,1,.3.6c0,.2-.2.5-.3.5s-.4.1-.6.2h0Z"/><path class="cls-1" d="M274.9,261.6a1.38,1.38,0,0,1-.6-1.1,1.85,1.85,0,0,1,.2-.7.84.84,0,0,1,.7-.4.76.76,0,0,1,.5.2.91.91,0,0,1,.4.8,1.39,1.39,0,0,1-.7,1.2h-.5Z"/><path class="cls-6" d="M274.9,261.6a1.38,1.38,0,0,1-.6-1.1,1.85,1.85,0,0,1,.2-.7.84.84,0,0,1,.7-.4.76.76,0,0,1,.5.2.91.91,0,0,1,.4.8,1.39,1.39,0,0,1-.7,1.2h-.5Z"/><path class="cls-1" d="M275.9,251.7h0l-.3-.1h0l-.1-.2a4.67,4.67,0,0,0-.5-1c-.1-.1-.1-.2,0-.4s.1-.2.3-.3a1.27,1.27,0,0,1,.6-.1,3.8,3.8,0,0,1,1.7.5c.1,0,.2.1.2.3v.3a.87.87,0,0,1-.7.4,5.64,5.64,0,0,1-.7-.1h0v.1h0c0,.1-.1.2-.1.3h0l-.2.1h0l-.2.2Z"/><path class="cls-6" d="M275.9,251.7h0l-.3-.1h0l-.1-.2a4.67,4.67,0,0,0-.5-1c-.1-.1-.1-.2,0-.4s.1-.2.3-.3a1.27,1.27,0,0,1,.6-.1,3.8,3.8,0,0,1,1.7.5c.1,0,.2.1.2.3v.3a.87.87,0,0,1-.7.4,5.64,5.64,0,0,1-.7-.1h0v.1h0c0,.1-.1.2-.1.3h0l-.2.1h0l-.2.2Z"/><path class="cls-1" d="M279.7,261.1a1.54,1.54,0,0,1-1.6-1.6,4,4,0,0,1,.3-1.5c.1-.2.2-.3.4-.3a.52.52,0,0,1,.4.2c.1.2.4.5.6.8a2.26,2.26,0,0,1,.6,1.3,1.22,1.22,0,0,1-.4.9h0l-.1.1h0l-.2.1Z"/><path class="cls-6" d="M279.7,261.1a1.54,1.54,0,0,1-1.6-1.6,4,4,0,0,1,.3-1.5c.1-.2.2-.3.4-.3a.52.52,0,0,1,.4.2c.1.2.4.5.6.8a2.26,2.26,0,0,1,.6,1.3,1.22,1.22,0,0,1-.4.9h0l-.1.1h0l-.2.1Z"/><path class="cls-1" d="M281.3,259.7a1.15,1.15,0,0,1-.6-.9.68.68,0,0,1,.4-.6,1.42,1.42,0,0,1,.6-.2.6.6,0,0,1,.4.1.55.55,0,0,1,.3.5c0,.4-.2.6-.5,1l-.1.1h0l-.2.1Z"/><path class="cls-6" d="M281.3,259.7a1.15,1.15,0,0,1-.6-.9.68.68,0,0,1,.4-.6,1.42,1.42,0,0,1,.6-.2.6.6,0,0,1,.4.1.55.55,0,0,1,.3.5c0,.4-.2.6-.5,1l-.1.1h0l-.2.1Z"/><path class="cls-1" d="M283.6,254.7a1.14,1.14,0,0,1-.8-.3,1.08,1.08,0,0,1-.3-.7c0-.4.2-.8.1-1h0a.76.76,0,0,1,.2-.4.6.6,0,0,1,.4-.1,2,2,0,0,1,.8.4,1,1,0,0,1,.6.9c0,.5-.4.8-.9,1l-.1.2Z"/><path class="cls-6" d="M283.6,254.7a1.14,1.14,0,0,1-.8-.3,1.08,1.08,0,0,1-.3-.7c0-.4.2-.8.1-1h0a.76.76,0,0,1,.2-.4.6.6,0,0,1,.4-.1,2,2,0,0,1,.8.4,1,1,0,0,1,.6.9c0,.5-.4.8-.9,1l-.1.2Z"/><path class="cls-1" d="M283.1,251h0l-.2-.1h0l-.1-.1h0l-.1-.2h0a5.63,5.63,0,0,1-.2-1,1.09,1.09,0,0,1,.4-.9.6.6,0,0,1,.4-.1c.1,0,.2.2.3.3a2.77,2.77,0,0,1,.1.9,1.93,1.93,0,0,1-.3,1c-.1.1-.1.2-.3.2Z"/><path class="cls-6" d="M283.1,251h0l-.2-.1h0l-.1-.1h0l-.1-.2h0a5.63,5.63,0,0,1-.2-1,1.09,1.09,0,0,1,.4-.9.6.6,0,0,1,.4-.1c.1,0,.2.2.3.3a2.77,2.77,0,0,1,.1.9,1.93,1.93,0,0,1-.3,1c-.1.1-.1.2-.3.2Z"/><path class="cls-1" d="M628,420.4h0c-.1,0-.2-.1-.3-.2h0c-.1-.1-.4-.3-.6-.5a1.17,1.17,0,0,1-.6-1,.9.9,0,0,1,.1-.5v-.6a1.31,1.31,0,0,1,.3-1,1.23,1.23,0,0,1,.8-.4h0c.2,0,.3.1.4.3.3.9.1,1.6.3,2.2a1.88,1.88,0,0,1,.2.8,1.08,1.08,0,0,1-.3.7h0l-.3.2Z"/><path class="cls-6" d="M628,420.4h0c-.1,0-.2-.1-.3-.2h0c-.1-.1-.4-.3-.6-.5a1.17,1.17,0,0,1-.6-1,.9.9,0,0,1,.1-.5v-.6a1.31,1.31,0,0,1,.3-1,1.23,1.23,0,0,1,.8-.4h0c.2,0,.3.1.4.3.3.9.1,1.6.3,2.2a1.88,1.88,0,0,1,.2.8,1.08,1.08,0,0,1-.3.7h0l-.3.2Z"/><path class="cls-1" d="M629.9,423.1a3.09,3.09,0,0,1-.8-.2,1.13,1.13,0,0,1-.7-1c0-.2.1-.4.3-.4h.3a1.54,1.54,0,0,1,1.4,1h0v.3h0l-.1.1H630Z"/><path class="cls-6" d="M629.9,423.1a3.09,3.09,0,0,1-.8-.2,1.13,1.13,0,0,1-.7-1c0-.2.1-.4.3-.4h.3a1.54,1.54,0,0,1,1.4,1h0v.3h0l-.1.1H630Z"/><path class="cls-1" d="M633.3,423h0l-.2-.1a17.1,17.1,0,0,0-1.4-1.1c-.2-.1-.2-.3-.1-.5a.37.37,0,0,1,.5-.2,1.7,1.7,0,0,0,.7.1,1.49,1.49,0,0,1,.9.2.78.78,0,0,1,.3.7,3.09,3.09,0,0,1-.2.8h0l-.1.2h0l-.1.1h-.1Z"/><path class="cls-6" d="M633.3,423h0l-.2-.1a17.1,17.1,0,0,0-1.4-1.1c-.2-.1-.2-.3-.1-.5a.37.37,0,0,1,.5-.2,1.7,1.7,0,0,0,.7.1,1.49,1.49,0,0,1,.9.2.78.78,0,0,1,.3.7,3.09,3.09,0,0,1-.2.8h0l-.1.2h0l-.1.1h-.1Z"/><path class="cls-1" d="M698.1,471.4h-.2a.71.71,0,0,1-.6-.3,1.42,1.42,0,0,1-.2-.6,3.88,3.88,0,0,1,.6-1.7,8.14,8.14,0,0,1,.8-1.2l.2-.1h.2a1.35,1.35,0,0,1,.9.5,1.64,1.64,0,0,1,.2,1,3.17,3.17,0,0,1-.4,1.6,1.87,1.87,0,0,1-1.5.8Z"/><path class="cls-6" d="M698.1,471.4h-.2a.71.71,0,0,1-.6-.3,1.42,1.42,0,0,1-.2-.6,3.88,3.88,0,0,1,.6-1.7,8.14,8.14,0,0,1,.8-1.2l.2-.1h.2a1.35,1.35,0,0,1,.9.5,1.64,1.64,0,0,1,.2,1,3.17,3.17,0,0,1-.4,1.6,1.87,1.87,0,0,1-1.5.8Z"/><path class="cls-1" d="M435.1,349.3h0l-.1-.1v-.1a5,5,0,0,1-.2-1.2,1.47,1.47,0,0,1,1.1-1.5h.2a.79.79,0,0,1,.7.5,1.7,1.7,0,0,1,.1.7c0,.2,0,.3-.1.4a2.56,2.56,0,0,1-1.3,1.4h0l-.2.1C435.4,349.4,435.2,349.4,435.1,349.3Z"/><path class="cls-4" d="M435.1,349.3h0l-.1-.1v-.1a5,5,0,0,1-.2-1.2,1.47,1.47,0,0,1,1.1-1.5h.2a.79.79,0,0,1,.7.5,1.7,1.7,0,0,1,.1.7c0,.2,0,.3-.1.4a2.56,2.56,0,0,1-1.3,1.4h0l-.2.1C435.4,349.4,435.2,349.4,435.1,349.3Z"/><path class="cls-1" d="M439.9,340.4h0l-.1-.1h0a1.23,1.23,0,0,1-.4-.8,1.05,1.05,0,0,1,.5-.9c.1-.1.2-.1.4-.1s.2.1.3.2a1.45,1.45,0,0,1,.2.7,2.35,2.35,0,0,1-.2.8v.1h0l-.2.1h-.5Z"/><path class="cls-6" d="M439.9,340.4h0l-.1-.1h0a1.23,1.23,0,0,1-.4-.8,1.05,1.05,0,0,1,.5-.9c.1-.1.2-.1.4-.1s.2.1.3.2a1.45,1.45,0,0,1,.2.7,2.35,2.35,0,0,1-.2.8v.1h0l-.2.1h-.5Z"/><path class="cls-1" d="M691.8,377.6a1,1,0,0,0-.5-.6.4.4,0,0,1-.2-.4c0-.2.2-.3.3-.4h.3a.79.79,0,0,1,.8.5,1.08,1.08,0,0,1,.2.8v.2h0l-.1.2h0c-.1.1-.1.1-.2.1h-.1A.46.46,0,0,1,691.8,377.6Z"/><path class="cls-6" d="M691.8,377.6a1,1,0,0,0-.5-.6.4.4,0,0,1-.2-.4c0-.2.2-.3.3-.4h.3a.79.79,0,0,1,.8.5,1.08,1.08,0,0,1,.2.8v.2h0l-.1.2h0c-.1.1-.1.1-.2.1h-.1A.46.46,0,0,1,691.8,377.6Z"/><path class="cls-1" d="M319.2,155.8h0a2.75,2.75,0,0,1-1.5-.8.76.76,0,0,1-.2-.5c0-.5.4-.7.8-.8a1.42,1.42,0,0,1,.6.2h0a3.54,3.54,0,0,1,.6-.1,1.6,1.6,0,0,1,.8.3.91.91,0,0,1,.3.7,1,1,0,0,1-1.1.9A.37.37,0,0,1,319.2,155.8Z"/><path class="cls-6" d="M319.2,155.8h0a2.75,2.75,0,0,1-1.5-.8.76.76,0,0,1-.2-.5c0-.5.4-.7.8-.8a1.42,1.42,0,0,1,.6.2h0a3.54,3.54,0,0,1,.6-.1,1.6,1.6,0,0,1,.8.3.91.91,0,0,1,.3.7,1,1,0,0,1-1.1.9A.37.37,0,0,1,319.2,155.8Z"/><path class="cls-1" d="M311.7,185.4h0a1.21,1.21,0,0,1-.6-.9,1,1,0,0,1,1.1-1,.6.6,0,0,1,.4.1c.1,0,.2.1.3.2a.19.19,0,0,1,0,.3,7.46,7.46,0,0,1-.7,1.2c-.1.1-.2.1-.3.2h0Z"/><path class="cls-6" d="M311.7,185.4h0a1.21,1.21,0,0,1-.6-.9,1,1,0,0,1,1.1-1,.6.6,0,0,1,.4.1c.1,0,.2.1.3.2a.19.19,0,0,1,0,.3,7.46,7.46,0,0,1-.7,1.2c-.1.1-.2.1-.3.2h0Z"/><path class="cls-1" d="M312.6,180.4c-.1-.1-.2-.2-.2-.3l-.2-.6a3,3,0,0,1-.2-1,.88.88,0,0,1,.8-.9h.3a1,1,0,0,1,.8.4,1.08,1.08,0,0,1,.2.8,2,2,0,0,1-.4,1.3l-.1.1c-.1.1-.3.2-.4.3l-.2.1Z"/><path class="cls-6" d="M312.6,180.4c-.1-.1-.2-.2-.2-.3l-.2-.6a3,3,0,0,1-.2-1,.88.88,0,0,1,.8-.9h.3a1,1,0,0,1,.8.4,1.08,1.08,0,0,1,.2.8,2,2,0,0,1-.4,1.3l-.1.1c-.1.1-.3.2-.4.3l-.2.1Z"/><path class="cls-1" d="M315.6,183.2h0a1.22,1.22,0,0,1-.6-1,1.42,1.42,0,0,1,.2-.6.91.91,0,0,1,.7-.3h.2c.4.1.8.4.8.8a1.09,1.09,0,0,1-1,1.1h-.3Z"/><path class="cls-6" d="M315.6,183.2h0a1.22,1.22,0,0,1-.6-1,1.42,1.42,0,0,1,.2-.6.91.91,0,0,1,.7-.3h.2c.4.1.8.4.8.8a1.09,1.09,0,0,1-1,1.1h-.3Z"/><path class="cls-1" d="M318.4,183.4h0l-.2-.2c-.4-.8-.7-1.5-1-2.2a.3.3,0,0,1,0-.4l.3-.3a19,19,0,0,0,4-1.4.44.44,0,0,1,.5.1.75.75,0,0,1,.1.5c-.6,1.2-1.8,3.2-3.3,3.8h-.1Z"/><path class="cls-6" d="M318.4,183.4h0l-.2-.2c-.4-.8-.7-1.5-1-2.2a.3.3,0,0,1,0-.4l.3-.3a19,19,0,0,0,4-1.4.44.44,0,0,1,.5.1.75.75,0,0,1,.1.5c-.6,1.2-1.8,3.2-3.3,3.8h-.1Z"/><path class="cls-1" d="M324,184.9a1.78,1.78,0,0,1-1.4-1.7,1.68,1.68,0,0,1,1.2-1.6,4.33,4.33,0,0,0,.5-.1,1,1,0,0,1,.9.4,1.4,1.4,0,0,1,.3.9,2.45,2.45,0,0,1-1.3,2.1H324Z"/><path class="cls-6" d="M324,184.9a1.78,1.78,0,0,1-1.4-1.7,1.68,1.68,0,0,1,1.2-1.6,4.33,4.33,0,0,0,.5-.1,1,1,0,0,1,.9.4,1.4,1.4,0,0,1,.3.9,2.45,2.45,0,0,1-1.3,2.1H324Z"/><path class="cls-1" d="M330.6,183h-.1c-.1-.1-.3-.2-.4-.3a.76.76,0,0,1-.2-.4c0-.2.1-.3.3-.4a3,3,0,0,0,1.3-1.4,9.8,9.8,0,0,1,1.3-2.2.59.59,0,0,1,.5-.2c.2,0,.4.1.4.2a.37.37,0,0,1,.1.3c0,.2.1.4.1.6a3.4,3.4,0,0,1-.1,1c0,.3-.1.5-.1.7a2.35,2.35,0,0,1-1.3,1.3,5.39,5.39,0,0,0-1.3.7l-.1.1h-.4Z"/><path class="cls-6" d="M330.6,183h-.1c-.1-.1-.3-.2-.4-.3a.76.76,0,0,1-.2-.4c0-.2.1-.3.3-.4a3,3,0,0,0,1.3-1.4,9.8,9.8,0,0,1,1.3-2.2.59.59,0,0,1,.5-.2c.2,0,.4.1.4.2a.37.37,0,0,1,.1.3c0,.2.1.4.1.6a3.4,3.4,0,0,1-.1,1c0,.3-.1.5-.1.7a2.35,2.35,0,0,1-1.3,1.3,5.39,5.39,0,0,0-1.3.7l-.1.1h-.4Z"/><path class="cls-5" d="M332.7,178.8Z"/><path class="cls-6" d="M332.7,178.8Z"/><path class="cls-1" d="M333.5,178.3h0c-.2-.1-.3-.1-.5-.2a.22.22,0,0,1-.2-.2v-.3a3.32,3.32,0,0,1,.8-1.1c.4-.4.8-.9,1.4-.9.3,0,.7.3.7.6,0,.1.1.2.1.4a1.32,1.32,0,0,1-.9,1.2,5.76,5.76,0,0,0-.9.5l-.1.1h-.1Z"/><path class="cls-6" d="M333.5,178.3h0c-.2-.1-.3-.1-.5-.2a.22.22,0,0,1-.2-.2v-.3a3.32,3.32,0,0,1,.8-1.1c.4-.4.8-.9,1.4-.9.3,0,.7.3.7.6,0,.1.1.2.1.4a1.32,1.32,0,0,1-.9,1.2,5.76,5.76,0,0,0-.9.5l-.1.1h-.1Z"/><path class="cls-1" d="M636.3,426.6l-.1-.1a1.64,1.64,0,0,1-.2-1,3.59,3.59,0,0,1,.2-1.1.37.37,0,0,1,.5-.2,1,1,0,0,1,.7,1,2.54,2.54,0,0,1-.5,1.3c-.1.1-.2.2-.3.2A.37.37,0,0,1,636.3,426.6Z"/><path class="cls-6" d="M636.3,426.6l-.1-.1a1.64,1.64,0,0,1-.2-1,3.59,3.59,0,0,1,.2-1.1.37.37,0,0,1,.5-.2,1,1,0,0,1,.7,1,2.54,2.54,0,0,1-.5,1.3c-.1.1-.2.2-.3.2A.37.37,0,0,1,636.3,426.6Z"/><path class="cls-1" d="M685.9,474.6v-.3a1.27,1.27,0,0,1,.7-1.2,2.2,2.2,0,0,1,1.3-.4,1.14,1.14,0,0,1,.8.3,1,1,0,0,1,.4.8,3,3,0,0,1,.5,1.4,1.23,1.23,0,0,1-.5,1,1.69,1.69,0,0,1-1,.3A2.63,2.63,0,0,1,685.9,474.6Z"/><path class="cls-6" d="M685.9,474.6v-.3a1.27,1.27,0,0,1,.7-1.2,2.2,2.2,0,0,1,1.3-.4,1.14,1.14,0,0,1,.8.3,1,1,0,0,1,.4.8,3,3,0,0,1,.5,1.4,1.23,1.23,0,0,1-.5,1,1.69,1.69,0,0,1-1,.3A2.63,2.63,0,0,1,685.9,474.6Z"/><path class="cls-5" d="M366.8,451.6h0l-.2-.1a1.23,1.23,0,0,1-.4-.8,1.05,1.05,0,0,1,.5-.9c.1-.1.2-.1.4-.1s.2.1.3.2a1.45,1.45,0,0,1,.2.7,2.35,2.35,0,0,1-.2.8h0c-.1.1-.2.2-.3.2h-.3Z"/><path class="cls-7" d="M366.8,451.6h0l-.2-.1a1.23,1.23,0,0,1-.4-.8,1.05,1.05,0,0,1,.5-.9c.1-.1.2-.1.4-.1s.2.1.3.2a1.45,1.45,0,0,1,.2.7,2.35,2.35,0,0,1-.2.8h0c-.1.1-.2.2-.3.2h-.3Z"/></svg>