<?xml version="1.0" encoding="utf-8"?>
<!-- Generator: Adobe Illustrator 22.1.0, SVG Export Plug-In . SVG Version: 6.00 Build 0)  -->
<svg version="1.1" id="Layer_1" xmlns="http://www.w3.org/2000/svg" xmlns:xlink="http://www.w3.org/1999/xlink" x="0px" y="0px"
	 viewBox="0 0 333.1 290" width="338.913069924" height="295.060913474" style="enable-background:new 0 0 333.1 290;" xml:space="preserve">
<style type="text/css">
	.st0{fill:#00539B;}
	.st1{fill:#FFFFFF;}
</style>
<title>Asset 1</title>
<g id="Layer_2_1_">
	<g id="Layer_1-2">
		<path class="st0" d="M265.5,76.6C265.5,37,221.2,5,166.6,5S67.7,37,67.7,76.6s44.2,71.6,98.9,71.6S265.5,116.1,265.5,76.6"/>
		<path class="st1" d="M262.6,76.4c0-38.4-43.1-69.6-96-69.6S70.5,38.1,70.5,76.4c0,36.5,38.9,66.4,88.2,69.3
			c5.2,0.9,10.5,0.9,15.7,0C223.7,142.9,262.6,113,262.6,76.4 M73.1,77.7h11.8c0.4,13.1,4.8,25.7,12.8,36.1c-3.3-0.4-6.6-0.9-10-1.4
			C78.7,102.4,73.4,90.5,73.1,77.7 M88.1,40.1c1.2-0.2,4.7-0.9,10.1-1.7c-8.3,10.5-13,23.5-13.4,36.9H73.1
			C73.4,62.3,78.9,50.3,88.1,40.1 M260.1,75.2h-11.8c-0.4-13.2-4.9-26-13.1-36.4c3.3,0.4,6.6,0.9,9.9,1.4
			C254.3,50.3,259.7,62.4,260.1,75.2 M245.8,75.3h-21c-0.1-13.6-3.8-27-10.6-38.8c5.7,0.5,11.5,1.2,17.6,1.9
			C240.4,48.9,245.5,61.6,245.8,75.3 M165.3,34.1v41.2h-24.8c0.1-15.3,2.4-29.6,6-40.9C152.3,34.1,158.6,34,165.3,34.1 M147.4,31.8
			c4.5-12.9,10.9-21.4,17.9-22.3v22.1C158.9,31.6,152.9,31.6,147.4,31.8 M165.3,77.7v40.8c-6-0.1-12.4-0.2-19.1-0.5
			c-3.5-11.2-5.6-25.3-5.7-40.3H165.3z M165.3,121v22.5c-0.6,0-1.1,0-1.7,0c-6.5-2-12.4-10.5-16.6-22.9
			C153.4,120.9,159.5,121,165.3,121 M167.8,143.6v-22.5h2.6c5.5,0,10.7-0.1,15.6-0.2c-4.2,12.3-10,20.7-16.5,22.7L167.8,143.6
			 M167.8,118.5V77.7h24.7c-0.1,15.2-2.2,29.3-5.8,40.6C181,118.5,174.6,118.6,167.8,118.5 M167.8,75.2V34.1
			c6,0.1,12.3,0.2,18.9,0.5c3.6,11.3,5.8,25.4,5.9,40.7L167.8,75.2z M167.8,31.5V9.5c7.1,1,13.5,9.5,18,22.6
			C179.5,31.8,173.5,31.6,167.8,31.5 M175.5,10.3c13.5,2.6,25.3,11.1,33.8,23.2c-7.1-0.6-14-1-20.5-1.3
			C185.3,22,180.8,14.4,175.5,10.3 M144.5,31.9c-4.8,0.2-9.2,0.4-13.3,0.6c-2.4,0.1-4.8,0.3-7,0.5c8.4-11.8,20.1-20.1,33.4-22.7
			C152.4,14.3,147.9,21.8,144.5,31.9 M131.4,35c3.8-0.2,7.9-0.4,12.3-0.6c-3.5,11.3-5.6,25.4-5.7,40.8h-27.2
			c0.1-14,4.2-27.7,11.6-39.6C125.3,35.4,128.3,35.2,131.4,35 M138,77.7c0.1,15.1,2,29,5.4,40.2c-6.9-0.3-14.2-0.8-21.7-1.5
			c-7-11.7-10.7-25.1-10.8-38.7H138z M144.2,120.4c3.4,10.5,8.1,18.4,13.4,22.7c-13.8-2.7-25.8-11.5-34.3-24
			C130.6,119.7,137.5,120.1,144.2,120.4 M188.9,120.7c4.7-0.2,9-0.4,13-0.6c2.6-0.2,5.2-0.3,7.6-0.5c-8.4,12.3-20.4,20.9-34,23.5
			C180.9,138.9,185.5,131.1,188.9,120.7 M201.7,117.6c-3.7,0.2-7.7,0.4-12.1,0.6c3.4-11.3,5.4-25.2,5.5-40.5h27.2
			c-0.1,13.8-3.9,27.4-11.1,39.2C208.2,117.2,205.1,117.4,201.7,117.6 M195.1,75.2c-0.1-15.3-2.2-29.3-5.6-40.6
			c6.9,0.3,14,0.8,21.5,1.4c7.2,11.8,11.1,25.3,11.2,39.1L195.1,75.2z M212.5,33.8c-5.9-9.3-14.2-16.8-24.1-21.8
			c16.4,4,30.6,12.3,40.8,23.5C223.5,34.8,217.9,34.2,212.5,33.8 M121,33.3c-6.4,0.5-12,1.2-16.7,1.8c10.1-10.9,24.2-19.1,40.3-23
			C135.1,16.9,126.9,24.2,121,33.3 M119.3,35.9c-7.1,11.9-10.8,25.5-11,39.3h-21c0.3-13.9,5.6-26.8,14.5-37.4
			C106.6,37.2,112.5,36.5,119.3,35.9 M87.4,77.7h21c0.1,13.5,3.6,26.7,10.2,38.4c-5.7-0.5-11.5-1.2-17.4-1.9
			C92.7,103.9,87.8,91.1,87.4,77.7 M120.2,118.8c5.7,9.1,13.6,16.7,23,21.8c-16-4.2-29.8-12.6-39.7-23.5
			C109.2,117.7,114.8,118.3,120.2,118.8 M212.7,119.3c6.3-0.6,11.9-1.2,16.5-1.8c-9.9,10.8-23.5,18.9-39.2,23
			C199.2,135.6,207,128.3,212.7,119.3 M214.3,116.7c6.8-11.9,10.4-25.3,10.5-38.9h21c-0.3,13.7-5.5,26.4-14.1,37
			C226.9,115.4,221.1,116.1,214.3,116.7 M248.3,77.7H260c-0.3,12.8-5.6,24.6-14.6,34.8c-0.6,0.1-4.1,0.8-10.2,1.7
			C243.3,103.8,247.9,91,248.3,77.7 M242.3,37.2c-3.2-0.4-6.3-0.9-9.4-1.2c-7.2-8.4-16.1-15.3-26.2-20.1
			C221,20.7,233.2,28.1,242.3,37.2 M126.4,15.9c-9.9,4.7-18.7,11.4-25.9,19.6c-4.1,0.6-7.3,1.1-9.5,1.5
			C100.2,28,112.3,20.7,126.4,15.9 M90.4,115.3c3.2,0.5,6.3,0.9,9.4,1.3c7.3,8.6,16.4,15.6,26.6,20.4
			C112,132.1,99.7,124.6,90.4,115.3 M206.8,137.1c10-4.8,18.9-11.6,26.2-20c4.2-0.6,7.4-1.1,9.6-1.5
			C233.4,124.7,221.1,132.1,206.8,137.1"/>
		<path class="st0" d="M47.9,206.2c0,8-0.4,13.2-1.1,15.7c-0.7,2.3-2.2,4.4-4.3,5.7c-2.4,1.5-5.2,2.2-8.1,2.1c-3.9,0-7-1-9.4-2.9
			c-2.5-2.1-4.1-5-4.5-8.2c-0.4-2-0.5-6.5-0.5-13.2v-43.6H5.7v42.9c0,12,0.9,20.3,2.8,24.8c1.8,4.4,4.9,8,9,10.4
			c4.1,2.5,9.9,3.7,17.3,3.7c7.1,0,12.8-1.5,17.1-4.5c4.1-2.7,7.1-6.9,8.3-11.7c1.2-4.8,1.9-12.6,1.9-23.4v-42.3H47.9V206.2z"/>
		<polygon class="st0" points="263.8,161.7 215.1,161.7 207.7,161.7 200.8,161.7 189.9,217.9 177.5,161.7 160.4,161.7 147.5,217 
			136.9,161.7 123.8,161.7 122.3,161.7 110.5,161.7 110.5,215.4 81.6,161.7 67.7,161.7 67.7,242.2 81,242.2 81,189.7 109.4,242.2 
			123.8,242.2 123.8,168.9 139.2,242.2 154.6,242.2 168.6,182 182.8,242.2 198,242.2 212.2,175.3 228.7,175.3 228.7,242.2 
			242.9,242.2 242.9,175.3 263.8,175.3 		"/>
		<path class="st0" d="M317.9,171.1c-6.4-7.2-14.6-10.8-24.7-10.8c-7,0-12.9,1.5-17.8,4.6s-8.9,7.7-11.9,13.9
			c-3,6.2-4.6,14.1-4.6,23.7c0,13.2,3.4,23.6,10.1,31.2c5.9,6.6,14,9.9,24.2,9.9c10.2,0,18.3-3.3,24.1-10
			c6.7-7.6,10.1-18.1,10.1-31.6C327.4,188.6,324.3,178.3,317.9,171.1 M307.2,222.8c-3.3,4.4-8.5,7-14,6.9c-5.6,0-10.3-2.3-14-6.9
			c-3.8-4.6-5.7-11.6-5.7-20.8c0-9.4,1.8-16.4,5.5-20.9c3.4-4.4,8.7-6.9,14.2-6.8c5.5-0.1,10.7,2.3,14.1,6.7
			c3.6,4.5,5.4,11.4,5.4,20.7C312.7,211.1,310.9,218.1,307.2,222.8"/>
		<polygon class="st0" points="7.9,258.7 12.5,276.7 12.6,276.7 17.6,258.7 20,258.7 25,276.7 25.1,276.7 29.7,258.7 31.7,258.7 
			26.1,279.2 24,279.2 18.8,260.9 18.7,260.9 13.6,279.2 11.5,279.2 5.8,258.7 		"/>
		<path class="st0" d="M41.5,264.6c0.8,0.4,1.6,1,2.2,1.7c0.6,0.7,1.1,1.6,1.3,2.5c0.6,2,0.6,4.1,0,6c-0.3,0.9-0.7,1.8-1.3,2.5
			c-0.6,0.7-1.4,1.3-2.2,1.7c-1.9,0.8-4.1,0.8-6,0c-0.8-0.4-1.6-1-2.2-1.7c-0.6-0.7-1.1-1.6-1.3-2.5c-0.6-2-0.6-4.1,0-6
			c0.3-0.9,0.7-1.8,1.3-2.5c0.6-0.7,1.4-1.3,2.2-1.7C37.4,263.8,39.6,263.8,41.5,264.6 M36.3,266.1c-0.6,0.4-1.2,0.8-1.6,1.4
			c-0.4,0.6-0.8,1.3-1,2c-0.5,1.5-0.5,3.1,0,4.6c0.2,0.7,0.5,1.4,1,2c0.4,0.6,1,1.1,1.6,1.4c1.4,0.7,3.1,0.7,4.5,0
			c0.6-0.4,1.2-0.8,1.6-1.4c0.4-0.6,0.8-1.3,1-2c0.4-1.5,0.4-3.1,0-4.6c-0.2-0.7-0.5-1.4-1-2c-0.4-0.6-1-1.1-1.6-1.4
			C39.4,265.4,37.7,265.4,36.3,266.1"/>
		<path class="st0" d="M49.2,264.4v3.5l0,0c0.4-1.1,1.2-2.1,2.1-2.8c1-0.7,2.2-1,3.5-0.9v1.8c-0.8-0.1-1.5,0.1-2.2,0.3
			c-1.3,0.5-2.4,1.5-2.9,2.8c-0.3,0.7-0.4,1.4-0.4,2.2v7.9h-1.7v-14.8H49.2z"/>
		<rect x="55.8" y="258.7" class="st0" width="1.8" height="20.5"/>
		<path class="st0" d="M71.8,279.2v-2.8h-0.1c-0.2,0.5-0.5,0.9-0.8,1.3c-0.4,0.4-0.8,0.7-1.3,1c-0.5,0.3-1,0.5-1.5,0.6
			c-0.5,0.2-1.1,0.2-1.6,0.2c-1,0-2-0.2-2.9-0.6c-0.8-0.4-1.6-1-2.1-1.7c-0.6-0.7-1-1.6-1.2-2.5c-0.5-2-0.5-4,0-6
			c0.2-0.9,0.7-1.8,1.2-2.5c0.6-0.7,1.3-1.3,2.1-1.7c1.4-0.7,3-0.8,4.6-0.4c0.5,0.1,1,0.3,1.5,0.6c0.5,0.3,0.9,0.6,1.2,1
			c0.4,0.4,0.6,0.9,0.8,1.4l0,0v-8.4h1.8v20.5H71.8z M61.9,274.1c0.2,0.7,0.5,1.4,0.9,2c0.4,0.6,0.9,1.1,1.5,1.4
			c0.7,0.4,1.4,0.6,2.2,0.6c1.6,0.1,3.1-0.7,4-2c0.4-0.6,0.7-1.3,0.9-2c0.4-1.5,0.4-3,0.1-4.5c-0.2-0.7-0.5-1.4-0.9-2
			c-0.9-1.3-2.4-2.1-4-2c-0.8,0-1.5,0.2-2.2,0.6c-0.6,0.4-1.1,0.9-1.5,1.4c-0.4,0.6-0.7,1.3-0.9,2C61.5,271,61.5,272.6,61.9,274.1"
			/>
		<polygon class="st0" points="97.8,258.7 97.8,260.4 90.6,260.4 90.6,279.2 88.7,279.2 88.7,260.4 81.6,260.4 81.6,258.7 		"/>
		<path class="st0" d="M104.7,264.6c0.8,0.4,1.6,1,2.2,1.7c0.6,0.7,1.1,1.6,1.3,2.5c0.6,2,0.6,4.1,0,6c-0.3,0.9-0.7,1.8-1.3,2.5
			c-0.6,0.7-1.4,1.3-2.2,1.7c-0.9,0.4-2,0.6-3,0.6c-1,0-2.1-0.2-3-0.6c-0.9-0.4-1.6-1-2.2-1.7c-0.6-0.7-1.1-1.6-1.4-2.5
			c-0.6-2-0.6-4.1,0-6c0.3-0.9,0.7-1.7,1.4-2.5c0.6-0.7,1.3-1.3,2.2-1.7c0.9-0.4,2-0.6,3-0.6C102.7,264,103.8,264.2,104.7,264.6
			 M99.4,266.1c-0.6,0.4-1.2,0.8-1.6,1.4c-0.4,0.6-0.8,1.3-1,2c-0.4,1.5-0.4,3.1,0,4.6c0.2,0.7,0.5,1.4,1,2c0.4,0.6,1,1.1,1.6,1.4
			c1.4,0.7,3.1,0.7,4.5,0c0.6-0.4,1.2-0.8,1.6-1.4c0.4-0.6,0.8-1.3,1-2c0.5-1.5,0.5-3.1,0-4.6c-0.2-0.7-0.5-1.4-1-2
			c-0.4-0.6-1-1.1-1.6-1.4C102.5,265.3,100.8,265.3,99.4,266.1"/>
		<path class="st0" d="M121,279.2v-2.7H121c-0.4,1-1.2,1.8-2.1,2.3c-0.9,0.5-2,0.8-3,0.8c-0.8,0-1.6-0.1-2.4-0.4
			c-0.6-0.2-1.2-0.6-1.6-1.1c-0.4-0.5-0.7-1.1-0.9-1.8c-0.2-0.8-0.3-1.6-0.3-2.3v-9.6h1.8v9.7c0,1.1,0.3,2.2,1,3
			c0.8,0.8,1.9,1.1,3,1c0.7,0,1.4-0.2,2-0.5c0.6-0.3,1-0.8,1.4-1.3c0.4-0.6,0.7-1.2,0.8-1.9c0.2-0.7,0.3-1.5,0.3-2.2v-7.8h1.8v14.8
			H121z"/>
		<path class="st0" d="M127,264.4v3.5h0.1c0.4-1.1,1.1-2.1,2.1-2.8c1-0.7,2.2-1,3.5-0.9v1.8c-0.8,0-1.5,0.1-2.2,0.3
			c-1.3,0.5-2.4,1.5-2.9,2.8c-0.3,0.7-0.4,1.4-0.4,2.2v7.9h-1.8v-14.8H127z"/>
		<path class="st0" d="M135.5,261.6h-1.8v-2.9h1.8V261.6z M135.5,279.2h-1.8v-14.8h1.8V279.2z"/>
		<path class="st0" d="M146.8,267.3c-0.2-0.4-0.5-0.7-0.8-1c-0.4-0.3-0.8-0.5-1.2-0.6c-0.5-0.1-1-0.2-1.5-0.2c-0.4,0-0.8,0-1.2,0.1
			c-0.4,0.1-0.8,0.2-1.1,0.4c-0.3,0.2-0.6,0.5-0.8,0.8c-0.2,0.4-0.3,0.8-0.3,1.2c0,0.4,0.1,0.7,0.3,1c0.2,0.3,0.5,0.5,0.8,0.7
			c0.3,0.2,0.6,0.4,1,0.5c0.4,0.1,0.7,0.2,1,0.3l2.4,0.6c0.5,0.1,1,0.2,1.5,0.4c0.5,0.2,0.9,0.5,1.4,0.8c0.4,0.3,0.7,0.7,1,1.2
			c0.5,1.2,0.5,2.6-0.2,3.7c-0.4,0.6-0.8,1-1.4,1.4c-0.6,0.4-1.2,0.6-1.9,0.8c-0.7,0.2-1.4,0.2-2.1,0.2c-1.5,0.1-3-0.4-4.2-1.2
			c-1.2-1-1.8-2.4-1.9-4h1.8c0,1.1,0.5,2.1,1.3,2.8c0.9,0.7,1.9,1,3,1c0.5,0,0.9,0,1.4-0.1c0.5-0.1,0.9-0.3,1.3-0.5
			c0.4-0.2,0.7-0.5,1-0.9c0.5-0.7,0.5-1.6,0.1-2.4c-0.2-0.3-0.4-0.6-0.7-0.7c-0.3-0.2-0.7-0.4-1.1-0.5c-0.4-0.1-0.8-0.3-1.2-0.3
			l-2.3-0.5c-0.6-0.1-1.1-0.3-1.6-0.5c-0.5-0.2-0.9-0.4-1.3-0.7c-0.4-0.3-0.7-0.7-0.9-1.1c-0.2-0.5-0.3-1-0.3-1.6
			c0-0.7,0.2-1.3,0.5-1.9c0.3-0.5,0.8-1,1.3-1.3c0.6-0.3,1.2-0.6,1.8-0.7c0.6-0.2,1.3-0.2,1.9-0.2c0.7,0,1.4,0.1,2.1,0.3
			c0.6,0.2,1.2,0.5,1.7,0.9c0.5,0.4,0.9,0.9,1.2,1.5c0.3,0.7,0.5,1.4,0.5,2.1H147c0-0.5-0.1-1-0.3-1.4"/>
		<path class="st0" d="M153,264.4v2.5h0.1c0.5-0.9,1.1-1.6,1.9-2.2c0.9-0.5,1.9-0.8,3-0.8c0.9,0,1.9,0.2,2.7,0.7
			c0.8,0.5,1.4,1.3,1.6,2.2c0.4-0.9,1.1-1.7,1.9-2.2c0.8-0.5,1.8-0.7,2.8-0.7c3.3,0,4.9,1.7,4.9,5.2v10H170v-9.9
			c0.1-1-0.2-2-0.8-2.8c-0.7-0.7-1.7-1.1-2.7-1c-0.7,0-1.3,0.1-1.9,0.4c-0.5,0.3-0.9,0.7-1.2,1.2c-0.3,0.5-0.5,1.1-0.6,1.7
			c-0.1,0.7-0.2,1.3-0.2,2v8.4h-1.8v-10c0-0.5-0.1-1-0.2-1.4c-0.1-0.4-0.3-0.8-0.5-1.2c-0.2-0.3-0.6-0.6-1-0.8
			c-0.5-0.2-1-0.3-1.5-0.3c-0.7,0-1.4,0.1-2,0.4c-0.5,0.3-1,0.7-1.4,1.1c-0.4,0.5-0.6,1.1-0.8,1.7c-0.2,0.7-0.3,1.4-0.3,2.2v8.2
			h-1.8v-14.8H153z"/>
		<path class="st0" d="M183.4,264.8c0.4-1.2,1-2.4,1.8-3.4c0.8-1,1.9-1.8,3-2.3c1.3-0.6,2.8-0.9,4.2-0.9c1.5,0,2.9,0.3,4.2,0.9
			c1.2,0.6,2.2,1.4,3,2.3c0.8,1,1.4,2.2,1.8,3.4c0.8,2.6,0.8,5.4,0,8.1c-0.4,1.2-1,2.4-1.8,3.4c-0.8,1-1.9,1.8-3,2.3
			c-1.3,0.6-2.8,0.9-4.2,0.9c-1.5,0-2.9-0.3-4.2-0.9c-1.2-0.6-2.2-1.3-3-2.3c-0.8-1-1.4-2.2-1.8-3.4
			C182.6,270.3,182.6,267.5,183.4,264.8 M185.2,272.2c0.3,1,0.8,2,1.4,2.9c0.6,0.9,1.4,1.6,2.4,2c1.1,0.5,2.3,0.8,3.5,0.8
			c1.2,0,2.4-0.2,3.5-0.8c0.9-0.5,1.8-1.2,2.4-2c0.6-0.9,1.1-1.9,1.4-2.9c0.6-2.2,0.6-4.4,0-6.6c-0.3-1-0.7-2-1.4-2.9
			c-0.6-0.9-1.4-1.6-2.4-2c-1.1-0.5-2.3-0.8-3.5-0.8c-1.2,0-2.4,0.2-3.5,0.8c-0.9,0.5-1.8,1.2-2.4,2c-0.6,0.9-1.1,1.9-1.4,2.9
			C184.6,267.7,184.6,270,185.2,272.2"/>
		<path class="st0" d="M205.7,264.3v3.5h0.1c0.4-1.1,1.2-2.1,2.1-2.8c1-0.7,2.2-1,3.5-0.9v1.8c-0.8-0.1-1.5,0.1-2.2,0.3
			c-0.7,0.2-1.2,0.6-1.7,1.1c-0.5,0.5-0.9,1.1-1.1,1.7c-0.3,0.7-0.4,1.4-0.4,2.2v7.9h-1.8v-14.8H205.7z"/>
		<path class="st0" d="M224.5,280.9c-0.2,0.8-0.6,1.6-1.1,2.2c-0.5,0.6-1.2,1.1-2,1.4c-1,0.4-2,0.5-3.1,0.5c-0.7,0-1.5-0.1-2.2-0.3
			c-0.7-0.2-1.3-0.4-1.9-0.8c-0.6-0.4-1-0.8-1.4-1.4c-0.4-0.6-0.6-1.3-0.6-2h1.8c0.1,0.5,0.3,1,0.6,1.4c0.3,0.4,0.6,0.7,1,0.9
			c0.4,0.2,0.9,0.4,1.3,0.5c0.5,0.1,1,0.2,1.5,0.2c1.4,0.1,2.7-0.4,3.6-1.4c0.8-1.2,1.2-2.7,1.1-4.1v-2H223c-0.4,0.9-1,1.7-1.8,2.2
			c-0.9,0.6-1.9,0.9-2.9,0.8c-1,0-2.1-0.2-3-0.6c-0.8-0.4-1.5-0.9-2.1-1.6c-0.6-0.7-1-1.5-1.2-2.4c-0.2-1-0.4-2-0.4-3
			c0-1,0.1-2,0.4-2.9c0.3-0.9,0.7-1.7,1.3-2.4c0.6-0.7,1.3-1.2,2.1-1.6c0.9-0.4,1.9-0.6,2.9-0.6c0.5,0,1.1,0.1,1.6,0.2
			c0.5,0.1,0.9,0.4,1.3,0.6c0.4,0.3,0.8,0.6,1.1,1c0.3,0.3,0.5,0.7,0.7,1.1h0.1v-2.5h1.9v13.6C224.9,278.9,224.8,279.9,224.5,280.9
			 M220.4,276.9c0.6-0.3,1.1-0.8,1.5-1.3c0.4-0.6,0.7-1.2,0.9-1.9c0.2-0.7,0.3-1.4,0.3-2.2c0-0.7-0.1-1.5-0.3-2.2
			c-0.2-0.7-0.4-1.4-0.8-2c-0.4-0.6-0.9-1.1-1.5-1.4c-0.7-0.4-1.4-0.6-2.2-0.5c-0.8,0-1.5,0.2-2.2,0.5c-0.6,0.3-1.1,0.8-1.5,1.4
			c-0.4,0.6-0.7,1.2-0.9,1.9c-0.2,0.7-0.3,1.5-0.3,2.2c0,0.7,0.1,1.5,0.3,2.2c0.2,0.7,0.5,1.3,0.9,1.9c0.4,0.5,0.9,1,1.5,1.3
			c0.7,0.3,1.4,0.5,2.2,0.5C219.1,277.4,219.8,277.2,220.4,276.9"/>
		<path class="st0" d="M228,266.7c0.3-0.6,0.7-1.1,1.3-1.6c0.6-0.4,1.2-0.7,1.8-0.9c0.8-0.2,1.6-0.3,2.4-0.3c0.6,0,1.3,0.1,1.9,0.2
			c0.6,0.1,1.2,0.4,1.7,0.7c0.5,0.4,1,0.9,1.3,1.4c0.4,0.8,0.5,1.6,0.5,2.4v7.9c-0.1,0.5,0.3,1,0.8,1.1c0.1,0,0.2,0,0.2,0
			c0.2,0,0.4,0,0.6-0.1v1.5l-0.6,0.1c-0.2,0-0.4,0-0.6,0c-0.4,0-0.8,0-1.1-0.2c-0.3-0.1-0.5-0.3-0.6-0.5c-0.2-0.2-0.3-0.5-0.3-0.8
			c0-0.3-0.1-0.7-0.1-1.1h-0.1c-0.3,0.4-0.6,0.9-1,1.3c-0.3,0.4-0.7,0.7-1.1,1c-0.4,0.3-0.9,0.5-1.4,0.6c-0.6,0.1-1.2,0.2-1.9,0.2
			c-0.7,0-1.3-0.1-1.9-0.3c-0.6-0.1-1.1-0.4-1.6-0.8c-0.5-0.4-0.8-0.8-1.1-1.3c-0.3-0.6-0.4-1.3-0.4-1.9c-0.1-0.9,0.2-1.7,0.7-2.4
			c0.5-0.6,1.1-1.1,1.8-1.3c0.8-0.3,1.7-0.5,2.5-0.6l2.9-0.4c0.3,0,0.6-0.1,1-0.1c0.3,0,0.5-0.1,0.7-0.3c0.2-0.2,0.4-0.4,0.4-0.6
			c0.1-0.3,0.2-0.6,0.2-1c0-0.5-0.1-1-0.3-1.5c-0.2-0.4-0.5-0.7-0.8-1c-0.4-0.2-0.8-0.4-1.2-0.5c-0.5-0.1-1-0.1-1.5-0.1
			c-1,0-2,0.2-2.8,0.8c-0.8,0.7-1.2,1.6-1.1,2.6h-1.8C227.5,268.1,227.7,267.4,228,266.7 M237,271.1c-0.1,0.2-0.4,0.4-0.7,0.5
			c-0.3,0.1-0.6,0.2-0.9,0.2c-0.8,0.1-1.6,0.3-2.4,0.4c-0.8,0.1-1.5,0.3-2.2,0.5c-0.6,0.2-1.2,0.5-1.6,0.9c-0.5,0.4-0.7,1.1-0.6,1.7
			c0,0.4,0.1,0.8,0.3,1.2c0.2,0.4,0.4,0.7,0.7,0.9c0.3,0.3,0.7,0.5,1.1,0.6c0.4,0.1,0.8,0.2,1.2,0.2c0.7,0,1.3-0.1,2-0.3
			c0.6-0.2,1.2-0.5,1.7-0.9c1-0.8,1.6-2.1,1.5-3.4L237,271.1L237,271.1z"/>
		<path class="st0" d="M243.6,264.3v2.5h0.1c0.4-0.9,1-1.7,1.8-2.2c0.9-0.5,1.9-0.8,2.9-0.8c0.9,0,1.8,0.1,2.6,0.4
			c0.6,0.2,1.2,0.6,1.7,1.1c0.4,0.5,0.7,1.1,0.9,1.8c0.2,0.8,0.3,1.6,0.3,2.4v9.5H252v-9.2c0-0.6-0.1-1.2-0.2-1.8
			c-0.1-0.5-0.3-1-0.6-1.4c-0.3-0.4-0.7-0.8-1.2-1c-0.6-0.2-1.2-0.4-1.8-0.3c-0.7,0-1.3,0.1-1.9,0.4c-0.5,0.2-1,0.6-1.4,1.1
			c-0.4,0.5-0.8,1-1,1.6c-0.2,0.7-0.3,1.3-0.4,2v8.6h-1.8v-14.8H243.6z"/>
		<path class="st0" d="M258.3,261.5h-1.8v-2.9h1.8V261.5z M258.3,279.1h-1.8v-14.8h1.8V279.1z"/>
		<polygon class="st0" points="272.1,277.6 272.1,279.1 259.8,279.1 259.8,277.7 269.4,265.8 260.4,265.8 260.4,264.3 271.7,264.3 
			271.7,265.6 262,277.6 		"/>
		<path class="st0" d="M274,266.7c0.3-0.6,0.7-1.1,1.2-1.6c0.6-0.4,1.2-0.7,1.8-0.9c0.8-0.2,1.6-0.3,2.4-0.3c0.6,0,1.3,0.1,1.9,0.2
			c0.6,0.1,1.2,0.4,1.7,0.7c0.5,0.4,1,0.9,1.3,1.4c0.4,0.8,0.5,1.6,0.5,2.4v7.9c-0.1,0.5,0.3,1,0.8,1.1c0.1,0,0.2,0,0.2,0
			c0.2,0,0.4,0,0.6-0.1v1.5l-0.6,0.1c-0.2,0-0.4,0-0.6,0c-0.4,0-0.8,0-1.1-0.2c-0.3-0.1-0.5-0.3-0.6-0.5c-0.2-0.2-0.3-0.5-0.3-0.8
			c-0.1-0.3-0.1-0.7-0.1-1.1h-0.1c-0.3,0.4-0.6,0.9-1,1.3c-0.3,0.4-0.7,0.7-1.1,1c-0.4,0.3-0.9,0.5-1.4,0.6
			c-0.6,0.1-1.2,0.2-1.9,0.2c-0.7,0-1.3-0.1-1.9-0.3c-0.6-0.1-1.1-0.4-1.6-0.8c-0.5-0.4-0.8-0.8-1.1-1.3c-0.3-0.6-0.4-1.3-0.4-1.9
			c-0.1-0.9,0.2-1.7,0.7-2.4c0.5-0.6,1.1-1.1,1.8-1.3c0.8-0.3,1.7-0.5,2.5-0.6l2.9-0.4c0.4,0,0.7-0.1,1-0.1c0.3,0,0.5-0.1,0.7-0.3
			c0.2-0.2,0.4-0.4,0.4-0.6c0.1-0.3,0.2-0.6,0.2-1c0-0.5-0.1-1-0.3-1.5c-0.2-0.4-0.5-0.7-0.8-1c-0.4-0.2-0.8-0.4-1.2-0.5
			c-0.5-0.1-1-0.1-1.5-0.1c-1,0-2,0.2-2.8,0.8c-0.8,0.7-1.2,1.6-1.1,2.6h-1.8C273.5,268.1,273.7,267.4,274,266.7 M283,271.1
			c-0.1,0.2-0.4,0.4-0.7,0.5c-0.3,0.1-0.6,0.2-0.9,0.2c-0.8,0.1-1.6,0.3-2.4,0.4c-0.8,0.1-1.5,0.3-2.2,0.5c-0.6,0.2-1.2,0.5-1.6,0.9
			c-0.5,0.4-0.7,1.1-0.6,1.7c0,0.4,0.1,0.8,0.3,1.2c0.2,0.4,0.4,0.7,0.7,0.9c0.3,0.3,0.7,0.5,1.1,0.6c0.4,0.1,0.8,0.2,1.2,0.2
			c0.7,0,1.3-0.1,2-0.3c0.6-0.2,1.2-0.5,1.6-0.9c0.5-0.4,0.9-0.9,1.1-1.5c0.3-0.6,0.4-1.3,0.4-1.9L283,271.1L283,271.1z"/>
		<path class="st0" d="M293.7,264.3v1.5h-3v10c0,0.5,0.1,1,0.2,1.4c0.2,0.3,0.6,0.5,1.2,0.6c0.5,0,1,0,1.6-0.1v1.5h-0.8
			c-0.3,0-0.5,0-0.8,0c-1.4,0.4-2.9-0.5-3.2-2c-0.1-0.4-0.1-0.9,0-1.3v-10.1h-2.6v-1.5h2.6v-4.4h1.8v4.4L293.7,264.3z"/>
		<path class="st0" d="M297.4,261.5h-1.8v-2.9h1.8V261.5z M297.4,279.1h-1.8v-14.8h1.8V279.1z"/>
		<path class="st0" d="M309.4,264.5c0.8,0.4,1.6,1,2.2,1.7c0.6,0.7,1.1,1.6,1.4,2.5c0.6,2,0.6,4.1,0,6.1c-0.3,0.9-0.7,1.8-1.4,2.5
			c-0.6,0.7-1.3,1.3-2.2,1.7c-1.9,0.8-4.1,0.8-6,0c-0.9-0.4-1.6-0.9-2.2-1.6c-0.6-0.7-1.1-1.6-1.4-2.5c-0.6-2-0.6-4.1,0-6.1
			c0.3-0.9,0.7-1.7,1.4-2.5c0.6-0.7,1.3-1.3,2.2-1.7C305.3,263.7,307.5,263.7,309.4,264.5 M304.1,266c-0.6,0.4-1.2,0.8-1.6,1.4
			c-0.4,0.6-0.8,1.3-1,2c-0.4,1.5-0.4,3.1,0,4.6c0.2,0.7,0.5,1.4,1,2c0.4,0.6,1,1.1,1.6,1.4c1.4,0.7,3.1,0.7,4.5,0
			c0.6-0.4,1.2-0.8,1.6-1.4c0.4-0.6,0.8-1.3,1-2c0.4-1.5,0.4-3.1,0-4.6c-0.2-0.7-0.5-1.4-1-2c-0.4-0.6-1-1.1-1.6-1.4
			C307.2,265.3,305.5,265.3,304.1,266"/>
		<path class="st0" d="M317.2,264.3v2.5h0.1c0.4-0.9,1-1.7,1.8-2.2c0.9-0.5,1.9-0.8,2.9-0.8c0.9,0,1.8,0.1,2.6,0.4
			c0.6,0.2,1.2,0.6,1.7,1.1c0.4,0.5,0.7,1.1,0.9,1.8c0.2,0.8,0.3,1.6,0.3,2.4v9.5h-1.8v-9.2c0-0.6-0.1-1.2-0.2-1.8
			c-0.1-0.5-0.3-1-0.6-1.4c-0.3-0.4-0.7-0.8-1.2-1c-0.6-0.2-1.2-0.4-1.8-0.3c-0.7,0-1.3,0.1-1.9,0.4c-0.5,0.2-1,0.6-1.4,1.1
			c-0.4,0.5-0.7,1-0.9,1.6c-0.2,0.7-0.3,1.3-0.4,2v8.6h-1.8v-14.8H317.2z"/>
	</g>
</g>
</svg>
