<?xml version="1.0" standalone="no"?>
<!DOCTYPE svg PUBLIC "-//W3C//DTD SVG 20010904//EN"
 "http://www.w3.org/TR/2001/REC-SVG-20010904/DTD/svg10.dtd">
<svg version="1.0" xmlns="http://www.w3.org/2000/svg"
 width="1124.000000pt" height="1124.000000pt" viewBox="0 0 1124.000000 1124.000000"
 preserveAspectRatio="xMidYMid meet">
<metadata>
Created by potrace 1.11, written by Peter Selinger 2001-2013
</metadata>
<g transform="translate(0.000000,1124.000000) scale(0.100000,-0.100000)"
fill="#000000" stroke="none">
<path d="M2539 10263 c-63 -53 -199 -192 -234 -238 -17 -22 -33 -42 -37 -45
-4 -3 -27 -36 -53 -74 -58 -88 -120 -214 -141 -291 -17 -60 -27 -251 -15 -270
4 -5 13 -28 20 -50 13 -40 57 -114 76 -127 10 -7 7 -11 -115 -137 -79 -82
-126 -134 -200 -222 -63 -74 -75 -88 -115 -137 -41 -52 -43 -50 -11 20 35 77
70 190 82 268 3 19 9 52 14 74 12 54 6 262 -10 316 -7 25 -13 50 -15 55 -1 6
-7 23 -13 38 -7 16 -12 30 -12 33 0 2 -14 27 -32 55 l-32 52 -25 -30 c-63 -72
-59 -66 -178 -255 -12 -21 -23 -44 -23 -51 0 -7 -5 -18 -11 -24 -22 -22 -81
-202 -95 -287 -28 -173 19 -345 125 -454 l51 -53 -73 -112 c-40 -62 -84 -130
-97 -152 -13 -22 -29 -43 -34 -47 -7 -5 -7 -8 -1 -8 7 0 7 -3 0 -8 -11 -7 -17
-18 -69 -115 -19 -34 -43 -80 -55 -102 l-22 -40 5 35 c15 92 19 143 20 245 1
195 -30 326 -110 468 -28 50 -112 147 -127 147 -15 0 -76 -128 -115 -240 -28
-78 -33 -98 -47 -170 -19 -96 -25 -218 -12 -244 7 -14 6 -16 -4 -11 -7 5 -10
4 -6 -2 6 -10 17 -60 22 -98 4 -40 47 -134 85 -190 37 -54 70 -86 130 -127 25
-17 46 -32 48 -34 3 -2 -26 -73 -66 -164 -9 -19 -16 -37 -17 -40 -1 -3 -4 -12
-8 -20 -24 -62 -90 -250 -93 -269 -3 -13 -11 -35 -18 -49 -12 -24 -13 -22 -15
34 -3 96 -13 173 -30 233 -6 18 -10 36 -9 40 1 3 -2 14 -5 24 -18 45 -20 53
-23 67 -8 41 -93 187 -143 247 -64 76 -137 140 -165 145 -16 2 -23 -8 -37 -55
-10 -32 -20 -75 -24 -95 -3 -21 -9 -57 -13 -82 -4 -25 -8 -66 -7 -92 0 -27 -4
-48 -8 -48 -5 0 -6 -4 -3 -9 3 -4 8 -46 10 -92 4 -71 13 -113 49 -244 7 -25
62 -125 69 -125 4 0 8 -6 8 -12 1 -33 138 -150 217 -184 57 -25 56 -24 33
-119 -6 -27 -14 -61 -16 -75 -5 -28 -12 -63 -20 -100 -13 -63 -38 -232 -38
-267 -1 -27 -16 -31 -17 -5 -3 74 -120 379 -150 390 -5 2 -9 10 -9 18 0 8 -4
14 -8 14 -4 0 -16 15 -27 33 -28 47 -142 158 -211 204 -64 43 -121 69 -130 60
-3 -3 -7 -28 -8 -56 0 -28 -4 -51 -8 -51 -3 0 -5 -8 -3 -17 2 -10 6 -63 9
-118 5 -111 26 -235 39 -235 4 0 5 -4 2 -10 -7 -11 36 -123 73 -190 80 -146
224 -266 363 -301 27 -7 49 -15 50 -18 3 -32 3 -578 -1 -564 -5 17 -57 122
-84 168 -115 201 -317 375 -511 442 -33 12 -64 19 -68 16 -5 -3 -6 -24 -3 -47
3 -22 8 -59 11 -82 24 -200 134 -438 262 -569 77 -80 191 -155 258 -171 17 -4
34 -9 40 -12 11 -7 59 -15 97 -16 28 -1 34 -13 43 -79 3 -26 14 -100 21 -139
9 -58 43 -224 48 -238 3 -8 7 -26 10 -40 2 -14 7 -33 11 -42 13 -32 -12 -19
-38 19 -157 232 -441 427 -667 459 -19 2 -43 7 -52 10 -13 4 -18 0 -18 -12 0
-19 18 -79 31 -106 5 -10 9 -22 9 -28 0 -14 80 -182 96 -200 7 -8 13 -18 13
-23 2 -32 151 -205 236 -272 60 -47 206 -125 236 -125 8 0 19 -3 23 -7 4 -4
21 -8 39 -9 18 -1 32 -3 32 -4 0 -3 49 -8 101 -9 45 -1 43 1 74 -96 7 -22 29
-85 51 -140 21 -55 39 -107 41 -115 2 -8 6 -17 9 -20 5 -4 27 -56 47 -110 3
-8 -19 9 -49 39 -169 167 -405 296 -614 336 -54 10 -165 17 -180 11 -13 -5
-10 -16 16 -68 17 -35 35 -64 40 -66 5 -2 9 -9 9 -16 0 -6 13 -27 30 -46 16
-19 29 -40 30 -47 0 -6 3 -13 8 -15 4 -1 30 -30 57 -63 68 -81 135 -145 204
-195 56 -41 175 -110 196 -114 6 -1 33 -9 60 -18 28 -10 68 -20 90 -23 49 -8
175 -12 181 -6 3 3 17 6 33 7 25 2 31 -3 46 -37 10 -21 22 -39 27 -39 4 0 8
-6 8 -14 0 -14 29 -67 95 -171 17 -27 34 -57 38 -65 4 -8 27 -46 52 -83 25
-38 40 -65 33 -61 -19 11 -82 58 -88 65 -3 3 -9 8 -15 10 -5 2 -46 24 -90 49
-44 25 -82 45 -85 46 -3 0 -23 8 -45 18 -40 17 -120 45 -146 50 -8 2 -21 6
-29 9 -70 28 -378 43 -402 19 -8 -8 -1 -24 30 -64 97 -125 241 -255 388 -350
73 -47 250 -122 299 -128 3 0 6 0 8 -1 39 -17 245 -14 305 4 52 16 87 14 76
-4 -3 -5 -1 -9 4 -9 4 0 44 -43 87 -96 79 -98 127 -152 245 -277 l34 -37 -64
31 c-35 17 -96 43 -135 59 -70 27 -95 35 -186 55 -11 2 -28 6 -37 9 -123 39
-407 33 -511 -10 l-35 -15 45 -40 c69 -63 154 -126 239 -178 30 -19 66 -41 80
-50 14 -8 27 -16 30 -17 9 -2 125 -54 142 -64 34 -19 164 -53 260 -68 113 -17
277 4 369 48 36 17 37 17 67 -9 62 -54 187 -157 210 -176 7 -5 22 -18 33 -28
10 -9 21 -17 24 -17 11 0 110 -82 113 -94 3 -8 1 -8 -5 1 -4 6 -21 13 -38 16
-16 3 -47 11 -69 17 -236 70 -535 72 -741 6 -93 -30 -107 -37 -97 -52 17 -27
171 -114 312 -178 139 -62 331 -113 455 -121 22 -2 42 -4 45 -5 3 -1 9 -2 14
-1 5 1 39 4 75 6 79 4 132 12 186 30 61 20 138 56 153 72 12 12 19 11 46 -7
17 -12 39 -24 49 -27 9 -3 17 -9 17 -14 0 -5 9 -9 19 -9 11 0 21 -4 23 -9 3
-9 61 -43 148 -88 30 -15 57 -30 60 -33 3 -3 30 -18 60 -32 30 -14 64 -34 75
-43 19 -15 19 -16 -10 -10 -71 13 -108 16 -245 19 -80 2 -172 0 -205 -5 -136
-20 -170 -26 -170 -29 0 -1 -11 -3 -24 -6 -71 -13 -225 -78 -259 -110 l-23
-21 63 -27 c35 -15 72 -31 83 -36 17 -7 90 -32 105 -35 3 -1 25 -7 50 -14 99
-29 258 -60 335 -67 122 -11 283 -6 355 11 14 3 36 8 50 11 73 15 212 86 258
131 7 7 19 13 26 13 13 0 92 -29 189 -69 24 -10 295 -102 312 -105 21 -5 102
-28 140 -40 94 -31 95 -31 95 11 1 21 5 57 9 81 10 49 -2 68 -47 78 -21 5
-117 32 -142 40 -3 0 -20 5 -38 9 -38 9 -49 26 -56 86 -9 82 -26 134 -75 224
-42 78 -110 175 -123 175 -4 0 -8 4 -8 10 0 33 -354 332 -370 313 -12 -14 -40
-93 -47 -131 -14 -82 -6 -194 20 -267 24 -66 78 -157 115 -193 30 -29 18 -28
-54 4 -215 94 -339 158 -336 174 2 8 5 50 6 93 9 231 -113 485 -354 736 l-42
44 -19 -29 c-31 -46 -69 -134 -83 -194 -12 -52 -14 -172 -3 -215 21 -85 33
-117 58 -162 31 -58 30 -63 -8 -33 -14 11 -31 20 -39 20 -7 0 -14 4 -16 8 -1
5 -50 40 -108 79 -148 101 -152 105 -136 145 15 35 36 132 40 176 1 15 5 33 9
40 5 6 4 12 -1 12 -4 0 -8 17 -8 38 -1 62 -15 162 -25 168 -5 3 -7 9 -5 13 9
14 -102 292 -124 311 -8 7 -63 101 -72 123 -11 26 -23 21 -65 -29 -21 -25 -44
-52 -51 -60 -8 -8 -15 -20 -16 -28 -1 -7 -9 -25 -19 -39 -9 -15 -17 -32 -17
-40 0 -8 -3 -17 -7 -21 -4 -3 -8 -12 -9 -19 -2 -7 -6 -23 -9 -37 -5 -20 -12
-74 -17 -135 -3 -35 28 -186 44 -217 5 -10 7 -18 4 -18 -8 0 -129 115 -237
224 l-98 100 18 25 c49 69 92 184 107 281 9 62 9 205 0 260 -4 25 -9 54 -10
65 -3 16 -15 67 -29 120 -5 18 -28 90 -34 105 -4 8 -5 18 -5 23 1 4 -2 7 -8 7
-5 0 -7 7 -4 15 4 8 1 15 -5 15 -6 0 -11 9 -11 19 0 27 -15 34 -33 16 -9 -8
-18 -15 -21 -15 -7 0 -62 -56 -99 -103 -74 -91 -122 -206 -131 -310 -2 -28 -5
-56 -6 -62 -1 -5 -2 -12 0 -15 1 -3 3 -29 5 -58 2 -30 6 -60 9 -68 9 -25 -9
-15 -26 13 -9 16 -25 37 -36 48 -10 11 -27 34 -38 50 -22 35 -26 40 -59 81
-14 18 -25 35 -25 38 0 4 -9 16 -20 28 -11 12 -26 34 -32 50 -7 15 -16 28 -20
28 -15 0 -8 17 23 51 69 76 122 170 159 280 22 65 24 72 36 169 13 98 7 291
-11 370 -4 14 -9 42 -12 63 -3 21 -9 40 -14 43 -14 8 -119 -65 -180 -125 -31
-32 -73 -83 -93 -114 -39 -60 -80 -147 -69 -147 3 0 0 -7 -7 -15 -7 -8 -10
-15 -8 -15 3 0 0 -24 -7 -52 -6 -29 -11 -79 -10 -110 1 -62 -4 -71 -20 -35 -6
12 -25 49 -42 82 -110 210 -144 305 -112 305 10 0 149 135 149 145 0 3 6 13
12 20 28 31 35 43 75 125 41 83 75 185 89 265 4 22 9 49 11 60 2 11 7 84 10
162 4 108 3 143 -6 143 -13 0 -123 -50 -131 -59 -3 -4 -17 -12 -32 -18 -16 -7
-28 -17 -28 -23 0 -5 -6 -10 -12 -10 -18 0 -128 -115 -164 -170 -32 -49 -61
-108 -76 -155 -18 -58 -35 -132 -32 -148 1 -8 -5 -18 -13 -21 -7 -3 -12 -2 -9
2 2 4 -4 35 -15 67 -17 51 -31 99 -54 185 -2 8 -12 42 -21 75 -9 33 -17 69
-19 80 -1 11 -6 28 -10 37 -5 12 2 21 22 34 151 91 242 177 324 303 30 46 54
86 55 90 0 3 12 31 26 61 31 68 40 92 44 107 1 6 7 27 13 46 23 68 59 257 50
263 -20 12 -213 -61 -247 -93 -7 -7 -19 -13 -26 -13 -15 0 -163 -142 -198
-190 -25 -35 -70 -116 -74 -135 -2 -5 -12 -34 -23 -63 -11 -29 -19 -54 -18
-56 1 -3 -1 -8 -6 -12 -4 -4 -7 4 -8 17 0 13 -2 33 -4 44 -2 11 -6 40 -10 65
-3 25 -7 63 -10 85 -3 22 -7 90 -11 150 -3 61 -7 115 -9 122 -2 7 17 20 43 30
106 40 217 109 302 188 52 48 130 135 130 145 0 4 3 10 8 12 13 6 78 111 121
197 40 79 101 231 101 252 0 33 -353 -75 -368 -113 -2 -4 -8 -8 -14 -8 -25 0
-155 -119 -198 -180 -13 -19 -30 -41 -37 -48 -7 -7 -29 -47 -49 -88 -19 -41
-37 -74 -38 -74 -4 0 10 235 19 320 2 19 6 58 9 85 9 91 15 107 39 111 102 16
219 59 290 107 15 10 27 15 27 10 0 -4 4 -3 8 2 4 6 23 22 42 35 53 37 58 41
145 119 65 58 215 246 215 269 0 6 6 15 13 19 7 4 21 24 31 43 9 19 26 50 38
68 11 18 18 35 16 38 -7 6 -118 10 -118 4 0 -3 -15 -6 -32 -7 -18 -1 -43 -3
-56 -4 -12 -1 -25 -6 -28 -10 -3 -5 -9 -7 -14 -4 -4 3 -24 -2 -44 -10 -20 -8
-37 -14 -38 -14 -2 1 -25 -8 -52 -19 -27 -12 -50 -22 -53 -22 -2 0 -36 -22
-76 -49 -82 -56 -155 -125 -209 -197 -21 -27 -42 -54 -48 -61 -5 -7 -10 -16
-10 -21 0 -4 -6 -17 -14 -28 -13 -17 -14 -15 -6 21 5 22 11 51 13 65 3 14 10
45 17 70 7 25 14 53 16 62 2 10 6 26 8 36 2 9 11 40 19 67 9 28 25 82 37 120
11 39 24 76 29 84 5 7 30 15 57 17 196 13 393 93 581 236 75 57 243 222 316
310 l48 57 -37 7 c-48 9 -196 9 -254 1 -25 -4 -71 -14 -104 -22 -67 -18 -236
-94 -236 -106 0 -5 -5 -9 -11 -9 -9 0 -66 -40 -106 -75 -50 -44 -111 -105
-105 -105 4 0 2 -4 -3 -8 -6 -4 -21 -20 -33 -36 -13 -17 -22 -23 -22 -14 0 8
3 18 8 22 4 4 7 11 8 14 1 11 19 52 77 182 11 25 20 48 19 53 -1 4 2 7 6 7 5
0 15 18 22 40 7 22 18 40 23 40 6 0 8 3 5 6 -4 3 10 36 31 72 20 37 45 83 56
103 l18 37 106 -1 c94 0 137 3 231 17 39 6 182 54 247 82 75 33 253 135 253
146 0 4 5 8 11 8 11 0 79 48 91 65 5 7 8 7 8 0 0 -5 4 -5 8 2 4 6 25 26 47 43
74 58 125 104 125 111 0 7 -7 9 -110 33 -62 14 -265 16 -315 3 -11 -3 -33 -8
-50 -12 -171 -40 -375 -155 -497 -279 -35 -36 -36 -21 -2 30 76 112 130 190
139 200 5 6 17 22 25 34 28 42 94 125 102 128 4 2 8 9 8 15 1 7 23 37 50 67
28 30 50 58 50 62 0 3 24 0 53 -7 28 -8 66 -17 82 -20 35 -6 221 -8 250 -2 11
3 43 8 70 11 28 4 68 12 90 18 22 6 47 12 55 13 8 1 22 5 30 8 54 21 207 78
215 80 6 1 12 4 15 7 3 3 55 30 115 60 61 30 112 58 113 62 2 4 8 8 13 8 5 0
33 16 63 35 30 19 60 35 66 35 20 0 9 20 -19 35 -16 8 -69 26 -118 41 -125 37
-303 39 -454 5 -103 -23 -348 -127 -357 -152 -2 -5 -8 -9 -13 -9 -6 0 -37 -18
-70 -41 -33 -22 -62 -39 -64 -37 -4 4 331 337 406 403 72 64 138 120 217 185
71 59 74 60 135 61 34 0 71 2 82 4 11 2 36 6 56 9 81 13 310 102 354 139 6 4
39 27 75 50 36 23 70 46 76 52 6 5 32 28 58 49 63 52 165 154 246 245 80 89
87 101 60 96 -11 -2 -22 -1 -24 3 -9 15 -246 4 -308 -14 -9 -3 -27 -7 -40 -10
-29 -7 -38 -9 -63 -18 -29 -11 -189 -90 -195 -96 -3 -3 -25 -19 -49 -35 -45
-30 -184 -162 -234 -223 -33 -38 -147 -211 -147 -221 0 -4 -23 -25 -52 -46
-28 -22 -56 -44 -62 -50 -6 -6 -31 -26 -56 -45 -54 -42 -96 -77 -127 -107 -12
-12 -39 -34 -60 -50 l-37 -28 19 27 c11 15 23 28 28 28 4 0 7 4 7 9 0 6 13 29
29 53 31 46 114 196 118 213 1 6 14 39 29 75 60 145 84 328 59 455 -12 57 -31
115 -38 115 -2 0 -23 -17 -48 -37z"/>
<path d="M8642 10283 c-21 -40 -36 -134 -36 -225 -1 -54 3 -98 7 -98 5 0 6 -4
3 -8 -7 -12 27 -143 58 -225 29 -76 92 -203 114 -229 8 -10 12 -18 8 -18 -4 0
-1 -7 6 -15 27 -30 38 -44 38 -50 0 -4 11 -21 25 -39 35 -45 31 -53 -7 -17
-18 17 -36 31 -40 31 -5 0 -8 8 -8 17 0 9 -3 13 -6 10 -4 -4 -48 28 -98 71
-50 43 -112 93 -138 111 -26 19 -50 42 -53 53 -4 10 -11 18 -16 18 -5 0 -9 5
-9 11 0 6 -28 52 -62 102 -74 108 -231 269 -320 327 -70 46 -214 118 -250 124
-13 3 -23 5 -23 6 0 8 -175 36 -221 35 -24 0 -44 4 -44 10 0 7 -3 7 -8 0 -4
-6 -20 -11 -37 -11 -24 -1 -72 -8 -93 -13 -12 -3 185 -210 299 -315 188 -173
468 -309 663 -321 33 -2 63 -5 66 -6 3 0 17 0 31 1 15 0 33 -5 40 -12 8 -7 32
-26 54 -42 22 -16 45 -34 50 -40 6 -6 28 -26 50 -45 161 -136 284 -251 443
-414 86 -88 104 -116 50 -75 -33 25 -205 128 -213 128 -2 0 -28 11 -57 25 -64
29 -212 73 -282 82 -111 15 -281 7 -356 -17 -19 -6 -43 -13 -53 -15 -11 -2
-41 -14 -67 -26 l-49 -22 45 -28 c85 -55 257 -149 270 -149 7 0 15 -4 18 -8 4
-8 33 -21 171 -77 89 -37 197 -67 289 -81 22 -3 44 -8 48 -10 9 -6 223 -5 258
0 90 15 107 19 122 27 13 7 27 -3 65 -49 26 -31 50 -59 53 -62 3 -3 25 -32 49
-65 25 -33 47 -62 50 -65 15 -13 181 -257 205 -301 l19 -34 -29 30 c-16 17
-56 52 -89 78 -33 26 -65 52 -72 57 -7 6 -15 10 -19 10 -4 0 -15 6 -23 14 -25
23 -172 93 -221 106 -25 7 -50 16 -56 21 -6 5 -13 7 -15 5 -2 -3 -31 2 -64 10
-55 12 -270 14 -315 1 -8 -2 -36 -10 -62 -17 -27 -7 -48 -16 -48 -20 0 -4 21
-25 47 -46 26 -22 56 -47 65 -56 10 -10 18 -16 18 -13 0 3 10 -4 23 -16 12
-11 42 -35 67 -52 25 -17 47 -34 48 -39 2 -4 10 -8 18 -8 8 0 14 -4 14 -10 0
-5 4 -10 8 -10 5 0 47 -22 93 -50 46 -27 90 -50 97 -50 6 0 12 -5 12 -12 0 -6
3 -8 6 -5 4 4 19 0 33 -8 35 -19 165 -64 221 -76 77 -17 131 -21 247 -21 107
1 112 0 119 -21 4 -12 10 -24 13 -27 4 -3 28 -47 54 -99 26 -51 50 -98 54
-105 4 -6 8 -13 8 -16 1 -3 21 -45 44 -95 24 -49 44 -96 44 -102 0 -7 3 -13 7
-13 4 0 12 -17 19 -37 7 -21 15 -45 18 -53 3 -8 -9 0 -26 18 -17 18 -31 35
-31 37 0 7 -106 104 -151 138 -100 75 -260 151 -341 161 -18 3 -33 5 -33 6 0
15 -292 17 -307 2 -11 -11 39 -80 109 -149 17 -18 30 -33 28 -33 -7 0 147
-142 184 -170 18 -14 39 -31 46 -37 8 -7 18 -13 23 -13 6 0 12 -3 14 -8 6 -13
101 -70 178 -105 117 -54 213 -79 344 -91 26 -3 51 -7 54 -10 11 -12 62 -179
56 -187 -3 -5 -1 -9 4 -9 5 0 13 -15 16 -32 3 -18 8 -42 11 -53 2 -11 6 -27 7
-35 2 -8 7 -20 11 -26 4 -7 9 -28 12 -48 2 -20 6 -40 9 -44 2 -4 7 -23 10 -43
3 -20 8 -44 12 -55 3 -10 -5 -3 -17 16 -13 19 -27 37 -31 38 -5 2 -8 8 -8 14
0 11 -78 106 -120 147 -58 56 -213 158 -250 166 -3 0 -16 7 -30 15 -14 7 -27
13 -30 12 -3 -1 -21 3 -40 8 -19 5 -53 12 -75 15 -22 4 -51 8 -65 11 -25 5
-62 7 -112 5 -28 -1 -32 -21 -10 -43 7 -7 12 -18 12 -25 0 -7 5 -13 10 -13 6
0 10 -5 10 -11 0 -26 125 -201 210 -293 64 -70 63 -69 110 -107 23 -18 47 -39
54 -44 18 -17 138 -90 176 -107 60 -28 143 -57 185 -64 55 -9 69 -18 72 -46 1
-12 5 -36 7 -53 7 -40 15 -130 22 -240 10 -162 10 -176 2 -181 -4 -3 -8 1 -8
9 0 43 -99 195 -178 274 -54 54 -162 133 -181 133 -6 0 -11 4 -11 9 0 5 -12
12 -27 16 -16 3 -41 12 -58 20 -39 17 -138 42 -193 49 -40 5 -42 4 -38 -18 2
-14 10 -35 17 -48 7 -12 12 -25 12 -28 -2 -29 96 -225 158 -317 131 -193 271
-307 486 -392 22 -9 30 -18 28 -31 -2 -9 -5 -61 -7 -114 -1 -53 -5 -96 -8 -96
-3 0 -5 -15 -6 -33 0 -17 -4 -57 -8 -87 -6 -48 -11 -89 -15 -138 -1 -7 -6 -10
-12 -7 -6 4 -8 9 -5 12 6 6 -39 126 -67 178 -22 40 -95 142 -120 167 -8 7 -28
24 -46 38 -18 14 -44 35 -59 48 -15 12 -37 25 -49 28 -13 4 -23 10 -23 14 0 4
-8 10 -17 13 -10 3 -45 17 -79 31 -34 14 -77 28 -97 31 -35 6 -36 5 -31 -22 2
-15 7 -39 10 -53 3 -14 8 -38 11 -55 3 -16 16 -67 29 -114 85 -292 224 -478
464 -623 22 -14 37 -58 20 -58 -4 0 -7 -6 -8 -12 -2 -32 -11 -75 -21 -101 -6
-15 -10 -31 -9 -35 1 -4 -2 -14 -5 -22 -3 -8 -23 -71 -44 -140 l-38 -124 -12
59 c-19 93 -71 234 -93 255 -3 3 -13 17 -23 32 -35 55 -122 139 -189 184 -67
44 -148 84 -170 84 -7 0 -9 -45 -5 -138 6 -142 9 -164 27 -247 6 -27 12 -60
13 -72 0 -13 4 -23 7 -23 4 0 7 -6 7 -12 0 -7 14 -47 32 -89 54 -129 144 -248
250 -330 l34 -27 -19 -43 c-38 -86 -162 -337 -171 -342 -4 -3 -8 23 -8 56 0
76 -27 193 -63 267 -14 30 -29 57 -32 60 -3 3 -13 17 -23 32 -27 43 -128 148
-142 148 -8 0 -15 4 -17 9 -4 11 -85 61 -98 61 -5 0 -9 -3 -8 -7 1 -5 -2 -28
-7 -53 -20 -110 -27 -180 -28 -280 -1 -157 18 -259 71 -382 34 -78 81 -158 93
-158 5 0 9 -5 9 -11 0 -7 14 -25 31 -41 l30 -29 -32 -52 c-17 -29 -47 -72 -65
-97 -45 -60 -51 -68 -109 -149 -54 -76 -68 -87 -56 -43 16 55 5 232 -19 302
-43 127 -130 247 -230 317 -18 13 -21 12 -29 -9 -27 -68 -36 -94 -33 -100 1
-5 -3 -8 -10 -8 -6 0 -9 -3 -5 -6 3 -4 0 -22 -8 -40 -8 -19 -11 -34 -8 -34 3
0 0 -7 -7 -15 -7 -8 -10 -15 -7 -15 3 0 -1 -23 -8 -52 -43 -162 -38 -357 13
-503 9 -27 20 -51 25 -53 4 -2 7 -12 7 -22 0 -10 3 -20 8 -22 8 -4 42 -66 42
-78 0 -13 -244 -254 -312 -308 -14 -11 -13 -4 4 50 37 119 30 310 -15 393 -6
11 -12 22 -12 25 -5 34 -111 180 -130 180 -10 0 -94 -137 -135 -219 -121 -242
-148 -487 -74 -675 14 -35 13 -39 -3 -52 -28 -22 -176 -128 -194 -139 -21 -13
-67 -43 -101 -66 -15 -11 -30 -19 -33 -19 -3 0 8 24 24 53 16 28 37 79 46 112
18 62 24 197 12 250 -4 17 -9 39 -11 50 -9 41 -71 163 -91 177 -8 6 -50 -34
-115 -109 -62 -71 -170 -225 -170 -242 0 -5 -6 -16 -13 -23 -21 -21 -78 -176
-92 -250 -11 -60 -13 -196 -3 -237 3 -16 -23 -32 -190 -109 -121 -57 -212 -94
-212 -88 0 2 15 22 34 44 45 54 95 161 110 236 20 96 8 220 -30 303 -17 38
-18 38 -41 19 -10 -8 -49 -38 -88 -67 -291 -220 -466 -481 -467 -696 0 -24 6
-21 -188 -76 -76 -21 -103 -34 -96 -46 4 -6 18 -121 19 -148 0 -12 26 -10 72
7 11 4 23 8 27 9 4 1 13 3 20 6 15 5 102 27 105 27 1 0 60 20 130 44 70 25
133 46 138 48 11 3 39 14 70 26 128 49 157 60 166 60 5 0 34 -18 64 -40 30
-22 55 -37 55 -33 0 4 4 3 8 -3 9 -15 122 -59 188 -74 99 -22 271 -32 292 -17
8 6 12 5 12 -2 0 -7 4 -10 8 -7 5 3 35 7 68 10 32 3 70 8 84 11 14 3 39 7 55
10 113 17 316 78 428 128 58 26 65 32 55 45 -29 35 -201 104 -318 127 -14 3
-50 10 -80 16 -75 16 -336 18 -442 5 -49 -6 -88 -8 -88 -4 0 5 30 23 68 42 37
18 87 45 112 58 25 14 70 39 100 55 30 17 88 50 128 75 l73 44 77 -37 c99 -49
104 -51 192 -66 54 -9 252 -9 298 0 17 4 47 9 65 12 142 24 379 118 537 213
83 50 106 73 86 84 -23 13 -163 58 -197 63 -144 23 -304 26 -409 10 -25 -4
-54 -9 -65 -10 -11 -1 -31 -5 -45 -8 -120 -28 -175 -40 -176 -36 0 2 -7 -1
-15 -7 -8 -6 -23 -14 -34 -18 -24 -8 -21 -5 102 89 43 33 80 62 83 65 3 3 27
24 55 45 27 22 63 52 80 67 85 76 89 77 123 59 20 -12 108 -40 149 -48 34 -7
208 -7 243 0 71 15 129 30 184 48 71 24 264 115 283 134 7 8 22 17 33 20 11 3
20 11 20 16 0 5 5 9 11 9 15 0 145 100 198 151 l44 44 -54 16 c-121 37 -303
40 -464 9 -27 -6 -61 -12 -74 -15 -70 -13 -210 -65 -303 -112 -27 -13 -48 -20
-48 -16 0 5 19 29 43 54 80 87 152 168 174 196 12 15 30 37 40 48 15 17 94
115 98 122 1 2 28 -4 61 -13 70 -18 190 -24 254 -12 25 5 61 11 80 14 88 15
255 95 353 170 31 24 59 44 62 44 2 0 30 24 61 53 105 96 172 167 213 226 23
32 24 34 5 44 -28 16 -205 16 -297 0 -172 -30 -359 -106 -517 -212 -41 -27
-77 -47 -80 -44 -3 3 1 8 8 10 6 3 12 11 12 19 0 8 3 14 8 14 4 0 12 10 18 23
6 12 48 82 92 155 44 73 93 157 109 187 26 53 28 55 61 49 45 -9 158 -8 207 1
22 4 49 8 60 10 34 6 139 52 204 90 85 50 196 144 271 231 98 113 227 315 214
336 -10 16 -163 2 -259 -24 -22 -6 -44 -11 -50 -12 -5 -2 -27 -10 -49 -19 -21
-9 -40 -17 -43 -17 -19 0 -242 -127 -263 -150 -3 -3 -21 -18 -40 -33 -19 -16
-64 -56 -100 -90 -35 -34 -59 -55 -54 -47 6 8 20 40 32 70 12 30 27 69 33 85
7 17 13 32 14 35 1 3 6 16 12 30 6 14 30 80 53 147 23 68 48 123 54 124 6 0
29 1 51 1 71 0 188 29 265 65 41 20 77 39 80 43 3 4 10 9 16 11 46 17 189 160
244 244 21 33 43 65 48 71 18 20 90 178 116 255 31 90 33 112 9 106 -10 -3
-36 -8 -58 -12 -84 -13 -287 -96 -323 -131 -7 -8 -17 -14 -22 -14 -5 0 -15 -6
-22 -12 -7 -7 -29 -25 -49 -40 -76 -57 -194 -182 -253 -268 -20 -30 -35 -46
-33 -35 1 11 6 26 11 33 4 7 6 16 3 18 -3 3 -1 20 4 37 5 18 12 46 14 62 3 17
10 44 15 60 5 17 11 48 14 70 7 47 15 100 22 135 3 14 8 49 11 78 6 55 9 58
53 66 65 11 125 28 137 38 7 6 13 7 13 4 0 -4 26 7 58 24 144 79 260 209 340
380 28 61 60 146 67 180 2 8 8 34 14 56 6 23 13 54 15 70 2 16 7 55 11 88 l8
59 -29 -6 c-56 -10 -75 -16 -122 -39 -141 -68 -289 -195 -384 -329 -26 -37
-69 -109 -95 -161 l-48 -95 1 285 1 286 54 15 c30 8 57 19 61 25 4 6 8 8 8 4
0 -8 86 40 120 68 57 47 123 119 148 164 38 65 51 91 76 153 15 37 24 72 21
77 -3 5 -1 11 4 14 8 5 21 59 27 109 1 9 2 18 4 20 7 9 12 214 6 301 -1 22 -7
41 -13 43 -6 2 -31 -6 -55 -18 -149 -75 -292 -228 -382 -406 -21 -43 -72 -180
-81 -218 -1 -5 -5 -27 -10 -48 -4 -21 -10 -35 -13 -32 -6 6 -8 13 -17 85 -10
81 -23 162 -31 200 -1 8 -12 60 -23 115 -12 55 -23 110 -26 123 -5 19 2 26 47
47 77 36 119 66 179 130 68 71 140 232 157 349 14 103 7 328 -13 396 -2 8 -6
26 -9 40 -9 51 -29 120 -36 125 -10 6 -64 -26 -102 -61 -122 -115 -207 -261
-254 -439 -3 -12 -21 -107 -28 -150 -3 -16 -6 -58 -7 -92 -1 -35 -5 -63 -8
-63 -3 0 -14 28 -24 63 -11 34 -22 71 -27 82 -4 11 -16 43 -25 70 -10 28 -23
64 -31 80 -7 17 -27 68 -45 115 -17 47 -36 90 -41 96 -17 23 -18 55 0 61 15 5
91 62 117 88 37 35 108 162 120 213 3 9 9 37 16 62 12 49 15 186 5 264 -7 58
-45 217 -56 231 -4 6 -10 23 -14 38 -9 38 -83 194 -95 201 -6 4 -19 1 -29 -5
-21 -13 -86 -99 -120 -161 -36 -63 -80 -204 -91 -288 -9 -74 -7 -251 3 -320 3
-19 8 -50 11 -67 7 -45 -1 -41 -28 15 -13 26 -34 65 -47 87 -12 22 -34 60 -48
85 -14 25 -49 82 -78 128 -30 45 -54 87 -54 92 0 6 -3 10 -7 10 -5 0 -25 27
-46 59 l-38 60 46 46 c26 25 61 71 77 103 32 58 61 149 52 163 -2 4 -1 10 3
12 9 6 8 123 -1 177 -13 76 -18 97 -47 179 -17 47 -33 94 -36 104 -3 9 -9 17
-13 17 -4 0 -11 12 -14 26 -4 14 -15 38 -25 53 -9 14 -44 67 -77 116 -32 50
-70 102 -83 118 -24 26 -51 36 -51 18 0 -5 -6 -16 -13 -23 -14 -14 -54 -104
-69 -153 -17 -58 -22 -111 -22 -225 0 -113 4 -148 24 -232 6 -24 13 -53 16
-66 8 -37 66 -196 75 -206 5 -6 9 -14 9 -20 0 -8 -18 10 -47 49 -13 16 -96
118 -123 149 -42 49 -121 135 -197 214 -115 119 -107 103 -77 143 59 79 83
163 81 280 -1 49 -4 89 -7 89 -3 0 -6 9 -7 21 -6 70 -95 256 -178 368 -63 86
-87 113 -191 216 -133 132 -149 143 -162 118z"/>
</g>
</svg>
